<svg width="64" height="64" viewBox="0 0 64 64" fill="none" xmlns="http://www.w3.org/2000/svg">
<path d="M28.6975 21.8585C30.8575 25.2612 29.8502 29.7706 26.4476 31.9307C23.0449 34.0908 18.5354 33.0835 16.3753 29.6808C12.6686 24.4856 12.0838 18.8397 12.0805 15.8162C12.0792 14.5615 13.152 13.6623 14.3937 13.8423C18.213 14.3959 25.9357 16.1974 28.6975 21.8585Z" fill="#B7D3AE"/>
<path d="M29.324 20.5987C27.5774 23.3502 28.3919 26.9966 31.1433 28.7433C33.8948 30.49 37.5413 29.6755 39.2879 26.924C42.1207 22.9538 42.6986 18.658 42.7558 16.1344C42.7842 14.88 41.7102 13.9813 40.4715 14.1807C37.2681 14.6965 31.4604 16.2195 29.324 20.5987Z" fill="#B7D3AE"/>
<path d="M19.4304 17.6013L25.6334 24.5341C30.9851 30.7173 31.5932 35.5824 31.5932 40.4475" stroke="#26559A" stroke-width="2" stroke-linecap="round"/>
<path d="M38.6425 16.7773L32.8447 24.0525" stroke="#26559A" stroke-width="2" stroke-linecap="round"/>
<path d="M31.0647 20.379C33.2247 23.7817 32.2174 28.2912 28.8147 30.4512C25.4121 32.6113 20.9026 31.604 18.7425 28.2013C15.0358 23.0061 14.451 17.3602 14.4477 14.3367C14.4464 13.082 15.5192 12.1828 16.7609 12.3628C20.5802 12.9164 28.3029 14.7179 31.0647 20.379Z" stroke="#26559A" stroke-width="2.5"/>
<path d="M28.5524 16.9931C33.1103 12.4136 38.4285 11.337 41.2426 11.1058C42.3951 11.0111 43.3187 11.8886 43.3545 13.0445C43.471 16.8117 43.0706 24.9698 37.8495 28.7122C35.7494 30.6056 32.8514 31.053 30.3768 30.1177" stroke="#26559A" stroke-width="2.5"/>
<path d="M16.1734 54.4348C10.7001 52.6104 9.62697 55.2213 8.87573 57.2872H58.0868C57.1854 53.0053 52.218 52.7446 49.8704 52.8384C48.0675 49.0071 44.2362 47.486 42.5459 47.2043C37.1934 40.443 27.1199 41.0558 24.0792 48.3534C19.2141 47.7453 16.7815 52.0022 16.1734 54.4348Z" fill="#B7D3AE"/>
<path d="M13.8319 52.0922C9.32453 50.9653 6.8025 54.1932 6.05127 56.2591H57.2624C56.3609 51.9772 51.3936 51.7165 49.046 51.8103C47.243 47.979 43.4117 46.4578 41.7214 46.1762C36.3689 39.4149 25.6638 39.6967 21.4382 46.4579C17.3815 46.4579 14.6771 50.2141 13.8319 52.0922Z" stroke="#26559A" stroke-width="2" stroke-linecap="round"/>
<path d="M2 57H62" stroke="#1C4D99" stroke-width="2.5" stroke-linecap="round"/>
</svg>
