<svg width="64" height="64" viewBox="0 0 64 64" fill="none" xmlns="http://www.w3.org/2000/svg">
<path d="M22.705 49.5117L22.5799 48.6236C22.2257 46.1109 23.574 43.6367 26.0483 43.0738C26.2623 43.0251 26.481 42.9779 26.7044 42.9322C34.2703 41.3864 47.2132 41.6723 61.8032 50.2047C62.433 50.5731 62.1809 51.5616 61.4833 51.7755C55.7231 53.5414 49.8249 54.3132 43.8076 54.012C39.066 53.7746 33.2501 53.6239 28.3332 53.9144C25.6157 54.075 23.085 52.2073 22.705 49.5117Z" fill="#B7D3AE"/>
<path d="M5.70543 46.1416C4.93907 47.8501 4.12338 49.6319 3.38822 51.1626C2.94138 52.093 3.80383 53.1439 4.79051 52.8411C6.05687 52.4524 7.29205 52.0447 8.49655 51.6198C8.61773 51.577 8.73326 51.5198 8.84091 51.4496L40.2455 30.9802C40.2789 30.9585 40.3094 30.9321 40.3357 30.9022C42.9756 27.9052 44.9954 25.0126 46.4644 22.4474C48.2482 19.3323 46.9637 15.5595 44.0086 13.5215C40.2656 10.9402 35.1007 11.9291 32.1848 15.4178C26.5406 22.1707 19.0785 29.5535 14.0906 34.3084C10.5575 37.6765 7.70323 41.6879 5.70543 46.1416Z" fill="#B7D3AE"/>
<circle cx="34.7402" cy="34.0612" r="5.70089" fill="#B7D3AE"/>
<circle cx="15.1943" cy="50.3493" r="5.70089" fill="#B7D3AE"/>
<path d="M10.3078 52.7767C9.04567 53.2249 7.74976 53.6542 6.41942 54.0625C5.43274 54.3653 4.57029 53.3144 5.01713 52.384C5.75228 50.8534 6.56797 49.0715 7.33434 47.363C9.33214 42.9093 12.1864 38.8979 15.7195 35.5298C20.7074 30.775 28.1695 23.3921 33.8137 16.6392C36.7296 13.1506 41.8945 12.1616 45.6375 14.743C48.5926 16.781 49.8771 20.5537 48.0933 23.6688C46.617 26.2469 44.5841 29.1558 41.9247 32.1689" stroke="#26559A" stroke-width="2" stroke-linecap="round"/>
<path d="M26.596 41.1898C26.3726 41.2354 26.1539 41.2827 25.9399 41.3313C23.4656 41.8943 22.1173 44.3685 22.4715 46.8812L22.5966 47.7693C22.9766 50.4649 25.5073 52.3325 28.2248 52.172M26.596 41.1898C34.1619 39.644 47.1048 39.9299 61.6948 48.4623C62.3246 48.8306 62.0725 49.8192 61.3749 50.0331C55.6147 51.799 49.7165 52.5707 43.6992 52.2695C38.9576 52.0322 33.1417 51.8815 28.2248 52.172M26.596 41.1898C30.668 40.9835 35.9617 49.1277 28.2248 52.172" stroke="#26559A" stroke-width="2" stroke-linecap="round"/>
<path d="M48.7035 10.3435C49.4673 10.8696 49.6602 11.9156 49.1342 12.6795L47.0415 15.7181L44.2748 13.8127L46.3674 10.7741C46.8935 10.0102 47.9395 9.81736 48.7035 10.3435Z" stroke="#26559A" stroke-width="2"/>
<path d="M34.74 16.144L38.4048 18.9945" stroke="#26559A" stroke-width="2" stroke-linecap="round"/>
<path d="M32.2969 18.5874L37.5906 23.0667" stroke="#26559A" stroke-width="2" stroke-linecap="round"/>
<path d="M40.4409 25.917L44.1058 28.7674" stroke="#26559A" stroke-width="2" stroke-linecap="round"/>
<path d="M29.8535 21.0305L33.5184 23.881" stroke="#26559A" stroke-width="2" stroke-linecap="round"/>
<path d="M34.77 46.019L34.4003 41.3909" stroke="#26559A" stroke-width="2" stroke-linecap="round"/>
<path d="M41.2854 51.72L40.9157 47.0918" stroke="#26559A" stroke-width="2" stroke-linecap="round"/>
<path d="M51.0583 48.4624L50.6887 43.8343" stroke="#26559A" stroke-width="2" stroke-linecap="round"/>
<path d="M22.5239 29.1748L26.1888 32.0252" stroke="#26559A" stroke-width="2" stroke-linecap="round"/>
<path d="M19.2664 34.0613L22.9312 36.9117" stroke="#26559A" stroke-width="2" stroke-linecap="round"/>
<path d="M15.1941 38.1333L18.8589 40.9837" stroke="#26559A" stroke-width="2" stroke-linecap="round"/>
<circle cx="16.0087" cy="48.7206" r="6.32971" stroke="#26559A" stroke-width="2"/>
<circle cx="35.5546" cy="34.0612" r="6.32971" stroke="#26559A" stroke-width="2"/>
<circle cx="16.0086" cy="48.7205" r="3.25765" stroke="#26559A" stroke-width="1.62882"/>
<circle cx="35.5545" cy="34.0611" r="3.25765" stroke="#26559A" stroke-width="1.62882"/>
</svg>
