<svg width="64" height="64" viewBox="0 0 64 64" fill="none" xmlns="http://www.w3.org/2000/svg">
<path d="M40.7431 40.2269L33.1434 45.275C32.5854 45.6457 32.25 46.2711 32.25 46.941V58.2163C32.25 59.3209 33.1454 60.2163 34.25 60.2163H42.2059C43.3275 60.2163 44.2299 59.2941 44.2054 58.1727L43.8493 41.8492C43.8149 40.2734 42.0561 39.3548 40.7431 40.2269Z" fill="#B7D3AE"/>
<path d="M54.8906 39.2892L46.8906 44.6226C46.3342 44.9935 46 45.618 46 46.2867V58.2163C46 59.3209 46.8954 60.2163 48 60.2163H56C57.1046 60.2163 58 59.3209 58 58.2163V40.9533C58 39.356 56.2197 38.4032 54.8906 39.2892Z" fill="#B7D3AE"/>
<path d="M10.1729 27.8155L6.49107 45.8155C6.23744 47.0555 7.18484 48.2163 8.4505 48.2163H24.5C25.6046 48.2163 26.5 47.3209 26.5 46.2163V40.8212C26.5 40.4339 26.6538 40.0625 26.9277 39.7886C27.2837 39.4326 27.4312 38.9183 27.318 38.4277L24.8578 27.7666C24.6483 26.8591 23.8403 26.2163 22.909 26.2163H12.1323C11.1822 26.2163 10.3633 26.8847 10.1729 27.8155Z" fill="#B7D3AE"/>
<path d="M19.1192 15.2164C20.8952 18.014 20.067 21.7216 17.2694 23.4976C14.4718 25.2735 10.7642 24.4453 8.98822 21.6477C5.94061 17.3763 5.45977 12.7343 5.4571 10.2485C5.45599 9.21695 6.33803 8.47759 7.35896 8.62558C10.4991 9.08076 16.8486 10.5619 19.1192 15.2164Z" fill="#B7D3AE"/>
<path d="M19.6343 14.1806C18.1983 16.4428 18.868 19.4409 21.1302 20.877C23.3924 22.3131 26.3904 21.6434 27.8265 19.3812C30.1555 16.1169 30.6307 12.585 30.6777 10.5102C30.701 9.47883 29.818 8.73989 28.7996 8.90387C26.1658 9.32792 21.3908 10.5801 19.6343 14.1806Z" fill="#B7D3AE"/>
<rect x="25" y="42.9807" width="23.9973" height="3" transform="rotate(-35 25 42.9807)" stroke="#26559A" stroke-width="2.3" stroke-linejoin="round"/>
<path d="M28.9985 48.2163H4.99854L4.99854 60.2163H28.9985M28.9985 48.2163V60.2163M28.9985 48.2163L28.9999 44.2163M28.9985 60.2163H56.9999V33.7163" stroke="#26559A" stroke-width="2.5" stroke-linejoin="round"/>
<rect x="10" y="52.2163" width="12" height="8" stroke="#26559A" stroke-width="2.5" stroke-linejoin="round"/>
<rect x="48" y="60.2163" width="8" height="5" transform="rotate(-90 48 60.2163)" stroke="#26559A" stroke-width="2.5" stroke-linejoin="round"/>
<rect x="35" y="60.2163" width="8" height="5" transform="rotate(-90 35 60.2163)" stroke="#26559A" stroke-width="2.5" stroke-linejoin="round"/>
<path d="M43.5922 42.7165L59.3782 31.6737L57.6575 29.2162L43.5922 39.0648L43.5922 42.7165ZM43.5922 42.7165L43.5922 47.2164L43.5922 33.7163" stroke="#26559A" stroke-width="2.3" stroke-linejoin="round"/>
<path d="M43.8299 52.2164L43.8299 55.868L43.8299 60" stroke="#26559A" stroke-width="2.5" stroke-linecap="round" stroke-linejoin="round"/>
<path d="M21 56.2163H10" stroke="#26559A" stroke-width="2.5" stroke-linecap="round" stroke-linejoin="round"/>
<path d="M8.5 48.2163L12.6729 27.8155C12.8633 26.8847 13.6822 26.2163 14.6323 26.2163H25.409C26.3403 26.2163 27.1483 26.8591 27.3578 27.7666L30 39.2163" stroke="#26559A" stroke-width="2.5"/>
<path d="M11.5 11.7163L16.6 17.4163C18.826 19.9042 20.3453 22.9428 21 26.2163" stroke="#26559A" stroke-width="2" stroke-linecap="round"/>
<path d="M27.2959 11.0388L22.5291 17.0203" stroke="#26559A" stroke-width="2" stroke-linecap="round"/>
<path d="M21.0655 14.0001C22.8415 16.7977 22.0133 20.5053 19.2157 22.2813C16.4181 24.0572 12.7105 23.229 10.9345 20.4314C7.8869 16.16 7.40606 11.518 7.40339 9.03224C7.40228 8.00064 8.28432 7.26128 9.30524 7.40927C12.4454 7.86445 18.7949 9.34561 21.0655 14.0001Z" stroke="#26559A" stroke-width="2.5"/>
<path d="M19.0001 11.2163C22.7475 7.45114 27.12 6.56595 29.4337 6.37584C30.3813 6.29797 31.1407 7.01947 31.1701 7.96981C31.2659 11.0671 30.9367 17.7746 26.644 20.8515C24.9173 22.4082 22.5346 22.776 20.5001 22.007" stroke="#26559A" stroke-width="2.5"/>
</svg>
