<svg width="64" height="64" viewBox="0 0 64 64" fill="none" xmlns="http://www.w3.org/2000/svg">
<path d="M37.7513 11.0015C50.058 13.437 58.0602 25.3878 55.6248 37.6945C53.1894 50.0011 41.2385 58.0034 28.9319 55.5679C16.6252 53.1325 8.62298 41.1817 11.0584 28.875C13.4938 16.5683 25.4447 8.56612 37.7513 11.0015ZM29.9254 50.5477C39.4594 52.4344 48.7178 46.235 50.6045 36.701C52.4913 27.1669 46.2919 17.9086 36.7578 16.0218C27.2238 14.1351 17.9654 20.3345 16.0787 29.8685C14.192 39.4025 20.3913 48.6609 29.9254 50.5477Z" fill="#B7D3AE"/>
<path d="M11.1806 29.7899L20.6802 38.5695L6.71779 41.9311L11.1806 29.7899Z" fill="#B7D3AE"/>
<path d="M47.5509 16.1848L35.0927 20.4003L39.3676 5.88857L47.5509 16.1848Z" fill="#B7D3AE"/>
<path d="M39.3673 54.922L43.7455 42.7501L52.2875 54.2949L39.3673 54.922Z" fill="#B7D3AE"/>
<path d="M34.5054 56.0276C31.7632 56.3844 28.9056 56.2085 26.0738 55.42C18.929 53.4305 13.6587 48.018 11.5428 41.45L5.73681 42.9208L11.3062 29.2549L21.8764 38.8141L16.9166 40.2999C18.5929 44.9456 22.4176 48.7368 27.5378 50.1625C28.3739 50.3953 29.213 50.5563 30.0486 50.6491" stroke="#1C4D99" stroke-width="2" stroke-linecap="round" stroke-linejoin="round"/>
<path d="M13.1432 22.8167C14.2348 20.276 15.8436 17.9077 17.966 15.8741C23.3212 10.7429 30.6647 8.96991 37.3935 10.4996L39.0894 4.75533L48.004 16.5156L34.3907 20.7326L35.6421 15.7085C30.7911 14.7811 25.5793 16.1375 21.7417 19.8146C21.115 20.4151 20.5486 21.0548 20.0426 21.7262" stroke="#1C4D99" stroke-width="2" stroke-linecap="round" stroke-linejoin="round"/>
<path d="M54.2877 23.0096C55.7065 25.3831 56.6826 28.0746 57.0864 30.9862C58.1053 38.3325 55.2379 45.3218 50.0549 49.8772L53.7152 54.6179L38.9617 54.9484L43.5235 41.4467L46.8608 45.4053C50.4553 42.0183 52.4109 37.0005 51.6807 31.736C51.5614 30.8763 51.3751 30.0424 51.1276 29.2389" stroke="#1C4D99" stroke-width="2" stroke-linecap="round" stroke-linejoin="round"/>
<path d="M26.0081 29.4343L33.2387 33.9418V42.581L26.0081 38.0736V29.4343Z" stroke="#1C4D99" stroke-width="2" stroke-linecap="round" stroke-linejoin="round"/>
<path d="M40.4694 29.4343L33.2387 33.9418V42.581L40.4694 38.0736V29.4343Z" stroke="#1C4D99" stroke-width="2" stroke-linecap="round" stroke-linejoin="round"/>
<path d="M33.4578 34.0356L40.4694 29.4342L33.4578 25.4902L29.952 27.5337" stroke="#1C4D99" stroke-width="2" stroke-linecap="round" stroke-linejoin="round"/>
</svg>
