<svg width="64" height="64" viewBox="0 0 64 64" fill="none" xmlns="http://www.w3.org/2000/svg">
<path d="M44.5223 55.2582V28.7062C47.1462 27.7691 49.5955 26.413 51.779 24.6966V55.2582H44.5223Z" fill="#B7D3AE"/>
<path d="M31.7879 55.1921V35.4085C34.4118 34.4714 36.8612 33.1153 39.0446 31.3989V55.1921H31.7879Z" fill="#B7D3AE"/>
<path d="M19.0536 55.1921V42.781C21.6775 41.8439 24.1268 40.4878 26.3102 38.7715V55.1921H19.0536Z" fill="#B7D3AE"/>
<path d="M26.0909 49.4951V37.3648C23.9075 39.0812 21.4581 40.4373 18.8342 41.3744C18.137 41.6234 17.3697 41.26 17.1207 40.5628C16.8717 39.8656 17.2351 39.0983 17.9323 38.8493C20.8583 37.8043 23.5434 36.1793 25.8265 34.0719L26.5222 33.4298C26.9134 33.0688 27.4811 32.9736 27.9687 33.187C28.4564 33.4006 28.7718 33.8825 28.7718 34.4149V49.4951C28.7718 50.2354 28.1717 50.8355 27.4313 50.8355C26.691 50.8355 26.0909 50.2354 26.0909 49.4951Z" fill="#1C4D99"/>
<path d="M38.8252 49.4951V29.6572C36.6418 31.3736 34.1925 32.7297 31.5686 33.6668C30.8714 33.9158 30.104 33.5523 29.855 32.8552C29.606 32.158 29.9695 31.3907 30.6666 31.1416C33.5926 30.0967 36.2778 28.4717 38.5608 26.3643L39.2566 25.7222C39.6477 25.3612 40.2154 25.266 40.7031 25.4794C41.1908 25.6929 41.5062 26.1748 41.5062 26.7073V49.4951C41.5062 50.2354 40.906 50.8355 40.1657 50.8355C39.4254 50.8355 38.8252 50.2354 38.8252 49.4951Z" fill="#1C4D99"/>
<path d="M51.991 19.0199C52.3822 18.6589 52.9499 18.5637 53.4375 18.7771C53.9252 18.9906 54.2406 19.4726 54.2406 20.005V54.8569C54.2406 55.5972 53.6405 56.1973 52.9002 56.1973H15.3673C14.627 56.1973 14.0269 55.5972 14.0269 54.8569V44.4683C14.0269 43.728 14.627 43.1279 15.3673 43.1279C16.1076 43.1279 16.7078 43.728 16.7078 44.4683V53.5164H51.5597V22.9549C49.3763 24.6713 46.9269 26.0274 44.303 26.9645C43.6059 27.2135 42.8385 26.85 42.5895 26.1529C42.3405 25.4557 42.7039 24.6884 43.4011 24.4394C46.3271 23.3944 49.0122 21.7694 51.2953 19.662L51.991 19.0199Z" fill="#1C4D99"/>
<path d="M48.704 9.64218C49.2786 9.17536 50.1222 9.26266 50.589 9.83722C51.0559 10.4118 50.9686 11.2554 50.394 11.7222C39.5883 20.5019 24.7415 29.9518 10.8793 36.0377C10.2014 36.3352 9.41096 36.027 9.11337 35.3491C8.81585 34.6713 9.1241 33.8808 9.80193 33.5832C23.419 27.605 38.0624 18.2885 48.704 9.64218Z" fill="#1C4D99"/>
<path d="M51.4216 8.34034L48.9523 16.8466L42.8203 10.455L51.4216 8.34034Z" fill="#B7D3AE"/>
<path d="M52.3888 7.4123C52.7204 7.75788 52.8425 8.25426 52.709 8.71417L50.2394 17.2204C50.1059 17.6803 49.7371 18.0341 49.2721 18.1484C48.8071 18.2627 48.3161 18.1201 47.9846 17.7746L41.853 11.3833C41.5215 11.0377 41.3993 10.5413 41.5328 10.0814C41.6663 9.62156 42.0351 9.26779 42.5001 9.1534L51.1013 7.03842L51.1892 7.02034C51.6275 6.94311 52.0781 7.08839 52.3888 7.4123ZM45.3948 11.2026L48.312 14.2433L49.487 10.1963L45.3948 11.2026Z" fill="#1C4D99"/>
</svg>
