<svg width="64" height="64" viewBox="0 0 64 64" fill="none" xmlns="http://www.w3.org/2000/svg">
<path d="M26.2506 20.3333C26.2506 23.3402 23.813 25.7778 20.8062 25.7778C17.7993 25.7778 15.3617 23.3402 15.3617 20.3333C15.3617 17.3264 17.7993 14.8889 20.8062 14.8889C23.813 14.8889 26.2506 17.3264 26.2506 20.3333Z" fill="#B7D3AE"/>
<path d="M24.0728 20.3333C24.0728 18.5292 22.6103 17.0667 20.8062 17.0667C19.002 17.0667 17.5395 18.5292 17.5395 20.3333C17.5395 22.1375 19.002 23.6 20.8062 23.6V25.7778C17.7993 25.7778 15.3617 23.3402 15.3617 20.3333C15.3617 17.3264 17.7993 14.8889 20.8062 14.8889C23.813 14.8889 26.2506 17.3264 26.2506 20.3333C26.2506 23.3402 23.813 25.7778 20.8062 25.7778V23.6C22.6103 23.6 24.0728 22.1375 24.0728 20.3333Z" fill="#1C4D99"/>
<path d="M50.2062 19.2444C50.2062 22.2513 47.7686 24.6889 44.7617 24.6889C41.7548 24.6889 39.3173 22.2513 39.3173 19.2444C39.3173 16.2376 41.7548 13.8 44.7617 13.8C47.7686 13.8 50.2062 16.2376 50.2062 19.2444Z" fill="#B7D3AE"/>
<path d="M48.0284 19.2444C48.0284 17.4403 46.5658 15.9778 44.7617 15.9778C42.9576 15.9778 41.495 17.4403 41.495 19.2444C41.495 21.0486 42.9576 22.5111 44.7617 22.5111V24.6889C41.7548 24.6889 39.3173 22.2513 39.3173 19.2444C39.3173 16.2376 41.7548 13.8 44.7617 13.8C47.7686 13.8 50.2062 16.2376 50.2062 19.2444C50.2062 22.2513 47.7686 24.6889 44.7617 24.6889V22.5111C46.5658 22.5111 48.0284 21.0486 48.0284 19.2444Z" fill="#1C4D99"/>
<path d="M39.3173 9.98889C39.3173 13.2965 36.636 15.9778 33.3284 15.9778C30.0208 15.9778 27.3395 13.2965 27.3395 9.98889C27.3395 6.68132 30.0208 4 33.3284 4C36.636 4 39.3173 6.68132 39.3173 9.98889Z" fill="#B7D3AE"/>
<path d="M37.1395 9.98889C37.1395 7.88407 35.4332 6.17778 33.3284 6.17778C31.2236 6.17778 29.5173 7.88407 29.5173 9.98889C29.5173 12.0937 31.2236 13.8 33.3284 13.8V15.9778C30.0208 15.9778 27.3395 13.2965 27.3395 9.98889C27.3395 6.68132 30.0208 4 33.3284 4C36.636 4 39.3173 6.68132 39.3173 9.98889C39.3173 13.2965 36.636 15.9778 33.3284 15.9778V13.8C35.4332 13.8 37.1395 12.0937 37.1395 9.98889Z" fill="#1C4D99"/>
<path d="M20.2617 23.6C22.6801 23.6 24.9951 24.5809 26.6983 26.319C27.1406 26.7704 27.5326 27.2634 27.8701 27.7886C28.0276 28.0338 28.1736 28.2864 28.3072 28.5447C28.583 29.0788 28.3733 29.736 27.8393 30.0121C27.3051 30.288 26.6479 30.0783 26.3718 29.5442C26.2695 29.3464 26.1584 29.1532 26.0379 28.9658C25.7797 28.5639 25.48 28.1872 25.1426 27.8428C23.8442 26.5179 22.0881 25.7778 20.2617 25.7778C18.4353 25.7778 16.6792 26.5179 15.3808 27.8428C15.0434 28.1872 14.7437 28.5639 14.4855 28.9658C14.365 29.1532 14.2539 29.3464 14.1516 29.5442C13.8755 30.0783 13.2183 30.288 12.6841 30.0121C12.1501 29.736 11.9404 29.0788 12.2163 28.5447C12.3498 28.2864 12.4958 28.0338 12.6533 27.7886C12.9908 27.2634 13.3829 26.7704 13.8251 26.319C15.5283 24.5809 17.8433 23.6 20.2617 23.6Z" fill="#1C4D99"/>
<path d="M44.2173 22.5111C46.6357 22.5111 48.9506 23.492 50.6538 25.2301C51.0961 25.6815 51.4882 26.1745 51.8257 26.6997C51.9832 26.9449 52.1292 27.1975 52.2627 27.4558C52.5386 27.9899 52.3289 28.6471 51.7948 28.9232C51.2607 29.1991 50.6035 28.9894 50.3274 28.4553C50.2251 28.2575 50.1139 28.0643 49.9935 27.8769C49.7353 27.475 49.4356 27.0983 49.0981 26.754C47.7998 25.429 46.0436 24.6889 44.2173 24.6889C42.3909 24.6889 40.6348 25.429 39.3364 26.754C38.9989 27.0983 38.6993 27.475 38.4411 27.8769C38.3206 28.0643 38.2094 28.2575 38.1072 28.4553C37.831 28.9894 37.1738 29.1991 36.6397 28.9232C36.1056 28.6471 35.8959 27.9899 36.1718 27.4558C36.3054 27.1975 36.4513 26.9449 36.6089 26.6997C36.9463 26.1745 37.3384 25.6815 37.7807 25.2301C39.4839 23.492 41.7988 22.5111 44.2173 22.5111Z" fill="#1C4D99"/>
<path d="M32.7839 13.8C35.34 13.8 37.8024 14.7616 39.6267 16.4903C40.101 16.9397 40.522 17.4321 40.8857 17.9578C41.0556 18.2032 41.2136 18.4558 41.3579 18.7149C41.6502 19.2403 41.4611 19.9037 40.9357 20.1962C40.4103 20.4885 39.7469 20.2993 39.4544 19.774C39.3447 19.5768 39.2247 19.384 39.095 19.1966C38.8172 18.7952 38.4939 18.4179 38.1284 18.0715C36.7204 16.7373 34.7991 15.9778 32.7839 15.9778C30.7687 15.9778 28.8475 16.7373 27.4394 18.0715C27.0739 18.4179 26.7506 18.7952 26.4728 19.1966C26.3432 19.384 26.2232 19.5768 26.1134 19.774C25.8209 20.2993 25.1575 20.4885 24.6322 20.1962C24.1068 19.9037 23.9177 19.2403 24.21 18.7149C24.3543 18.4558 24.5123 18.2032 24.6821 17.9578C25.0459 17.4321 25.4669 16.9397 25.9412 16.4903C27.7655 14.7616 30.2279 13.8 32.7839 13.8Z" fill="#1C4D99"/>
<path d="M37.4136 23.4022C37.4136 26.4091 34.9761 28.8467 31.9692 28.8467C28.9623 28.8467 26.5248 26.4091 26.5248 23.4022C26.5248 20.3953 28.9623 17.9578 31.9692 17.9578C34.9761 17.9578 37.4136 20.3953 37.4136 23.4022Z" fill="#B7D3AE"/>
<path d="M35.2359 23.4022C35.2359 21.5981 33.7733 20.1355 31.9692 20.1355C30.1651 20.1355 28.7025 21.5981 28.7025 23.4022C28.7025 25.2063 30.1651 26.6689 31.9692 26.6689V28.8467C28.9623 28.8467 26.5248 26.4091 26.5248 23.4022C26.5248 20.3953 28.9623 17.9578 31.9692 17.9578C34.9761 17.9578 37.4136 20.3953 37.4136 23.4022C37.4136 26.4091 34.9761 28.8467 31.9692 28.8467V26.6689C33.7733 26.6689 35.2359 25.2063 35.2359 23.4022Z" fill="#1C4D99"/>
<path d="M31.4248 26.6689C33.8432 26.6689 36.1581 27.6498 37.8613 29.3879C38.3036 29.8393 38.6957 30.3323 39.0331 30.8575C39.1907 31.1026 39.3366 31.3552 39.4702 31.6135C39.7461 32.1477 39.5364 32.8049 39.0023 33.081C38.4682 33.3569 37.811 33.1472 37.5349 32.6131C37.4326 32.4153 37.3214 32.2221 37.201 32.0346C36.9427 31.6328 36.6431 31.2561 36.3056 30.9117C35.0073 29.5868 33.2511 28.8467 31.4248 28.8467C29.5984 28.8467 27.8422 29.5868 26.5439 30.9117C26.2064 31.2561 25.9068 31.6328 25.6485 32.0346C25.5281 32.2221 25.4169 32.4153 25.3146 32.6131C25.0385 33.1472 24.3813 33.3569 23.8472 33.081C23.3131 32.8049 23.1034 32.1477 23.3793 31.6135C23.5129 31.3552 23.6588 31.1026 23.8164 30.8575C24.1538 30.3323 24.5459 29.8393 24.9882 29.3879C26.6914 27.6498 29.0063 26.6689 31.4248 26.6689Z" fill="#1C4D99"/>
<path d="M14 59.5H51V56H14V59.5Z" fill="#B7D3AE"/>
<path d="M50.9023 17.2837C50.9025 13.9851 53.5763 11.311 56.875 11.311C57.4273 11.311 57.875 11.7588 57.875 12.311V36.8472C57.875 38.3036 57.3454 39.7105 56.3848 40.8052L43.9512 54.9712C43.7613 55.1874 43.487 55.311 43.1992 55.311H33.875C33.3227 55.311 32.875 54.8633 32.875 54.311V43.6606C32.8751 40.2633 35.693 37.5932 39.0176 37.6948L46.0303 28.9624C47.1291 27.5939 49.1458 27.4146 50.4688 28.5679C50.6321 28.7103 50.7762 28.8671 50.9023 29.0337V17.2837ZM52.9023 30.6011C52.9023 30.8301 52.8238 31.0529 52.6797 31.231L43.3545 42.7466C43.0111 43.1706 42.3917 43.241 41.9619 42.9048C41.5321 42.5685 41.4512 41.9496 41.7803 41.5142L49.3086 31.5522C49.6531 31.0959 49.5863 30.4505 49.1553 30.0747C48.6889 29.6681 47.9773 29.7319 47.5898 30.2144L40.2666 39.3345C40.0395 39.6173 39.6824 39.7637 39.3223 39.7202C36.9579 39.4339 34.8751 41.2791 34.875 43.6606V53.311H42.7471L54.8809 39.4858C55.5214 38.7561 55.875 37.8182 55.875 36.8472V13.437C54.1648 13.8803 52.9025 15.4349 52.9023 17.2837V30.6011Z" fill="#1C4D99"/>
<path d="M13.8477 17.2837C13.8475 13.9851 11.1737 11.311 7.875 11.311C7.32272 11.311 6.875 11.7588 6.875 12.311V36.8472C6.875 38.3036 7.40456 39.7105 8.36523 40.8052L20.7988 54.9712C20.9887 55.1874 21.263 55.311 21.5508 55.311H30.875C31.4273 55.311 31.875 54.8633 31.875 54.311V43.6606C31.8749 40.2633 29.057 37.5932 25.7324 37.6948L18.7197 28.9624C17.6209 27.5939 15.6042 27.4146 14.2812 28.5679C14.1179 28.7103 13.9738 28.8671 13.8477 29.0337V17.2837ZM11.8477 30.6011C11.8477 30.8301 11.9262 31.0529 12.0703 31.231L21.3955 42.7466C21.7389 43.1706 22.3583 43.241 22.7881 42.9048C23.2179 42.5685 23.2988 41.9496 22.9697 41.5142L15.4414 31.5522C15.0969 31.0959 15.1637 30.4505 15.5947 30.0747C16.0611 29.6681 16.7727 29.7319 17.1602 30.2144L24.4834 39.3345C24.7105 39.6173 25.0676 39.7637 25.4277 39.7202C27.7921 39.4339 29.8749 41.2791 29.875 43.6606V53.311H22.0029L9.86914 39.4858C9.22859 38.7561 8.875 37.8182 8.875 36.8472V13.437C10.5852 13.8803 11.8475 15.4349 11.8477 17.2837V30.6011Z" fill="#1C4D99"/>
<path d="M14.875 58.311H49.875V55.311H14.875V58.311ZM51.875 59.311C51.875 59.8287 51.4817 60.2548 50.9775 60.3062L50.875 60.311H13.875L13.7725 60.3062C13.302 60.2583 12.9278 59.884 12.8799 59.4136L12.875 59.311V54.311C12.875 53.7588 13.3227 53.311 13.875 53.311H50.875C51.4273 53.311 51.875 53.7588 51.875 54.311V59.311Z" fill="#1C4D99"/>
<path d="M50.9023 17.2837L50.6523 17.2837V17.2837H50.9023ZM56.3848 40.8052L56.5727 40.9701L56.5727 40.9701L56.3848 40.8052ZM43.9512 54.9712L44.139 55.1361L44.1391 55.1361L43.9512 54.9712ZM32.875 43.6606L32.625 43.6606V43.6606H32.875ZM39.0176 37.6948L39.0099 37.9447C39.0884 37.9471 39.1634 37.9125 39.2125 37.8514L39.0176 37.6948ZM46.0303 28.9624L46.2252 29.1189L46.2252 29.1189L46.0303 28.9624ZM50.4688 28.5679L50.633 28.3794L50.633 28.3794L50.4688 28.5679ZM50.9023 29.0337L50.703 29.1846C50.7679 29.2702 50.8801 29.3049 50.9819 29.2707C51.0838 29.2365 51.1523 29.1411 51.1523 29.0337H50.9023ZM52.6797 31.231L52.874 31.3883L52.874 31.3883L52.6797 31.231ZM43.3545 42.7466L43.5488 42.9039L43.5488 42.9039L43.3545 42.7466ZM41.9619 42.9048L41.8079 43.1017L41.8079 43.1017L41.9619 42.9048ZM41.7803 41.5142L41.5808 41.3634L41.5808 41.3634L41.7803 41.5142ZM49.3086 31.5522L49.508 31.703L49.5081 31.7029L49.3086 31.5522ZM49.1553 30.0747L49.3196 29.8863L49.3196 29.8863L49.1553 30.0747ZM47.5898 30.2144L47.7848 30.3709L47.7848 30.3709L47.5898 30.2144ZM40.2666 39.3345L40.0717 39.1779L40.0717 39.178L40.2666 39.3345ZM39.3223 39.7202L39.2922 39.9684L39.2923 39.9684L39.3223 39.7202ZM34.875 43.6606L34.625 43.6606V43.6606H34.875ZM34.875 53.311H34.625C34.625 53.4491 34.7369 53.561 34.875 53.561V53.311ZM42.7471 53.311V53.561C42.819 53.561 42.8875 53.53 42.935 53.4759L42.7471 53.311ZM54.8809 39.4858L54.693 39.3209L54.693 39.3209L54.8809 39.4858ZM55.875 13.437H56.125C56.125 13.3596 56.0892 13.2866 56.028 13.2393C55.9668 13.192 55.8872 13.1756 55.8123 13.195L55.875 13.437ZM52.9023 17.2837L52.6523 17.2837V17.2837H52.9023ZM13.8477 17.2837H14.0977V17.2837L13.8477 17.2837ZM8.36523 40.8052L8.17733 40.9701L8.17734 40.9701L8.36523 40.8052ZM20.7988 54.9712L20.6109 55.1361L20.611 55.1361L20.7988 54.9712ZM31.875 43.6606H32.125V43.6606L31.875 43.6606ZM25.7324 37.6948L25.5375 37.8514C25.5866 37.9125 25.6616 37.9471 25.7401 37.9447L25.7324 37.6948ZM18.7197 28.9624L18.5248 29.1189L18.5248 29.1189L18.7197 28.9624ZM14.2812 28.5679L14.117 28.3794L14.117 28.3794L14.2812 28.5679ZM13.8477 29.0337H13.5977C13.5977 29.1411 13.6662 29.2365 13.768 29.2707C13.8699 29.3049 13.9821 29.2702 14.047 29.1846L13.8477 29.0337ZM12.0703 31.231L11.876 31.3883L11.876 31.3883L12.0703 31.231ZM21.3955 42.7466L21.2012 42.9039L21.2012 42.9039L21.3955 42.7466ZM22.7881 42.9048L22.9421 43.1017L22.9421 43.1017L22.7881 42.9048ZM22.9697 41.5142L23.1692 41.3634L23.1692 41.3634L22.9697 41.5142ZM15.4414 31.5522L15.2419 31.7029L15.242 31.703L15.4414 31.5522ZM15.5947 30.0747L15.4304 29.8863L15.4304 29.8863L15.5947 30.0747ZM17.1602 30.2144L16.9652 30.3709L16.9652 30.3709L17.1602 30.2144ZM24.4834 39.3345L24.6783 39.178L24.6783 39.1779L24.4834 39.3345ZM25.4277 39.7202L25.4577 39.9684L25.4578 39.9684L25.4277 39.7202ZM29.875 43.6606H30.125V43.6606L29.875 43.6606ZM29.875 53.311V53.561C30.0131 53.561 30.125 53.4491 30.125 53.311H29.875ZM22.0029 53.311L21.815 53.4759C21.8625 53.53 21.931 53.561 22.0029 53.561V53.311ZM9.86914 39.4858L10.057 39.3209L10.057 39.3209L9.86914 39.4858ZM8.875 13.437L8.93773 13.195C8.86284 13.1756 8.78318 13.192 8.722 13.2393C8.66082 13.2866 8.625 13.3596 8.625 13.437H8.875ZM11.8477 17.2837H12.0977V17.2837L11.8477 17.2837ZM14.875 58.311H14.625V58.561H14.875V58.311ZM49.875 58.311V58.561H50.125V58.311H49.875ZM49.875 55.311H50.125V55.061H49.875V55.311ZM14.875 55.311V55.061H14.625V55.311H14.875ZM50.9775 60.3062L50.9894 60.5562L51.0029 60.5549L50.9775 60.3062ZM50.875 60.311V60.5613L50.8869 60.5608L50.875 60.311ZM13.875 60.311L13.8631 60.561H13.875V60.311ZM13.7725 60.3062L13.7471 60.5552L13.7606 60.5559L13.7725 60.3062ZM12.8799 59.4136L12.6298 59.4255L12.6312 59.4389L12.8799 59.4136ZM12.875 59.311H12.6247L12.6253 59.3229L12.875 59.311ZM13.875 53.311V53.061V53.311ZM51.875 54.311H52.125V54.311H51.875ZM50.9023 17.2837L51.1523 17.2837C51.1525 14.1231 53.7144 11.561 56.875 11.561V11.311V11.061C53.4382 11.061 50.6525 13.847 50.6523 17.2837L50.9023 17.2837ZM56.875 11.311V11.561C57.2892 11.561 57.625 11.8968 57.625 12.311H57.875H58.125C58.125 11.6207 57.5654 11.061 56.875 11.061V11.311ZM57.875 12.311H57.625V36.8472H57.875H58.125V12.311H57.875ZM57.875 36.8472H57.625C57.625 38.2429 57.1175 39.5913 56.1969 40.6403L56.3848 40.8052L56.5727 40.9701C57.5734 39.8298 58.125 38.3642 58.125 36.8472H57.875ZM56.3848 40.8052L56.1969 40.6403L43.7633 54.8063L43.9512 54.9712L44.1391 55.1361L56.5727 40.9701L56.3848 40.8052ZM43.9512 54.9712L43.7633 54.8062C43.6211 54.9682 43.4154 55.061 43.1992 55.061V55.311V55.561C43.5586 55.561 43.9015 55.4067 44.139 55.1361L43.9512 54.9712ZM43.1992 55.311V55.061H33.875V55.311V55.561H43.1992V55.311ZM33.875 55.311V55.061C33.4608 55.061 33.125 54.7252 33.125 54.311H32.875H32.625C32.625 55.0014 33.1846 55.561 33.875 55.561V55.311ZM32.875 54.311H33.125V43.6606H32.875H32.625V54.311H32.875ZM32.875 43.6606L33.125 43.6607C33.1251 40.4059 35.8248 37.8473 39.0099 37.9447L39.0176 37.6948L39.0252 37.4449C35.5611 37.339 32.6251 40.1207 32.625 43.6606L32.875 43.6606ZM39.0176 37.6948L39.2125 37.8514L46.2252 29.1189L46.0303 28.9624L45.8353 28.8059L38.8227 37.5383L39.0176 37.6948ZM46.0303 28.9624L46.2252 29.1189C47.2351 27.8611 49.0886 27.6964 50.3045 28.7563L50.4688 28.5679L50.633 28.3794C49.203 27.1328 47.0231 27.3266 45.8353 28.8059L46.0303 28.9624ZM50.4688 28.5679L50.3045 28.7563C50.4542 28.8868 50.5866 29.0309 50.703 29.1846L50.9023 29.0337L51.1016 28.8828C50.9657 28.7033 50.8101 28.5338 50.633 28.3794L50.4688 28.5679ZM50.9023 29.0337H51.1523V17.2837H50.9023H50.6523V29.0337H50.9023ZM52.9023 30.6011H52.6523C52.6523 30.7731 52.5933 30.9403 52.4854 31.0736L52.6797 31.231L52.874 31.3883C53.0543 31.1655 53.1523 30.8871 53.1523 30.6011H52.9023ZM52.6797 31.231L52.4854 31.0736L43.1602 42.5893L43.3545 42.7466L43.5488 42.9039L52.874 31.3883L52.6797 31.231ZM43.3545 42.7466L43.1602 42.5892C42.9027 42.9073 42.4383 42.96 42.1159 42.7079L41.9619 42.9048L41.8079 43.1017C42.3451 43.5219 43.1195 43.434 43.5488 42.9039L43.3545 42.7466ZM41.9619 42.9048L42.116 42.7079C41.7936 42.4557 41.7329 41.9915 41.9797 41.6649L41.7803 41.5142L41.5808 41.3634C41.1695 41.9077 41.2706 42.6813 41.8079 43.1017L41.9619 42.9048ZM41.7803 41.5142L41.9797 41.6649L49.508 31.703L49.3086 31.5522L49.1091 31.4015L41.5808 41.3634L41.7803 41.5142ZM49.3086 31.5522L49.5081 31.7029C49.9316 31.1419 49.8495 30.3483 49.3196 29.8863L49.1553 30.0747L48.991 30.2631C49.323 30.5526 49.3745 31.05 49.1091 31.4016L49.3086 31.5522ZM49.1553 30.0747L49.3196 29.8863C48.7459 29.3861 47.8711 29.4648 47.3949 30.0578L47.5898 30.2144L47.7848 30.3709C48.0834 29.999 48.6318 29.95 48.991 30.2631L49.1553 30.0747ZM47.5898 30.2144L47.3949 30.0578L40.0717 39.1779L40.2666 39.3345L40.4615 39.491L47.7848 30.3709L47.5898 30.2144ZM40.2666 39.3345L40.0717 39.178C39.8984 39.3938 39.6262 39.5051 39.3522 39.472L39.3223 39.7202L39.2923 39.9684C39.7386 40.0223 40.1806 39.8409 40.4615 39.491L40.2666 39.3345ZM39.3223 39.7202L39.3523 39.472C36.8391 39.1677 34.6251 41.129 34.625 43.6606L34.875 43.6606L35.125 43.6607C35.1251 41.4291 37.0767 39.7001 39.2922 39.9684L39.3223 39.7202ZM34.875 43.6606H34.625V53.311H34.875H35.125V43.6606H34.875ZM34.875 53.311V53.561H42.7471V53.311V53.061H34.875V53.311ZM42.7471 53.311L42.935 53.4759L55.0688 39.6507L54.8809 39.4858L54.693 39.3209L42.5592 53.1461L42.7471 53.311ZM54.8809 39.4858L55.0687 39.6508C55.7493 38.8754 56.125 37.8789 56.125 36.8472H55.875H55.625C55.625 37.7574 55.2935 38.6367 54.693 39.3209L54.8809 39.4858ZM55.875 36.8472H56.125V13.437H55.875H55.625V36.8472H55.875ZM55.875 13.437L55.8123 13.195C53.9944 13.6662 52.6525 15.3184 52.6523 17.2837L52.9023 17.2837L53.1523 17.2837C53.1525 15.5515 54.3352 14.0944 55.9377 13.679L55.875 13.437ZM52.9023 17.2837H52.6523V30.6011H52.9023H53.1523V17.2837H52.9023ZM13.8477 17.2837L14.0977 17.2837C14.0975 13.847 11.3118 11.061 7.875 11.061V11.311V11.561C11.0356 11.561 13.5975 14.1231 13.5977 17.2837L13.8477 17.2837ZM7.875 11.311V11.061C7.18464 11.061 6.625 11.6207 6.625 12.311H6.875H7.125C7.125 11.8968 7.46079 11.561 7.875 11.561V11.311ZM6.875 12.311H6.625V36.8472H6.875H7.125V12.311H6.875ZM6.875 36.8472H6.625C6.625 38.3642 7.17661 39.8298 8.17733 40.9701L8.36523 40.8052L8.55313 40.6403C7.63251 39.5913 7.125 38.2429 7.125 36.8472H6.875ZM8.36523 40.8052L8.17734 40.9701L20.6109 55.1361L20.7988 54.9712L20.9867 54.8063L8.55313 40.6403L8.36523 40.8052ZM20.7988 54.9712L20.611 55.1361C20.8485 55.4067 21.1914 55.561 21.5508 55.561V55.311V55.061C21.3346 55.061 21.1289 54.9682 20.9867 54.8062L20.7988 54.9712ZM21.5508 55.311V55.561H30.875V55.311V55.061H21.5508V55.311ZM30.875 55.311V55.561C31.5654 55.561 32.125 55.0014 32.125 54.311H31.875H31.625C31.625 54.7252 31.2892 55.061 30.875 55.061V55.311ZM31.875 54.311H32.125V43.6606H31.875H31.625V54.311H31.875ZM31.875 43.6606L32.125 43.6606C32.1249 40.1207 29.1889 37.339 25.7248 37.4449L25.7324 37.6948L25.7401 37.9447C28.9252 37.8473 31.6249 40.4059 31.625 43.6607L31.875 43.6606ZM25.7324 37.6948L25.9273 37.5383L18.9147 28.8059L18.7197 28.9624L18.5248 29.1189L25.5375 37.8514L25.7324 37.6948ZM18.7197 28.9624L18.9147 28.8059C17.7269 27.3266 15.547 27.1328 14.117 28.3794L14.2812 28.5679L14.4455 28.7563C15.6614 27.6964 17.5149 27.8611 18.5248 29.1189L18.7197 28.9624ZM14.2812 28.5679L14.117 28.3794C13.9399 28.5338 13.7843 28.7033 13.6484 28.8828L13.8477 29.0337L14.047 29.1846C14.1634 29.0309 14.2958 28.8868 14.4455 28.7563L14.2812 28.5679ZM13.8477 29.0337H14.0977V17.2837H13.8477H13.5977V29.0337H13.8477ZM11.8477 30.6011H11.5977C11.5977 30.8871 11.6957 31.1655 11.876 31.3883L12.0703 31.231L12.2646 31.0736C12.1567 30.9403 12.0977 30.7731 12.0977 30.6011H11.8477ZM12.0703 31.231L11.876 31.3883L21.2012 42.9039L21.3955 42.7466L21.5898 42.5893L12.2646 31.0736L12.0703 31.231ZM21.3955 42.7466L21.2012 42.9039C21.6305 43.434 22.4049 43.5219 22.9421 43.1017L22.7881 42.9048L22.6341 42.7079C22.3117 42.96 21.8473 42.9073 21.5898 42.5892L21.3955 42.7466ZM22.7881 42.9048L22.9421 43.1017C23.4794 42.6813 23.5805 41.9077 23.1692 41.3634L22.9697 41.5142L22.7703 41.6649C23.0171 41.9915 22.9564 42.4557 22.634 42.7079L22.7881 42.9048ZM22.9697 41.5142L23.1692 41.3634L15.6409 31.4015L15.4414 31.5522L15.242 31.703L22.7703 41.6649L22.9697 41.5142ZM15.4414 31.5522L15.6409 31.4016C15.3755 31.05 15.427 30.5526 15.759 30.2631L15.5947 30.0747L15.4304 29.8863C14.9005 30.3483 14.8184 31.1419 15.2419 31.7029L15.4414 31.5522ZM15.5947 30.0747L15.759 30.2631C16.1182 29.95 16.6666 29.999 16.9652 30.3709L17.1602 30.2144L17.3551 30.0578C16.8789 29.4648 16.0041 29.3861 15.4304 29.8863L15.5947 30.0747ZM17.1602 30.2144L16.9652 30.3709L24.2885 39.491L24.4834 39.3345L24.6783 39.1779L17.3551 30.0578L17.1602 30.2144ZM24.4834 39.3345L24.2885 39.491C24.5694 39.8409 25.0114 40.0223 25.4577 39.9684L25.4277 39.7202L25.3978 39.472C25.1238 39.5051 24.8516 39.3938 24.6783 39.178L24.4834 39.3345ZM25.4277 39.7202L25.4578 39.9684C27.6733 39.7001 29.6249 41.4291 29.625 43.6607L29.875 43.6606L30.125 43.6606C30.1249 41.129 27.9109 39.1677 25.3977 39.472L25.4277 39.7202ZM29.875 43.6606H29.625V53.311H29.875H30.125V43.6606H29.875ZM29.875 53.311V53.061H22.0029V53.311V53.561H29.875V53.311ZM22.0029 53.311L22.1908 53.1461L10.057 39.3209L9.86914 39.4858L9.68124 39.6507L21.815 53.4759L22.0029 53.311ZM9.86914 39.4858L10.057 39.3209C9.45647 38.6367 9.125 37.7574 9.125 36.8472H8.875H8.625C8.625 37.8789 9.0007 38.8754 9.68125 39.6508L9.86914 39.4858ZM8.875 36.8472H9.125V13.437H8.875H8.625V36.8472H8.875ZM8.875 13.437L8.81227 13.679C10.4148 14.0944 11.5975 15.5515 11.5977 17.2837L11.8477 17.2837L12.0977 17.2837C12.0975 15.3184 10.7556 13.6662 8.93773 13.195L8.875 13.437ZM11.8477 17.2837H11.5977V30.6011H11.8477H12.0977V17.2837H11.8477ZM14.875 58.311V58.561H49.875V58.311V58.061H14.875V58.311ZM49.875 58.311H50.125V55.311H49.875H49.625V58.311H49.875ZM49.875 55.311V55.061H14.875V55.311V55.561H49.875V55.311ZM14.875 55.311H14.625V58.311H14.875H15.125V55.311H14.875ZM51.875 59.311H51.625C51.625 59.6992 51.3299 60.019 50.9522 60.0574L50.9775 60.3062L51.0029 60.5549C51.6334 60.4907 52.125 59.9582 52.125 59.311H51.875ZM50.9775 60.3062L50.9656 60.0564L50.8631 60.0613L50.875 60.311L50.8869 60.5608L50.9894 60.5559L50.9775 60.3062ZM50.875 60.311V60.061H13.875V60.311V60.561H50.875V60.311ZM13.875 60.311L13.8869 60.0613L13.7844 60.0564L13.7725 60.3062L13.7606 60.5559L13.8631 60.5608L13.875 60.311ZM13.7725 60.3062L13.7978 60.0574C13.4454 60.0216 13.1645 59.7406 13.1286 59.3882L12.8799 59.4136L12.6312 59.4389C12.6911 60.0274 13.1587 60.4949 13.7471 60.5549L13.7725 60.3062ZM12.8799 59.4136L13.1296 59.4017L13.1247 59.2991L12.875 59.311L12.6253 59.3229L12.6302 59.4255L12.8799 59.4136ZM12.875 59.311H13.125V54.311H12.875H12.625V59.311H12.875ZM12.875 54.311H13.125C13.125 53.8968 13.4608 53.561 13.875 53.561V53.311V53.061C13.1846 53.061 12.625 53.6207 12.625 54.311H12.875ZM13.875 53.311V53.561H50.875V53.311V53.061H13.875V53.311ZM50.875 53.311V53.561C51.2892 53.561 51.625 53.8968 51.625 54.311H51.875H52.125C52.125 53.6207 51.5654 53.061 50.875 53.061V53.311ZM51.875 54.311H51.625V59.311H51.875H52.125V54.311H51.875Z" fill="#1C4D99"/>
</svg>
