<svg width="64" height="64" viewBox="0 0 64 64" fill="none" xmlns="http://www.w3.org/2000/svg">
<path d="M26.365 28.148C21.9468 35.9697 20.2413 43.4176 22.5557 44.7833C24.8702 46.1491 30.3282 40.9155 34.7464 33.0939C39.1647 25.2722 40.8702 17.8243 38.5557 16.4585C36.2413 15.0927 30.7833 20.3263 26.365 28.148Z" fill="#B7D3AE"/>
<path d="M37.1274 27.9061C41.5457 35.7278 43.2511 43.1757 40.9367 44.5415C38.6222 45.9073 33.1643 40.6737 28.746 32.852C24.3277 25.0303 22.6222 17.5824 24.9367 16.2167C27.2511 14.8509 32.7091 20.0845 37.1274 27.9061Z" fill="#B7D3AE"/>
<path d="M32 27.6893C40.8366 27.6893 48 29.9037 48 32.6352C48 35.3667 40.8366 37.5811 32 37.5811C23.1634 37.5811 16 35.3667 16 32.6352C16 29.9037 23.1634 27.6893 32 27.6893Z" fill="#B7D3AE"/>
<path d="M36.4782 28.3265C33.8646 23.7995 30.7916 20.2441 28.0291 18.1259C26.643 17.063 25.4372 16.4399 24.4929 16.1768C23.5601 15.9169 23.0892 16.0547 22.8645 16.1844C22.6398 16.3141 22.285 16.6531 22.0437 17.5908C21.7994 18.5402 21.7362 19.896 21.9636 21.6278C22.4168 25.0793 23.9594 29.5183 26.5731 34.0453C29.1868 38.5723 32.2596 42.1278 35.0222 44.246C36.408 45.3086 37.6136 45.931 38.5579 46.1942C39.4906 46.4541 39.9616 46.3163 40.1863 46.1866L41.4363 48.3516C37.628 50.5502 30.3543 45.133 24.9271 36.1728L24.408 35.2953C18.9344 25.8147 17.6836 16.289 21.6145 14.0193C25.5455 11.7497 33.1696 17.5958 38.6433 27.0765L39.1437 27.9648C44.1899 37.1451 45.2445 46.153 41.4363 48.3516L40.1863 46.1866C40.4109 46.0569 40.7657 45.718 41.0071 44.7801C41.2513 43.8308 41.315 42.4756 41.0877 40.744C40.6346 37.2925 39.0919 32.8535 36.4782 28.3265Z" fill="#1C4D99"/>
<path d="M26.6805 28.3297C29.2942 23.8027 32.3671 20.2473 35.1296 18.129C36.5158 17.0662 37.7215 16.4431 38.6658 16.1799C39.5987 15.92 40.0696 16.0578 40.2943 16.1876C40.5189 16.3173 40.8738 16.6562 41.1151 17.594C41.3593 18.5434 41.4226 19.8992 41.1952 21.631C40.742 25.0825 39.1994 29.5215 36.5857 34.0485C33.972 38.5754 30.8991 42.1309 28.1366 44.2491C26.7507 45.3117 25.5451 45.9342 24.6009 46.1974C23.6681 46.4573 23.1972 46.3194 22.9725 46.1898L21.7225 48.3548C25.5307 50.5533 32.8044 45.1362 38.2317 36.176L38.7508 35.2985C44.2244 25.8178 45.4752 16.2922 41.5443 14.0225C37.6132 11.7529 29.9892 17.599 24.5155 27.0797L24.015 27.968C18.9689 37.1483 17.9143 46.1561 21.7225 48.3548L22.9725 46.1898C22.7478 46.06 22.393 45.7212 22.1517 44.7833C21.9074 43.834 21.8437 42.4788 22.071 40.7472C22.5242 37.2957 24.0669 32.8567 26.6805 28.3297Z" fill="#1C4D99"/>
<path d="M31.5254 25.6992C36.7989 25.6992 41.4585 26.558 44.707 27.8574C46.3378 28.5097 47.4898 29.2244 48.1934 29.8896C48.8917 30.55 48.9795 30.9875 48.9795 31.1806C48.9794 31.3738 48.8914 31.8105 48.1934 32.4707C47.4898 33.136 46.3379 33.8505 44.707 34.5029C41.4585 35.8023 36.7989 36.6621 31.5254 36.6621C26.2518 36.6621 21.5922 35.8023 18.3438 34.5029C16.7129 33.8505 15.561 33.136 14.8574 32.4707C14.1594 31.8105 14.0713 31.3738 14.0713 31.1806H11.5713C11.5716 35.5887 20.5052 39.1621 31.5254 39.1621C42.5456 39.1621 51.4792 35.5887 51.4795 31.1806C51.4795 26.7725 42.5457 23.1992 31.5254 23.1992C20.505 23.1992 11.5713 26.7725 11.5713 31.1806H14.0713C14.0713 30.9875 14.1591 30.55 14.8574 29.8896C15.561 29.2244 16.713 28.5097 18.3438 27.8574C21.5922 26.558 26.2518 25.6992 31.5254 25.6992Z" fill="#1C4D99"/>
<path d="M33.52 31.513C33.52 32.7987 32.4778 33.841 31.192 33.841C29.9063 33.841 28.8641 32.7987 28.8641 31.513C28.8641 30.2273 29.9063 29.1851 31.192 29.1851C32.4778 29.1851 33.52 30.2273 33.52 31.513Z" fill="#1C4D99"/>
<path d="M33.9217 2.29052C34.4516 1.84814 35.24 1.91889 35.6824 2.44873C36.1248 2.97859 36.0539 3.767 35.5242 4.20947L34.7381 4.86572C40.1482 5.52168 45.257 7.82076 49.3514 11.4946C54.2489 15.8891 57.35 21.9384 58.0604 28.48C58.7706 35.0215 57.04 41.5948 53.2 46.938C49.3599 52.2812 43.6813 56.0177 37.2547 57.4302C36.5805 57.5783 35.9138 57.1521 35.7655 56.478C35.6173 55.8038 36.0435 55.1371 36.7176 54.9888C42.5424 53.7087 47.6893 50.3219 51.1698 45.479C54.6502 40.6362 56.2188 34.6784 55.575 28.7495C54.9312 22.8206 52.1203 17.3379 47.6815 13.355C44.0705 10.115 39.5893 8.05344 34.8328 7.39697L35.5946 8.13818C36.0891 8.61983 36.0996 9.41119 35.618 9.90576C35.1363 10.4001 34.3449 10.4108 33.8504 9.92919L29.66 5.84814L33.9217 2.29052Z" fill="#1C4D99"/>
<path d="M29.4217 60.5881C28.959 61.1004 28.1684 61.1405 27.656 60.678C27.1437 60.2153 27.1035 59.4247 27.5662 58.9124L29.0027 57.3206C23.3988 56.7533 18.0915 54.4264 13.865 50.634C8.96756 46.2395 5.86638 40.1903 5.15603 33.6487C4.4458 27.1072 6.17639 20.5339 10.0164 15.1907C13.8565 9.84742 19.5351 6.11094 25.9617 4.69849C26.6359 4.55033 27.3027 4.97653 27.451 5.65064C27.5991 6.32482 27.1729 6.9916 26.4988 7.1399C20.674 8.42001 15.5271 11.8068 12.0467 16.6497C8.56623 21.4925 6.99759 27.4502 7.64138 33.3792C8.2852 39.3081 11.0961 44.7908 15.5349 48.7737C19.2344 52.0931 23.8476 54.1738 28.7342 54.7756L27.5613 53.4651C27.1013 52.9504 27.1463 52.1605 27.6609 51.7004C28.1756 51.2404 28.9655 51.2844 29.4256 51.7991L33.3719 56.2131L29.4217 60.5881Z" fill="#1C4D99"/>
</svg>
