<svg width="64" height="64" viewBox="0 0 64 64" fill="none" xmlns="http://www.w3.org/2000/svg">
<path d="M9.94588 11.1735C11.3322 9.8341 13.1906 8.42731 15.3566 7.29544L16.0211 6.96176C22.9861 3.60533 32.8004 3.2781 40.4345 16.4646L39.8284 16.9928C33.3089 22.4698 19.1433 28.3053 9.94588 11.1735ZM24.6088 20.5016C25.1937 20.5565 25.7772 20.5734 26.357 20.5543C30.1891 20.4275 33.8972 18.7717 36.7256 16.8359L36.0703 16.7222L36.0389 16.7147L31.8778 15.7111L24.6088 20.5016ZM32.2146 13.7357L36.4633 14.7605L37.0358 14.8598C33.7654 10.2403 30.3005 8.1114 27.1011 7.3513C26.74 7.26551 26.3788 7.19703 26.0181 7.14354L32.2146 13.7357ZM16.4498 16.6454C17.2639 17.4111 18.0841 18.0419 18.9027 18.5539C19.8716 19.1599 20.8539 19.6106 21.8395 19.9308L28.9479 15.2482L21.5801 14.1718L16.4498 16.6454ZM21.8836 12.1946L28.9982 13.234L23.1674 7.0304C21.3285 7.1503 19.5397 7.62803 17.8676 8.32689L21.8836 12.1946ZM13.2131 12.7475C13.7992 13.629 14.3964 14.4181 15.0012 15.1234L18.1694 13.5957L13.2131 12.7475ZM18.3882 11.6038L15.9432 9.24971C15.0787 9.7215 14.2715 10.2389 13.5359 10.7736L18.3882 11.6038Z" fill="#1C4D99"/>
<path d="M54.7898 6.16317C55.6481 7.19846 56.5286 8.56608 57.2012 10.1328C59.3732 15.192 59.3803 22.331 49.4942 27.0915C45.9243 22.4767 41.9859 11.8305 54.7898 6.16317ZM47.9999 17.1084C47.9071 19.2693 48.5596 21.4486 49.47 23.2817L50.2888 20.7026L48.0049 17.017C48.0033 17.0474 48.0012 17.078 47.9999 17.1084ZM52.2313 21.1951L51.4433 23.6762C53.752 22.0951 55.0403 20.4021 55.713 18.7891L52.2313 21.1951ZM52.9373 9.40751C51.4632 10.3509 50.41 11.3567 49.6693 12.3622C49.2237 12.9671 48.8794 13.5872 48.6218 14.2166L50.9423 17.9607L52.2936 11.9554L52.296 11.9419L52.9373 9.40751ZM54.2448 12.3937L52.9193 18.2887L56.355 15.9134C56.4371 14.2011 56.0367 12.49 55.3636 10.922C55.212 10.5688 55.048 10.2269 54.876 9.89907L54.2448 12.3937Z" fill="#1C4D99"/>
<path d="M7.5016 35.6583C7.45257 39.3527 8.38228 42.9941 10.1966 46.2126C12.011 49.4312 14.6452 52.112 17.8314 53.9826C21.0177 55.8532 24.6424 56.8468 28.3371 56.8626C32.0318 56.8784 35.6652 55.9158 38.8673 54.0725C42.0691 52.2293 44.7261 49.5712 46.5679 46.3684C48.4097 43.1656 49.371 39.5317 49.3535 35.8371C49.336 32.1426 48.3402 28.5183 46.4683 25.333C44.5963 22.1478 41.9141 19.5147 38.6949 17.7018C38.0935 17.3631 37.8799 16.6005 38.2185 15.999C38.5572 15.3975 39.3197 15.1839 39.9212 15.5226C43.5252 17.552 46.5273 20.4999 48.623 24.0656C50.7188 27.6315 51.8333 31.6893 51.8529 35.8254C51.8724 39.9613 50.7969 44.0287 48.7351 47.6141C46.6733 51.1997 43.6986 54.1752 40.114 56.2387C36.5294 58.3022 32.4624 59.3804 28.3264 59.3627C24.1903 59.345 20.1323 58.2329 16.5654 56.1389C12.9987 54.0449 10.0502 51.0435 8.01902 47.4406C5.98789 43.8376 4.94693 39.7608 5.00182 35.6251C5.01099 34.9348 5.57801 34.3826 6.26831 34.3918C6.95843 34.4012 7.51076 34.9681 7.5016 35.6583Z" fill="#1C4D99"/>
<path d="M30.4152 51.8915C33.9288 51.4534 37.1993 49.8674 39.7196 47.3803C42.2398 44.8932 43.869 41.6438 44.3535 38.1363C44.838 34.6287 44.151 31.059 42.3994 27.9817C40.6478 24.9045 37.9295 22.4915 34.6664 21.1172C34.1574 20.9029 33.9189 20.3169 34.1331 19.8079C34.3474 19.299 34.9333 19.0595 35.4422 19.2737C39.1115 20.8189 42.1685 23.5323 44.138 26.9923C46.1075 30.4524 46.879 34.4661 46.3342 38.4099C45.7894 42.3536 43.959 46.0078 41.1253 48.8042C38.2916 51.6008 34.6134 53.3835 30.6627 53.8761C30.1147 53.9444 29.615 53.5555 29.5467 53.0075C29.4783 52.4595 29.8672 51.9598 30.4152 51.8915Z" fill="#1C4D99"/>
<path d="M24.9337 51.1185C25.6064 51.2732 26.0259 51.9439 25.8714 52.6165C25.7167 53.2892 25.0462 53.7098 24.3735 53.5552C20.8191 52.7377 17.5949 50.864 15.1247 48.1808C12.6546 45.4976 11.0541 42.13 10.5328 38.5204C10.0114 34.9107 10.594 31.2276 12.2041 27.9551C13.8142 24.6825 16.3759 21.9729 19.5538 20.1832C20.1552 19.8444 20.9177 20.0574 21.2566 20.6588C21.5953 21.2602 21.3823 22.0227 20.781 22.3616C18.0426 23.9038 15.8341 26.2382 14.4467 29.0581C13.0592 31.8782 12.5573 35.0522 13.0065 38.1628C13.4557 41.2731 14.8351 44.175 16.9635 46.4871C19.0921 48.7993 21.8708 50.414 24.9337 51.1185Z" fill="#1C4D99"/>
<path d="M27.6343 32.7754C25.0699 34.0161 26.8541 28.409 28.5674 25.1713C28.9261 24.4934 29.462 23.9209 30.119 23.5253C38.4441 18.5133 44.1069 27.4094 45.2085 32.7754C43.7597 32.7754 40.7866 33.4117 40.4842 35.9568C40.1063 39.1383 37.2166 45.004 32.6813 43.8811C28.1461 42.7583 31.9459 35.4951 31.2087 32.546C30.7087 30.546 31.2086 31.046 27.6343 32.7754Z" fill="#B7D3AE"/>
<path d="M13.5136 37.5541C12.7825 37.5541 12.9175 36.394 12.7348 35.6375C12.42 39.2486 13.6434 47.3042 21.0547 50.6375C23.4308 48.7171 18.4486 43.1409 17.5347 42.6171C16.6208 42.0933 18.2658 39.8237 18.4486 38.2525C18.6314 36.6812 14.4275 37.5541 13.5136 37.5541Z" fill="#B7D3AE"/>
<path d="M11.5812 32.2976C12.0721 32.2621 12.5155 32.5889 12.6271 33.0682C12.6952 33.3604 12.7299 33.6739 12.757 33.9217C12.7858 34.1844 12.8072 34.3836 12.84 34.5535C13.0615 34.5319 13.3751 34.4953 13.7883 34.448C14.3871 34.3796 15.1211 34.3028 15.8264 34.2889C16.5032 34.2754 17.2811 34.3149 17.9084 34.5516C18.2322 34.6738 18.5942 34.8773 18.8605 35.2293C19.1457 35.6065 19.2488 36.0578 19.1974 36.5164C19.1315 37.1043 18.9405 37.7135 18.7443 38.2566C18.5691 38.7418 18.2926 39.422 18.1457 39.8172C17.967 40.2981 17.8689 40.6348 17.8459 40.8572C18.04 40.9996 18.2467 41.1872 18.4406 41.3767C18.7163 41.6463 19.0343 41.9877 19.3693 42.3777C20.0383 43.1564 20.8001 44.1606 21.4435 45.2283C22.0783 46.2817 22.641 47.4673 22.841 48.5965C23.0433 49.7391 22.8945 51.014 21.8332 51.9041C21.5354 52.1537 21.1199 52.208 20.7678 52.0437C16.2371 49.9292 13.61 46.3155 12.1721 42.7107C10.7411 39.1233 10.4645 35.4959 10.6564 33.2107L10.6691 33.1199C10.748 32.6732 11.1211 32.3311 11.5812 32.2976ZM15.8664 36.2889C15.2623 36.3008 14.6076 36.3675 14.0148 36.4353C13.5552 36.4879 13.057 36.5484 12.7111 36.5662C12.8845 38.2133 13.2832 40.0985 14.0295 41.9695C15.2431 45.0119 17.3546 47.9738 20.8693 49.8582C20.9318 49.6272 20.9407 49.3315 20.8723 48.9451C20.7347 48.1686 20.3141 47.2288 19.7307 46.2605C19.1558 45.3066 18.4641 44.3921 17.8527 43.6805C17.5477 43.3254 17.2686 43.0288 17.0422 42.8074C16.9288 42.6966 16.8334 42.6094 16.758 42.5457C16.6854 42.4844 16.6494 42.46 16.6447 42.4568C15.8908 42.0084 15.8058 41.2182 15.8517 40.698C15.8976 40.1804 16.0874 39.6131 16.2707 39.1199C16.4904 38.5287 16.659 38.1439 16.8635 37.5779C17.0256 37.1291 17.1371 36.7409 17.1887 36.4178C16.936 36.3266 16.4878 36.2766 15.8664 36.2889ZM33.6681 19.6453C35.9606 19.7384 37.9621 20.6814 39.6232 22.033C42.9088 24.7065 45.0011 29.0814 45.6701 32.3426C45.7304 32.6367 45.6556 32.9428 45.466 33.1756C45.2761 33.4084 44.9911 33.5437 44.6906 33.5437C43.9997 33.5438 42.9346 33.7009 42.0392 34.1453C41.167 34.5783 40.561 35.2196 40.4455 36.1922C40.2243 38.0559 39.5589 40.4762 38.215 42.3006C37.5352 43.2234 36.6561 44.0277 35.5412 44.5008C34.4143 44.9788 33.117 45.0881 31.6691 44.7293C30.8526 44.5269 30.1995 44.1238 29.7394 43.5252C29.2903 42.9408 29.086 42.2486 29.0109 41.5633C28.8651 40.2319 29.1858 38.6564 29.5226 37.2439C29.8792 35.7485 30.2575 34.4143 30.3859 33.3055C30.4491 32.7595 30.4376 32.366 30.3723 32.1014C30.3141 31.8661 30.2326 31.7937 30.1603 31.7527C29.7854 31.5404 29.5729 31.4638 29.4709 31.4353C29.4347 31.4809 29.3769 31.5545 29.2931 31.6717C29.0588 31.9996 28.6872 32.5146 28.0051 32.9139C27.3246 33.3121 26.4304 33.5437 25.2053 33.5437C24.618 33.5437 24.0565 33.4105 23.593 33.0711C23.122 32.7261 22.8563 32.2449 22.7287 31.7478C22.4904 30.8198 22.6943 29.6981 23.007 28.6707C23.6515 26.5535 25.0057 24.0759 26.0373 22.4539C26.1059 22.3461 26.1952 22.253 26.299 22.1785C28.8957 20.3167 31.3713 19.5521 33.6681 19.6453ZM33.5871 21.6433C31.8628 21.5734 29.87 22.1211 27.6223 23.6932C26.6473 25.2493 25.4687 27.454 24.9211 29.2527C24.628 30.2154 24.5724 30.8853 24.6662 31.2508C24.7046 31.4002 24.7531 31.4421 24.7746 31.4578C24.8036 31.479 24.9133 31.5437 25.2053 31.5437C26.1798 31.5437 26.7002 31.36 26.9953 31.1873C27.2886 31.0155 27.4545 30.8035 27.6652 30.5086C27.815 30.2989 28.2037 29.6596 28.9348 29.4725C29.656 29.288 30.4036 29.5922 31.1457 30.0125C31.8066 30.3868 32.1574 30.9894 32.3137 31.6219C32.4627 32.2252 32.4475 32.8933 32.3732 33.535C32.2266 34.8011 31.7932 36.3481 31.4689 37.7078C31.1248 39.1508 30.8963 40.4054 30.9992 41.3455C31.0485 41.7959 31.1673 42.1007 31.3254 42.3064C31.4725 42.4978 31.7103 42.6788 32.1506 42.7879C33.2166 43.052 34.0669 42.953 34.7599 42.659C35.4653 42.3597 36.0797 41.8267 36.6047 41.1141C37.6701 39.6676 38.2623 37.6234 38.4601 35.9568C38.6799 34.1052 39.8893 32.9804 41.1506 32.3543C41.9042 31.9802 42.7129 31.7623 43.4367 31.6482C42.6375 28.8998 40.8649 25.622 38.3615 23.5848C36.9562 22.4412 35.356 21.7152 33.5871 21.6433Z" fill="#1C4D99"/>
</svg>
