<svg width="500" height="486" viewBox="0 0 500 486" fill="none" xmlns="http://www.w3.org/2000/svg">
<g clip-path="url(#clip0_805_27691)">
<path d="M409.073 235.485C409.516 234.953 409.516 234.953 410.255 234.953C415.482 234.953 420.679 234.894 425.906 234.983C427.53 235.012 428.092 234.658 428.092 232.886C428.033 187.703 428.033 142.519 428.092 97.3359C428.092 95.6822 427.619 95.2687 426.024 95.2983C419.882 95.3869 413.71 95.3869 407.567 95.2983C405.943 95.2983 405.5 95.7412 405.529 97.3655C405.588 124.918 405.559 152.442 405.559 179.995C405.559 182.653 405.323 182.919 402.665 182.919C380.103 182.919 357.541 182.919 334.978 182.919C332.291 182.919 332.055 182.682 332.055 180.025C332.055 128.876 332.055 77.6974 332.055 26.5486C332.055 23.8908 332.321 23.625 334.949 23.625C389.523 23.625 444.068 23.625 498.643 23.625C499.647 23.625 500.592 23.9498 501.596 24.0089V308.871C500.533 309.403 499.41 309.58 498.2 309.58C385.861 309.58 273.494 309.58 161.155 309.58C160.565 309.58 159.974 309.58 159.413 309.521C158.438 309.373 157.966 308.901 157.966 307.749C157.995 284.064 157.995 260.41 157.966 236.725C157.966 235.396 158.497 235.012 159.738 235.012C186.877 235.012 214.017 235.012 241.127 235.012C241.717 235.012 242.308 235.012 242.722 235.544C242.367 236.253 241.688 236.223 241.038 236.253C240.27 236.312 239.503 236.282 238.764 236.282C213.279 236.282 187.763 236.282 162.277 236.282C160.013 236.282 158.881 237.414 158.881 239.678C158.881 261.414 158.881 283.178 158.881 304.914C158.881 307.158 160.033 308.28 162.336 308.28C273.996 308.28 385.655 308.28 497.284 308.28C497.639 308.28 497.993 308.28 498.347 308.28C499.824 308.398 500.355 307.69 500.267 306.302C500.237 305.711 500.267 305.12 500.267 304.53C500.267 212.509 500.267 120.489 500.267 28.4682C500.267 24.7472 500.562 24.9244 496.753 24.9244C443.419 24.9244 390.084 24.9244 336.75 24.9244C334.466 24.9244 333.325 26.086 333.325 28.4091C333.325 78.3471 333.325 128.285 333.325 178.223C333.325 180.507 334.496 181.659 336.839 181.678C358.22 181.678 379.63 181.678 401.011 181.678C403.177 181.678 404.26 180.576 404.26 178.371C404.26 151.763 404.26 125.155 404.26 98.5467C404.26 94.3237 404.437 94.117 408.748 94.117C414.212 94.117 419.646 94.117 425.109 94.117C429.037 94.117 429.332 94.4123 429.332 98.281C429.332 128.521 429.332 158.762 429.332 189.002C429.332 203.118 429.332 217.264 429.332 231.38C429.332 232.148 429.332 232.916 429.332 233.654C429.214 235.574 428.653 236.194 426.733 236.223C421.447 236.312 416.19 236.282 410.904 236.223C410.225 236.223 409.487 236.223 409.073 235.485Z" fill="#FCF3F1"/>
<path d="M499.793 412.202C498.878 413.826 499.291 415.923 497.992 417.429C497.549 416.927 497.637 416.336 497.785 415.775C499.173 410.164 499.173 404.464 498.553 398.765C498.435 397.672 498.199 396.579 497.903 395.516C497.697 394.837 497.46 394.158 498.051 393.538C499.203 394.985 499.055 396.904 499.793 398.469V412.172V412.202Z" fill="#788DAA"/>
<path d="M409.073 235.485C415.275 235.81 421.477 235.544 427.708 235.603C428.446 235.603 428.771 235.249 428.8 234.54C428.8 234.126 428.8 233.713 428.8 233.299C428.8 187.939 428.8 142.578 428.8 97.2177C428.8 95.5049 427.924 94.6485 426.172 94.6485C419.793 94.6485 413.385 94.7075 407.006 94.6485C405.264 94.6485 404.85 95.2096 404.85 96.8633C404.909 124.534 404.88 152.176 404.88 179.847C404.88 181.442 404.082 182.239 402.488 182.239C379.985 182.239 357.481 182.239 334.978 182.269C333.236 182.269 332.704 181.885 332.704 180.054C332.763 128.758 332.763 77.4906 332.704 26.1942C332.704 24.5699 333.118 24.127 334.742 24.127C389.494 24.1565 444.216 24.1565 498.967 24.127C500.415 24.127 500.828 24.5109 500.828 25.9874C500.798 119.632 500.798 213.307 500.828 306.951C500.828 308.96 499.883 308.871 498.465 308.871C395.134 308.871 291.803 308.871 188.472 308.871C179.081 308.871 169.719 308.812 160.328 308.9C158.556 308.9 158.35 308.162 158.35 306.715C158.35 283.621 158.379 260.528 158.35 237.434C158.35 235.721 159.088 235.573 160.476 235.573C187.084 235.573 213.692 235.573 240.3 235.573C241.127 235.573 241.924 235.485 242.751 235.426C244.621 235.642 245.557 234.855 245.557 233.063C245.557 164.195 245.557 95.3277 245.557 26.4895C245.557 24.9342 246.305 24.1565 247.801 24.1565C270.009 24.1565 292.217 24.1565 314.424 24.1565C316.846 24.1565 316.846 24.1565 316.846 26.519C316.846 95.2686 316.846 164.018 316.846 232.738C316.846 234.609 317.761 235.544 319.592 235.544C348.711 235.544 377.858 235.544 406.976 235.544C407.685 235.544 408.364 235.455 409.073 235.426V235.485Z" fill="#EE5D36"/>
<path d="M143.289 166.735C143.289 212.864 143.289 258.992 143.289 305.091C143.289 309.609 143.791 308.841 139.627 308.841C94.7976 308.841 49.9686 308.841 5.1396 308.9C3.48583 308.9 2.92473 308.487 2.95426 306.774C3.01333 283.74 3.01333 260.705 2.95426 237.67C2.95426 236.076 3.4563 235.721 4.96241 235.721C26.6977 235.78 48.4625 235.751 70.1978 235.751C71.7531 235.751 72.5308 234.993 72.5308 233.477C72.5308 164.55 72.5308 95.6526 72.5308 26.7258C72.5308 25.072 73.3478 24.2451 74.9819 24.2451C96.9534 24.2451 118.925 24.2451 140.926 24.2451C142.56 24.2451 143.377 25.0818 143.377 26.7553C143.377 73.4153 143.377 120.046 143.377 166.706L143.289 166.735Z" fill="#EF5E36"/>
<path d="M229.787 121.021C229.787 152.501 229.787 183.982 229.816 215.433C229.816 216.939 229.462 217.441 227.867 217.441C205.364 217.382 182.861 217.382 160.358 217.441C158.793 217.441 158.379 216.939 158.379 215.433C158.409 152.413 158.409 89.4218 158.379 26.4013C158.379 24.7475 158.822 24.1864 160.535 24.2159C182.92 24.275 205.305 24.275 227.719 24.2159C229.462 24.2159 229.846 24.777 229.846 26.4308C229.787 57.9706 229.816 89.5104 229.816 121.021H229.787Z" fill="#EF5E36"/>
<path d="M67.5695 417.459C70.0797 407.359 72.5898 397.229 75.1 387.13C78.4371 373.722 81.8037 360.315 85.0817 346.907C85.377 345.667 85.9086 345.342 87.1194 345.342C99.8475 345.372 112.546 345.401 125.274 345.342C126.751 345.342 127.046 345.844 127.046 347.173C127.046 384.324 127.046 421.504 127.046 458.655C127.046 459.984 126.751 460.486 125.304 460.486C117.921 460.397 110.538 460.397 103.155 460.486C101.531 460.486 101.236 459.895 101.236 458.419C101.265 429.921 101.265 401.452 101.265 372.954C101.265 371.803 101.265 370.651 101.265 369.056C100.231 370.09 100.202 371.005 99.9952 371.773C96.9239 383.113 93.8821 394.483 90.8404 405.853C87.2966 419.024 83.7528 432.195 80.209 445.336C78.9687 449.914 77.6693 454.462 76.488 459.069C76.2222 460.132 75.6907 460.457 74.6571 460.457C68.3373 460.427 61.988 460.427 55.6682 460.457C54.5756 460.457 54.103 460.043 53.8373 459.069C50.6478 447.197 47.488 435.325 44.269 423.483C42.1427 415.628 39.9279 407.802 37.8016 399.946C35.2028 390.348 32.6926 380.721 30.1234 371.123C29.9757 370.533 29.9757 369.824 29.0898 369.411C29.0602 370.119 29.0012 370.71 29.0012 371.33C29.0012 400.212 29.0012 429.123 29.0012 458.005C29.0012 459.64 28.1644 460.457 26.491 460.457C19.4034 460.457 12.3158 460.427 5.2282 460.457C3.84021 460.457 3.24958 460.161 3.24958 458.626C3.27911 421.475 3.27911 384.295 3.24958 347.144C3.24958 345.756 3.66302 345.342 5.05101 345.342C17.7791 345.401 30.4777 345.401 43.2059 345.342C44.6825 345.342 45.1254 345.844 45.4798 347.262C48.1967 358.661 51.0613 370.001 53.8668 381.371C56.7609 393.184 59.655 405.026 62.5491 416.838C62.6968 417.399 62.8444 417.961 63.0216 418.522C63.376 420.618 64.0257 422.656 64.4982 424.753C64.5868 425.166 64.6754 425.786 65.2955 425.698C65.768 425.639 65.7385 425.078 65.8271 424.694C66.4177 422.272 67.097 419.91 67.5695 417.459Z" fill="#183B6C"/>
<path d="M197.45 402.781C197.45 384.383 197.45 365.984 197.42 347.586C197.42 345.873 197.774 345.253 199.635 345.283C207.608 345.401 215.582 345.371 223.556 345.283C225.18 345.283 225.652 345.726 225.652 347.35C225.593 360.639 225.652 373.958 225.593 387.247C225.593 388.93 226.036 389.433 227.749 389.403C237.288 389.314 246.856 389.314 256.395 389.403C257.989 389.403 258.344 388.901 258.344 387.424C258.285 374.135 258.344 360.816 258.285 347.527C258.285 345.903 258.639 345.283 260.411 345.283C268.444 345.371 276.476 345.371 284.509 345.283C286.163 345.283 286.606 345.785 286.606 347.379C286.576 384.412 286.576 421.445 286.606 458.477C286.606 459.954 286.133 460.397 284.686 460.397C276.535 460.338 268.385 460.338 260.263 460.397C258.669 460.397 258.285 459.836 258.314 458.359C258.373 442.708 258.314 427.056 258.373 411.434C258.373 409.78 257.989 409.248 256.247 409.248C246.708 409.337 237.14 409.337 227.601 409.248C226.066 409.248 225.593 409.662 225.623 411.227C225.682 426.879 225.623 442.53 225.711 458.153C225.711 459.925 225.268 460.427 223.467 460.397C215.493 460.308 207.52 460.308 199.546 460.397C197.893 460.397 197.479 459.895 197.509 458.3C197.568 439.784 197.538 421.268 197.538 402.751L197.45 402.781Z" fill="#173B6C"/>
<path d="M499.824 415.687C500.651 419.319 501.271 422.981 501.271 426.732C501.271 431.073 500.798 435.355 499.765 439.548C496.635 449.294 489.517 454.993 480.303 458.478C470.647 462.14 460.576 462.701 450.388 462.524C441.676 462.376 433.112 461.313 425.109 457.503C416.456 453.369 411.377 446.518 409.634 437.127C408.955 433.465 408.985 429.803 408.955 426.111C408.955 424.93 409.28 424.428 410.55 424.428C418.878 424.458 427.176 424.487 435.504 424.428C436.862 424.428 437.187 424.989 437.187 426.229C437.158 429.448 437.158 432.667 438.132 435.798C439.314 439.578 441.706 442.236 445.249 443.889C449.62 445.336 454.109 445.779 458.657 445.248C461.728 444.893 464.563 443.948 467.073 442.118C474.131 437.599 475.135 423.572 464.504 418.108C458.775 415.155 452.691 413.324 446.578 411.523C439.255 409.367 432.049 406.975 425.463 403.047C414.241 396.373 410.166 386.952 411.022 374.018C411.406 368.023 413.149 362.412 416.781 357.509C421.181 351.574 427.206 347.912 434.146 345.933C447.701 342.064 461.374 342.212 474.899 345.903C481.928 347.823 488.041 351.308 492.411 357.48C496.398 363.15 497.284 369.529 497.225 376.203C497.225 377.325 496.516 377.384 495.689 377.355C492.116 377.355 488.543 377.355 484.969 377.355C480.628 377.355 476.287 377.355 471.946 377.414C470.676 377.414 470.174 377.089 470.174 375.76C470.174 373.752 469.761 371.803 469.2 369.883C467.575 364.302 463.766 361.112 458.007 360.522C455.084 360.226 452.13 360.256 449.266 360.876C442.267 362.412 438.782 367.343 439.018 374.49C439.255 381.578 443.596 385.21 449.443 387.602C457.033 390.703 464.829 393.213 472.537 395.989C479.477 398.499 486.387 401.069 492.264 405.764C495.601 408.451 498.259 411.641 499.794 415.716L499.824 415.687Z" fill="#193B6C"/>
<path d="M350.512 345.342C355.798 345.342 361.055 345.342 366.341 345.342C367.463 345.342 368.024 345.756 368.379 346.819C372.897 360.965 377.415 375.11 381.963 389.256C387.161 405.528 392.358 421.8 397.585 438.072C399.771 444.864 401.986 451.656 404.201 458.448C404.821 460.368 404.791 460.397 402.753 460.397C394.248 460.397 385.773 460.398 377.268 460.427C375.88 460.427 375.319 459.955 374.994 458.626C373.192 451.597 371.302 444.598 369.501 437.57C369.206 436.447 368.703 436.063 367.552 436.063C356.241 436.093 344.931 436.093 333.62 436.063C332.409 436.063 331.878 436.506 331.553 437.658C329.751 444.628 327.832 451.568 326.03 458.537C325.676 459.895 325.144 460.457 323.668 460.427C315.163 460.368 306.687 460.368 298.182 460.427C296.587 460.427 296.292 460.073 296.794 458.537C302.7 440.346 308.577 422.125 314.424 403.904C319.74 387.307 325.026 370.71 330.342 354.113C331.11 351.721 331.966 349.359 332.645 346.937C333 345.667 333.679 345.342 334.919 345.342C340.146 345.401 345.344 345.342 350.571 345.342H350.512Z" fill="#173A6C"/>
<path d="M148.516 402.9C148.516 384.443 148.516 365.986 148.486 347.528C148.486 345.727 148.959 345.284 150.76 345.313C158.675 345.431 166.589 345.402 174.474 345.313C176.039 345.313 176.571 345.609 176.571 347.322C176.512 384.413 176.512 421.475 176.571 458.567C176.571 460.044 176.157 460.457 174.681 460.428C166.589 460.369 158.497 460.339 150.435 460.428C148.841 460.428 148.486 459.926 148.486 458.42C148.545 439.903 148.516 421.387 148.486 402.871L148.516 402.9Z" fill="#173A6C"/>
<path d="M465.33 419.969C463.204 422.095 460.457 422.863 457.652 423.247C452.838 423.926 448.054 423.838 443.476 421.741C445.869 421.859 448.113 422.745 450.505 422.893C455.643 423.247 460.546 422.893 464.975 419.969C465.064 419.91 465.212 419.969 465.33 419.969Z" fill="#91A1B5"/>
<path d="M67.5695 417.458C67.4809 420.294 66.3882 422.892 65.8862 425.639C65.8271 425.993 65.5613 426.259 65.1774 426.288C64.764 426.288 64.4982 426.052 64.4391 425.698C64.0847 423.276 63.0216 421.032 63.0511 418.551C64.0257 420.707 64.1438 423.129 65.2069 425.757C66.0929 422.715 66.8312 420.116 67.599 417.488L67.5695 417.458Z" fill="#7F92AE"/>
<path d="M351.014 366.841C351.132 368.997 352.107 370.975 352.638 373.043C356.271 387.188 359.992 401.334 363.742 415.48C364.067 416.661 363.831 417.045 362.561 417.045C354.528 417.015 346.525 417.045 338.493 417.045C337.548 417.045 336.721 417.133 337.134 415.627C340.383 403.372 343.572 391.086 346.791 378.831C347.706 375.169 348.711 371.566 349.626 367.904C349.774 367.313 349.715 366.103 351.014 366.87V366.841Z" fill="#FDFEFE"/>
<path d="M351.014 366.841C349.921 366.369 350.069 367.373 349.951 367.845C349.094 370.946 348.297 374.106 347.441 377.207C347.293 377.738 347.264 378.358 346.791 378.772C346.909 376.173 347.943 373.811 348.445 371.271C348.74 369.676 349.242 368.111 349.744 366.546C349.862 366.162 349.833 365.394 350.453 365.512C351.014 365.601 351.162 366.221 351.014 366.812V366.841Z" fill="#91A1B9"/>
</g>
<defs>
<clipPath id="clip0_805_27691">
<rect width="500" height="485.913" fill="white"/>
</clipPath>
</defs>
</svg>
