<svg width="64" height="64" viewBox="0 0 64 64" fill="none" xmlns="http://www.w3.org/2000/svg">
<path d="M43.5108 41.0018C43.1959 41.8948 43.6187 43.8785 44.0782 45.5253C44.3283 46.4216 43.3641 47.1985 42.5871 46.6865C40.6804 45.4301 38.2538 43.6258 38.0342 42.4545C38.0009 42.2767 38.0252 42.093 38.0203 41.9121C38.0026 41.2677 37.9456 40.6972 37.8592 40.1907C37.3122 36.9818 34.8221 34.4746 33.5 31.5001L40.5 28.5003L43.4263 37.1707C43.8317 38.3983 43.9798 39.672 43.5108 41.0018Z" fill="#B7D3AE" stroke="#1C4D99" stroke-width="2.5" stroke-linecap="round" stroke-linejoin="round"/>
<path d="M19.6594 40.1419C19.9743 41.0349 19.5515 43.0186 19.092 44.6654C18.8419 45.5617 19.8061 46.3386 20.5831 45.8266C22.5788 44.5115 25.1442 42.5962 25.1521 41.4348C25.1526 41.3613 25.1453 41.287 25.1461 41.2135C25.1483 41.0308 25.1515 40.8545 25.1557 40.6845C25.2417 37.1639 26.4999 33.5216 26.4999 30L20.9999 30L19.744 36.3109C19.3386 37.5384 19.1904 38.8121 19.6594 40.1419Z" fill="#B7D3AE" stroke="#1C4D99" stroke-width="2.5" stroke-linecap="round" stroke-linejoin="round"/>
<path d="M9.64689 39.6556C9.64689 40.6692 8.47945 42.5668 7.46562 44.0236C6.98138 44.7194 7.57837 45.6731 8.40107 45.4685C9.82589 45.1143 11.5913 44.6029 12.8371 43.9958C14.1065 43.3773 14.9582 40.9731 15.6604 39.748C17.196 37.069 19.5093 36.4234 21.9913 34.5863C25.6666 31.8658 28.8893 27.998 25.6933 24.7273C21.317 20.2488 16.5761 25.3788 15.8467 29.9047C15.1173 33.2636 9.64689 35.1771 9.64689 39.6556Z" fill="#B7D3AE" stroke="#1C4D99" stroke-width="2.5" stroke-linecap="round" stroke-linejoin="round"/>
<path d="M53.1795 39.6556C53.1795 40.6646 54.3915 42.5497 55.4503 44.0039C55.9551 44.6974 55.3637 45.6763 54.529 45.479C53.0476 45.1289 51.2024 44.6219 49.8873 44.0189C48.5354 43.3991 47.6097 40.9387 46.8327 39.6706C45.2229 37.0439 42.9157 36.4476 40.3886 34.6855C36.4804 31.9604 32.9798 28.038 36.3689 24.7273C40.9536 20.2488 45.9203 25.3788 46.6845 29.9047C47.4486 33.2636 53.1795 35.1771 53.1795 39.6556Z" fill="#B7D3AE" stroke="#1C4D99" stroke-width="2.5" stroke-linecap="round" stroke-linejoin="round"/>
<path d="M33.5002 48.7753C32.8696 49.5467 32.5976 51.731 32.4803 53.487C32.4243 54.3251 31.3688 54.6915 30.862 54.0216C29.9736 52.8473 28.9144 51.3336 28.3154 50.074C27.7026 48.7852 28.5416 46.3768 28.7555 44.9659C29.2108 41.9617 27.8353 40.0477 27.0469 37.1133C25.8543 32.6739 25.7213 27.6096 30.2825 27.1513C36.4905 26.5276 36.9927 33.4651 34.7403 37.3825C33.2155 40.4097 36.2923 45.3594 33.5002 48.7753Z" fill="#B7D3AE" stroke="#1C4D99" stroke-width="2.5" stroke-linecap="round" stroke-linejoin="round"/>
<path d="M28 8V18.7667C28 19.3649 27.7322 19.9317 27.2701 20.3116L24 23" stroke="#1C4D99" stroke-width="2.5" stroke-linecap="round" stroke-linejoin="round"/>
<path d="M35 8V18.9363C35 19.4351 35.1863 19.9158 35.5225 20.2842L38 23" stroke="#1C4D99" stroke-width="2.5" stroke-linecap="round" stroke-linejoin="round"/>
<path d="M41.5 28.5L44.5 26" stroke="#1C4D99" stroke-width="2" stroke-linecap="round"/>
<path d="M21.5 28.5L18.5 26" stroke="#1C4D99" stroke-width="2" stroke-linecap="round"/>
<path d="M30.4999 11.5L27.9999 11.462" stroke="#1C4D99" stroke-width="2" stroke-linecap="round"/>
<path d="M34.4999 16.2671L31.9999 16.2291" stroke="#1C4D99" stroke-width="2" stroke-linecap="round"/>
<path d="M37.4999 23.2671L34.9999 23.2291" stroke="#1C4D99" stroke-width="2" stroke-linecap="round"/>
<path d="M28.4999 22.2671L25.9999 22.2291" stroke="#1C4D99" stroke-width="2" stroke-linecap="round"/>
<path d="M29.8764 31.7132L25.9998 32.1849" stroke="#1C4D99" stroke-width="2" stroke-linecap="round"/>
<path d="M46 38.5L48 37" stroke="#1C4D99" stroke-width="2" stroke-linecap="round"/>
<path d="M16 38.5L14 37" stroke="#1C4D99" stroke-width="2" stroke-linecap="round"/>
<path d="M33.8764 41.7128L31 42.5" stroke="#1C4D99" stroke-width="2" stroke-linecap="round"/>
</svg>
