<svg width="64" height="64" viewBox="0 0 64 64" fill="none" xmlns="http://www.w3.org/2000/svg">
<g clip-path="url(#clip0_869_71)">
<path d="M13.0843 35.2827C11.945 36.2203 8.75188 36.6719 6.1971 36.8873C4.97627 36.9903 4.46145 38.5411 5.44449 39.2755C7.13561 40.5388 9.30959 42.0344 11.1174 42.8585C12.9556 43.6964 16.4015 42.4288 18.3907 42.079C22.8028 41.303 25.6643 43.3064 30.0124 44.378C36.3787 45.9469 43.5938 45.9449 44.3703 39.3806C45.4369 30.3628 35.3857 29.8168 29.6441 33.1855C25.2127 35.4759 18.1124 31.1445 13.0843 35.2827Z" fill="#F7FAF6" stroke="#1C4D99" stroke-width="2.5" stroke-linecap="round" stroke-linejoin="round"/>
<path d="M12.4778 34.4243C11.3783 35.3292 8.3154 35.7326 5.78327 35.9124C4.49166 36.0041 3.92903 37.6443 4.963 38.4272C5.53099 38.8573 6.14871 39.311 6.78629 39.7564L44.0171 39.7564C44.0498 39.5644 44.0765 39.3661 44.0969 39.1615C45.0089 30.0219 35.0589 28.7391 29.297 32.3211C24.8443 34.7461 17.4725 30.3137 12.4778 34.4243Z" fill="#F7FAF6" stroke="#1C4D99" stroke-width="2.5" stroke-linecap="round" stroke-linejoin="round"/>
<path d="M29.2639 43.7253C35.5077 45.5579 42.6542 45.978 43.5819 39.9067L7.3906 39.5021C8.52908 40.2995 9.71322 41.0546 10.7739 41.5857C12.6533 42.5268 16.158 41.3563 18.2414 41.0868C22.4928 40.5368 25.1511 42.5181 29.2639 43.7253Z" fill="#B7D3AE" stroke="#1C4D99" stroke-width="0.558235" stroke-linecap="round" stroke-linejoin="round"/>
<path d="M54.806 39.7331C54.7492 41.2074 56.3224 44.0227 57.6972 46.1867C58.3542 47.2208 57.4313 48.5693 56.2517 48.2312C54.2225 47.6497 51.7161 46.8244 49.9659 45.8841C48.1864 44.9281 47.1097 41.4178 46.1842 39.6226C44.1314 35.6408 40.8046 34.5756 37.3199 31.763C32.2177 27.6448 27.8523 21.9002 32.6077 17.309C39.1404 11.0018 45.6587 18.6723 46.4523 25.2817C47.3113 30.1955 55.0567 33.2259 54.806 39.7331Z" fill="#F7FAF6" stroke="#1C4D99" stroke-width="2.5" stroke-linecap="round" stroke-linejoin="round"/>
<path d="M55.8556 39.6959C55.8008 41.1189 57.3335 43.8011 58.723 45.9256C59.4318 47.0092 58.4667 48.4499 57.2177 48.1007C56.5315 47.9089 55.7965 47.6917 55.056 47.4538L32.5215 17.8172C32.6546 17.675 32.7962 17.5337 32.9468 17.3936C39.6701 11.1357 46.7136 18.2797 47.3497 25.0344C48.1144 30.0466 56.1047 33.232 55.8556 39.6959Z" fill="#F7FAF6" stroke="#1C4D99" stroke-width="2.5" stroke-linecap="round" stroke-linejoin="round"/>
<path d="M39.399 32.9245C34.3083 28.9617 28.8708 23.3387 32.9999 19.0001L53.9689 46.7616C53.0345 46.4579 52.1033 46.1203 51.2766 45.7591C48.9793 44.7554 47.6738 40.9131 46.2888 38.8262C44.3547 35.9121 42.1588 35.0729 39.399 32.9245Z" fill="#B7D3AE" stroke="#1C4D99" stroke-width="0.558235" stroke-linecap="round" stroke-linejoin="round"/>
<path d="M36.9895 41.6897V44.6675" stroke="#1C4D99" stroke-width="2" stroke-linecap="round"/>
<path d="M30 40V41.4889" stroke="#1C4D99" stroke-width="2" stroke-linecap="round"/>
<path d="M13.9114 40.2002V41.6891" stroke="#1C4D99" stroke-width="2" stroke-linecap="round"/>
<path d="M50.6338 43.1787L49.6452 44.2921" stroke="#1C4D99" stroke-width="2" stroke-linecap="round"/>
<path d="M35.8091 25.0786L33.4241 27.0345" stroke="#1C4D99" stroke-width="2" stroke-linecap="round"/>
<path d="M41.3108 29L40.0001 30.1411" stroke="#1C4D99" stroke-width="2" stroke-linecap="round"/>
</g>
<defs>
<clipPath id="clip0_869_71">
<rect width="64" height="64" fill="white"/>
</clipPath>
</defs>
</svg>
