<svg width="64" height="64" viewBox="0 0 64 64" fill="none" xmlns="http://www.w3.org/2000/svg">
<path d="M30.3605 26.468L13.5 44.4998" stroke="#1C4D99" stroke-width="2.5" stroke-linecap="round"/>
<path d="M34.4529 26.4673L51 44.4995" stroke="#1C4D99" stroke-width="2.5" stroke-linecap="round"/>
<path d="M19 41.9082C20.3601 39.313 20.899 34.7421 16.8926 35.3034C12.8861 35.8648 14.7298 41.7341 16.1524 44.5986C16.1739 44.7517 16.2021 44.8959 16.2315 45.0399L16.3563 45.7374C17.3231 45.7375 19.013 45.7376 20.1326 45.7374C19.9396 44.3095 18.5078 42.9885 19 41.9082Z" fill="#F7FAF6"/>
<path d="M20 42C21.3601 39.4048 21.899 34.8339 17.8926 35.3952C13.8861 35.9566 15.7298 41.8259 17.1524 44.6904C17.1739 44.8435 17.2021 44.9877 17.2315 45.1317L17.3563 45.8292C18.3231 45.8293 20.013 45.8294 21.1326 45.8292C20.9396 44.4013 19.5078 43.0803 20 42Z" fill="#B7D3AE"/>
<path d="M39.4485 40.9058C40.8086 38.3106 41.3798 33.7397 37.3733 34.301C33.3668 34.8624 35.2105 40.7317 36.6332 43.5962L36.7594 44.9206C36.7889 45.2589 36.8167 45.5692 36.8371 45.7351C37.8038 45.7352 39.4937 45.7352 40.6134 45.7351C39.9485 44.4058 38.9563 41.9861 39.4485 40.9058Z" fill="#F7FAF6"/>
<path d="M41.5 41C42.8601 38.4048 43.4313 33.8339 39.4248 34.3953C35.4183 34.9566 37.262 40.826 38.6847 43.6904L38.8109 45.0148C38.8404 45.3531 38.8682 45.6635 38.8886 45.8293C39.8553 45.8294 41.5452 45.8295 42.6649 45.8293C42 44.5 41.0078 42.0803 41.5 41Z" fill="#B7D3AE"/>
<path d="M27.1462 41.756C25.7861 39.1608 26.7806 33.2336 30.2936 35.2399C32.5 36.5 30.8299 41.4999 31.0338 44.5351C31.0123 44.6882 30.9841 44.8324 30.9547 44.9764L30.8299 45.6739C29.8631 45.674 28.1732 45.6741 27.0536 45.6739C27.2466 44.246 27.6384 42.8363 27.1462 41.756Z" fill="#B7D3AE"/>
<path d="M46.0791 40.7936C44.719 38.1984 45.2201 33.7162 49.2265 34.2775C53.233 34.8389 48.6605 40.9186 49.2265 43.6089L48.9006 45.7116C47.9339 45.7116 47.1061 45.7117 45.9865 45.7116C46.1795 44.2836 46.5713 41.8739 46.0791 40.7936Z" fill="#F7FAF6"/>
<path d="M48.6785 40.9113C47.3183 38.3161 47.8194 33.8339 51.8259 34.3952C55.8324 34.9566 51.2599 41.0362 51.8259 43.7266L51.5 45.8292C50.5333 45.8293 49.7055 45.8294 48.5858 45.8292C48.7788 44.4013 49.1707 41.9916 48.6785 40.9113Z" fill="#B7D3AE"/>
<path d="M24.9711 39.4527C21.1622 38.919 20.5215 42.9439 21.6363 45.572C21.7418 45.8206 21.9928 45.9687 22.2629 45.9687C23.2609 45.9687 24.5283 45.969 26.8955 45.9687C25.5 43 27.8237 39.8523 24.9711 39.4527Z" fill="#B7D3AE"/>
<path d="M46.5034 38.6076C42.8769 37.3113 42.0701 42.9427 43.1744 45.7255C43.274 45.9766 43.5251 46.1237 43.7952 46.1237C44.7932 46.1236 46.0606 46.124 48.4278 46.1237C47 43 49 39.5 46.5034 38.6076Z" fill="#B7D3AE"/>
<path d="M35 39.5002C32.1482 39.0247 31.5086 42.9535 32.6207 45.572C32.7263 45.8206 32.9773 45.9688 33.2474 45.9688C34.2454 45.9687 35.5128 45.9691 37.8799 45.9688C36 43.0001 37.8412 39.9738 35 39.5002Z" fill="#B7D3AE"/>
<path d="M20.7283 24.4712V13.4917C21.9857 13.4917 23.1917 13.8598 24.0808 14.5149C24.97 15.1701 25.4695 16.0587 25.4695 16.9852L31.2199 16.9851C33.0054 16.9851 34.4529 18.4326 34.4529 20.2182V26.4676L30.4603 26.4676V22.5943C30.4603 21.7015 29.7366 20.9778 28.8438 20.9778H25.4695L25.4695 21.2272C25.4695 22.0875 24.97 22.9127 24.0808 23.521C23.1917 24.1294 21.9857 24.4712 20.7283 24.4712Z" fill="#B7D3AE"/>
<path d="M9 15.4883V22.9744" stroke="#1C4D99" stroke-width="2.5" stroke-linecap="round"/>
<path d="M20.4788 9V12.9926" stroke="#1C4D99" stroke-width="2.5" stroke-linecap="round"/>
<path d="M23.9723 9H17.4843" stroke="#1C4D99" stroke-width="2.5" stroke-linecap="round"/>
<path d="M15.9871 16.9851H9.49906" stroke="#1C4D99" stroke-width="2.5" stroke-linecap="round"/>
<path d="M15.9871 20.978H9.49906" stroke="#1C4D99" stroke-width="2.5" stroke-linecap="round"/>
<path d="M25.4695 21.2272C25.4695 22.0875 24.97 22.9126 24.0808 23.521C23.1917 24.1294 21.9857 24.4712 20.7283 24.4712C19.4708 24.4712 18.2649 24.1294 17.3757 23.521C16.4866 22.9126 15.9871 22.0875 15.9871 21.2272" stroke="#1C4D99" stroke-width="2.5" stroke-linecap="round"/>
<path d="M25.4695 16.9852C25.4695 16.0587 24.97 15.1701 24.0808 14.5149C23.1917 13.8598 21.9857 13.4917 20.7283 13.4917C19.4708 13.4917 18.2649 13.8598 17.3757 14.5149C16.4866 15.1701 15.9871 16.0587 15.9871 16.9852" stroke="#1C4D99" stroke-width="2.5" stroke-linecap="round"/>
<path d="M25.4695 16.9851H31.2198C33.0054 16.9851 34.4529 18.4326 34.4529 20.2181V26.4676H30.5226" stroke="#1C4D99" stroke-width="2.5" stroke-linecap="round" stroke-linejoin="round"/>
<path d="M25.4695 20.978H28.8437C29.7365 20.978 30.4602 21.7018 30.4602 22.5945V26.4679" stroke="#1C4D99" stroke-width="2.5" stroke-linecap="round"/>
<path d="M15.434 44.1941C14.0114 41.3296 12.1677 35.4603 16.1741 34.8989C20.1806 34.3375 20.6817 38.8198 19.3216 41.415C18.8294 42.4953 19.2212 43.905 19.4142 45.3329C18.2945 45.3331 16.6046 45.333 15.6379 45.3329M15.434 44.1941C15.4886 44.5837 15.5866 44.9157 15.6379 45.3329M15.434 44.1941L15.6379 45.3329" stroke="#1C4D99" stroke-width="2.5" stroke-linecap="round" stroke-linejoin="round"/>
<path d="M36.5 43.5C35.0773 40.6355 33.7 34.6155 37.7065 34.0541C41.7129 33.4928 42.214 37.975 40.8539 40.5702C40.3617 41.6505 40.7535 44.0602 40.9465 45.4882C39.8269 45.4883 38.1369 45.4882 37.1702 45.4882M36.5 43.5C36.5546 43.8896 37.1189 45.0709 37.1702 45.4882M36.5 43.5L37.1702 45.4882" stroke="#1C4D99" stroke-width="2.5" stroke-linecap="round" stroke-linejoin="round"/>
<path d="M29.3154 44.1941C30.738 41.3296 32.5817 35.4603 28.5753 34.8989C24.5688 34.3375 24.0677 38.8198 25.4278 41.415C25.92 42.4953 25.5282 43.905 25.3352 45.3329C26.4548 45.3331 28.1448 45.333 29.1115 45.3329M29.3154 44.1941C29.2608 44.5837 29.1628 44.9157 29.1115 45.3329M29.3154 44.1941L29.1115 45.3329" stroke="#1C4D99" stroke-width="2.5" stroke-linecap="round" stroke-linejoin="round"/>
<path d="M50.8476 43.3493C52.2703 40.4848 54.114 34.6155 50.1075 34.0541C46.101 33.4928 45.6 37.975 46.9601 40.5702C47.4523 41.6505 47.0605 44.0602 46.8674 45.4882C47.9871 45.4883 49.677 45.4882 50.6437 45.4882M50.8476 43.3493C50.6437 43.7598 50.695 45.0709 50.6437 45.4882M50.8476 43.3493L50.6437 45.4882" stroke="#1C4D99" stroke-width="2.5" stroke-linecap="round" stroke-linejoin="round"/>
<path d="M23.2528 39.1116C19.4438 38.5779 18.8031 42.6028 19.9179 45.2309C20.0234 45.4796 20.2744 45.6276 20.5445 45.6276C21.5425 45.6276 22.8099 45.628 25.1771 45.6277C25.9923 42.7572 26.1053 39.5113 23.2528 39.1116Z" stroke="#1C4D99" stroke-width="2.5" stroke-linecap="round" stroke-linejoin="round"/>
<path d="M44.785 38.2666C40.973 37.7325 40.3344 42.6695 41.4529 45.3854C41.5557 45.6351 41.8067 45.7826 42.0768 45.7826C43.0748 45.7826 44.3422 45.783 46.7093 45.7827C47.5245 42.9122 47.6376 38.6663 44.785 38.2666Z" stroke="#1C4D99" stroke-width="2.5" stroke-linecap="round" stroke-linejoin="round"/>
<path d="M33.8032 39.3828C29.9942 38.8492 29.3536 42.874 30.4684 45.5022C30.5738 45.7508 30.8248 45.8989 31.0949 45.8989C32.093 45.8988 33.3603 45.8992 35.7275 45.8989C36.5427 43.0285 36.6557 39.7825 33.8032 39.3828Z" stroke="#1C4D99" stroke-width="2.5" stroke-linecap="round" stroke-linejoin="round"/>
<rect x="13" y="45.9998" width="38" height="3" fill="#B7D3AE"/>
<path d="M36.9483 54.4746H44.7059C48.277 54.4746 51.172 51.5796 51.172 48.0085V45.4912H13.4917V48.0085C13.4917 51.5796 16.3867 54.4746 19.9578 54.4746H27.9649" stroke="#1C4D99" stroke-width="2.5" stroke-linecap="round"/>
<path d="M14.7394 49.4839H50.1738" stroke="#1C4D99" stroke-width="2.5" stroke-linecap="round"/>
<circle cx="32.4566" cy="54.4745" r="0.998153" fill="#1C4D99"/>
</svg>
