<svg width="64" height="64" viewBox="0 0 64 64" fill="none" xmlns="http://www.w3.org/2000/svg">
<path d="M31 35H54V41.1111V57H31V35Z" fill="#B7D3AE"/>
<path d="M6 35H29V41.1111V57H6V35Z" fill="#B7D3AE"/>
<path d="M22 10H45V16.1111V32H22V10Z" fill="#B7D3AE"/>
<path d="M19.5 20.8889V32H44.5V7H19.5V13.9444" stroke="#1C4D99" stroke-width="2" stroke-linecap="round" stroke-linejoin="round"/>
<path d="M7 45.8889V57H32V32H7V38.9444" stroke="#1C4D99" stroke-width="2" stroke-linecap="round" stroke-linejoin="round"/>
<path d="M57 45.8889V57H32V32H57V38.9444" stroke="#1C4D99" stroke-width="2" stroke-linecap="round" stroke-linejoin="round"/>
<rect x="29" y="24" width="6.33333" height="7.72222" stroke="#1C4D99" stroke-width="2"/>
<rect x="17" y="49" width="6.33333" height="7.72222" stroke="#1C4D99" stroke-width="2"/>
<rect x="42" y="49" width="6.33333" height="7.72222" stroke="#1C4D99" stroke-width="2"/>
<rect x="29" y="7" width="6.33333" height="7.72222" stroke="#1C4D99" stroke-width="2"/>
<rect x="17" y="32" width="6.33333" height="7.72222" stroke="#1C4D99" stroke-width="2"/>
<rect x="42" y="32" width="6.33333" height="7.72222" stroke="#1C4D99" stroke-width="2"/>
</svg>
