<svg width="64" height="64" viewBox="0 0 64 64" fill="none" xmlns="http://www.w3.org/2000/svg">
<path d="M57.0365 48.9754H44.1143C43.0628 48.9754 42.1908 48.1612 42.119 47.1121L40.3356 21.0741H40.5696C40.8341 21.0741 41.0485 20.8597 41.0485 20.5952C41.0485 20.3307 40.8341 20.1163 40.5696 20.1163H40.27C40.2129 19.2829 40.8735 18.5754 41.7089 18.5754H59.4308C60.2721 18.5754 60.9375 19.288 60.88 20.1274H60.5227C60.2613 20.1274 60.0494 20.3393 60.0494 20.6007C60.0494 20.8621 60.2613 21.0741 60.5227 21.0741H60.8152L59.0318 47.1121C58.9599 48.1612 58.088 48.9754 57.0365 48.9754Z" fill="white" stroke="#1C4D99" stroke-width="2" stroke-linecap="round" stroke-linejoin="round"/>
<path d="M57.0373 48.9754H44.1134C43.0622 48.9754 42.1904 48.1617 42.1181 47.113L41.4137 36.8987C41.4137 36.8987 46.9388 37.7316 50.5753 37.7316C54.2118 37.7316 59.737 36.8987 59.737 36.8987L59.0325 47.113C58.9602 48.1617 58.0884 48.9754 57.0373 48.9754Z" fill="#B7D3AE" stroke="#1C4D99" stroke-width="2" stroke-linecap="round" stroke-linejoin="round"/>
<path d="M55.1562 18.5754C55.1562 19.6799 54.7174 20.7391 53.9364 21.5201C53.1555 22.3011 52.0962 22.7398 50.9918 22.7398C49.8873 22.7398 48.8281 22.3011 48.0471 21.5201C47.2661 20.7391 46.8274 19.6799 46.8274 18.5754L55.1562 18.5754Z" fill="#1C4D99"/>
<ellipse cx="51.4082" cy="36.4821" rx="4.58082" ry="5.4137" fill="#74AB63"/>
<path d="M20.872 48.9754H7.94989C6.89836 48.9754 6.02642 48.1612 5.95457 47.1121L4.17114 21.0741H4.40513C4.66963 21.0741 4.88404 20.8597 4.88404 20.5952C4.88404 20.3307 4.66963 20.1163 4.40513 20.1163H4.10554C4.04845 19.2829 4.70909 18.5754 5.54443 18.5754H23.2663C24.1077 18.5754 24.7731 19.288 24.7156 20.1274H24.3583C24.0969 20.1274 23.8849 20.3393 23.8849 20.6007C23.8849 20.8621 24.0969 21.0741 24.3583 21.0741H24.6508L22.8674 47.1121C22.7955 48.1612 21.9236 48.9754 20.872 48.9754Z" fill="white" stroke="#1C4D99" stroke-width="2" stroke-linecap="round" stroke-linejoin="round"/>
<path d="M20.873 48.9754H7.94907C6.8979 48.9754 6.02613 48.1617 5.95381 47.113L5.24939 36.8987C5.24939 36.8987 10.7745 37.7316 14.411 37.7316C18.0475 37.7316 23.5727 36.8987 23.5727 36.8987L22.8682 47.113C22.7959 48.1617 21.9241 48.9754 20.873 48.9754Z" fill="#B7D3AE" stroke="#1C4D99" stroke-width="2" stroke-linecap="round" stroke-linejoin="round"/>
<path d="M18.9917 18.5754C18.9917 19.6799 18.553 20.7391 17.772 21.5201C16.991 22.3011 15.9318 22.7398 14.8273 22.7398C13.7229 22.7398 12.6637 22.3011 11.8827 21.5201C11.1017 20.7391 10.663 19.6799 10.663 18.5754L18.9917 18.5754Z" fill="#1C4D99"/>
<ellipse cx="14.148" cy="36.4821" rx="4.58082" ry="5.4137" fill="#74AB63"/>
<path d="M42.1324 52H23.95C22.8984 52 22.0265 51.1857 21.9546 50.1367L19.5677 15.2877H19.8756C20.2236 15.2877 20.5057 15.0055 20.5057 14.6575C20.5057 14.3095 20.2236 14.0274 19.8756 14.0274H19.4814C19.4063 12.9308 20.2755 12 21.3747 12H44.693C45.8 12 46.6756 12.9376 46.5999 14.042H46.1297C45.7858 14.042 45.5069 14.3209 45.5069 14.6649C45.5069 15.0088 45.7858 15.2877 46.1297 15.2877H46.5146L44.1277 50.1367C44.0558 51.1857 43.1839 52 42.1324 52Z" fill="white" stroke="#1C4D99" stroke-width="2" stroke-linecap="round" stroke-linejoin="round"/>
<path d="M42.1332 52H23.949C22.8979 52 22.0261 51.1863 21.9538 50.1376L20.9863 36.1096C20.9863 36.1096 28.2562 37.2055 33.0411 37.2055C37.826 37.2055 45.0959 36.1096 45.0959 36.1096L44.1284 50.1376C44.0561 51.1863 43.1843 52 42.1332 52Z" fill="#B7D3AE" stroke="#1C4D99" stroke-width="2" stroke-linecap="round" stroke-linejoin="round"/>
<path d="M39.0685 12C39.0685 13.4532 38.4912 14.847 37.4636 15.8746C36.436 16.9022 35.0423 17.4795 33.5891 17.4795C32.1358 17.4795 30.7421 16.9022 29.7145 15.8746C28.6869 14.847 28.1096 13.4532 28.1096 12L39.0685 12Z" fill="#1C4D99"/>
<ellipse cx="33.0411" cy="35.5618" rx="6.0274" ry="7.12329" fill="#74AB63"/>
</svg>
