<svg width="64" height="64" viewBox="0 0 64 64" fill="none" xmlns="http://www.w3.org/2000/svg">
<path d="M11.0489 15.2088C11.959 13.4723 11.6238 10.4731 8.9429 10.8487C6.26204 11.2243 7.49571 15.1517 8.44765 17.0684C8.46201 17.1708 8.48086 17.2673 8.50053 17.3637L8.58409 17.8304L11.1109 17.8304C10.9818 16.8749 10.7196 15.9317 11.0489 15.2088Z" fill="#B7D3AE"/>
<path d="M25.9424 14.1346C25.025 12.3842 25.363 9.36095 28.0653 9.73958C30.7676 10.1182 29.5241 14.077 28.5645 16.0091C28.55 16.1124 28.531 16.2097 28.5112 16.3068L28.427 16.7773L25.8799 16.7773C26.0101 15.8141 26.2744 14.8633 25.9424 14.1346Z" fill="#B7D3AE"/>
<path d="M16.9919 14.1212C16.0834 12.3877 16.4181 9.39376 19.0943 9.76872C21.7704 10.1437 20.5389 14.0641 19.5886 15.9775C19.5743 16.0798 19.5555 16.1761 19.5359 16.2723L19.4524 16.7382L16.93 16.7382C17.059 15.7844 17.3207 14.8428 16.9919 14.1212Z" fill="#B7D3AE"/>
<path d="M14.3623 13.3492C12.108 13.0333 11.6681 15.328 12.2598 16.9332C12.3532 17.1867 12.6063 17.3346 12.8764 17.3346C13.4624 17.3346 14.2227 17.3347 15.5392 17.3346C16.0378 15.5789 16.1069 13.5936 14.3623 13.3492Z" fill="#B7D3AE"/>
<path d="M23.9661 12.9899C21.2319 12.6069 20.7292 15.4346 21.4818 17.3573C21.5802 17.6088 21.8325 17.7569 22.1026 17.7569C22.8155 17.7569 23.7339 17.7572 25.3738 17.757C25.9702 15.657 26.0529 13.2823 23.9661 12.9899Z" fill="#B7D3AE"/>
<path d="M7.17832 17.4799C6.02463 15.157 4.5295 10.3973 7.77853 9.94203C11.0276 9.48681 11.4339 13.1217 10.3309 15.2262C9.93176 16.1023 10.2495 17.2455 10.406 18.4035C9.49806 18.4036 8.12764 18.4035 7.34367 18.4035M7.17832 17.4799C7.22259 17.7958 7.30208 18.0651 7.34367 18.4035M7.17832 17.4799L7.34367 18.4035" stroke="#1C4D99" stroke-width="2" stroke-linecap="round" stroke-linejoin="round"/>
<path d="M27.7224 16.6689C28.8761 14.3459 30.3713 9.58622 27.1222 9.131C23.8732 8.67577 23.4669 12.3106 24.5698 14.4152C24.969 15.2912 24.6512 16.4344 24.4947 17.5924C25.4027 17.5925 26.7731 17.5925 27.5571 17.5924M27.7224 16.6689C27.6782 16.9848 27.5987 17.254 27.5571 17.5924M27.7224 16.6689L27.5571 17.5924" stroke="#1C4D99" stroke-width="2" stroke-linecap="round" stroke-linejoin="round"/>
<path d="M18.802 16.6689C19.9557 14.3459 21.4508 9.58622 18.2018 9.131C14.9528 8.67577 14.5464 12.3106 15.6494 14.4152C16.0486 15.2912 15.7308 16.4344 15.5743 17.5924C16.4823 17.5925 17.8527 17.5925 18.6367 17.5924M18.802 16.6689C18.7578 16.9848 18.6783 17.254 18.6367 17.5924M18.802 16.6689L18.6367 17.5924" stroke="#1C4D99" stroke-width="2" stroke-linecap="round" stroke-linejoin="round"/>
<path d="M13.5189 12.7523C10.4671 12.3246 9.92334 15.5058 10.7827 17.6376C10.8837 17.8881 11.1357 18.0364 11.4057 18.0364C12.2027 18.0364 13.2249 18.0367 15.0794 18.0364C15.7405 15.7086 15.8322 13.0764 13.5189 12.7523Z" stroke="#1C4D99" stroke-width="2" stroke-linecap="round" stroke-linejoin="round"/>
<path d="M22.4268 12.7523C19.3749 12.3246 18.8312 15.5058 19.6905 17.6376C19.7915 17.8881 20.0435 18.0364 20.3136 18.0364C21.1106 18.0364 22.1327 18.0367 23.9873 18.0364C24.6484 15.7086 24.74 13.0764 22.4268 12.7523Z" stroke="#1C4D99" stroke-width="2" stroke-linecap="round" stroke-linejoin="round"/>
<rect x="20.0299" y="49.3586" width="40.5473" height="3.24378" stroke="#1C4D99" stroke-width="2" stroke-linejoin="round"/>
<rect x="5" y="39.9998" width="23.942" height="5.44136" fill="#B7D3AE"/>
<rect x="17" y="45.9998" width="4" height="8" fill="#B7D3AE"/>
<path d="M17 22.9998H28.5L19 33.9998H17V22.9998Z" fill="#B7D3AE"/>
<rect x="5.43286" y="18.5427" width="23.942" height="4.35309" stroke="#1C4D99" stroke-width="2" stroke-linejoin="round"/>
<rect x="5.43286" y="34.3225" width="23.942" height="11.4269" stroke="#1C4D99" stroke-width="2" stroke-linejoin="round"/>
<rect x="5.43286" y="37.5879" width="23.942" height="5.44136" stroke="#1C4D99" stroke-width="2" stroke-linejoin="round"/>
<rect x="11.4183" y="37.5879" width="5.9855" height="5.44136" stroke="#1C4D99" stroke-width="2" stroke-linejoin="round"/>
<rect x="17.4038" y="37.5879" width="5.9855" height="5.44136" stroke="#1C4D99" stroke-width="2" stroke-linejoin="round"/>
<rect x="8.69763" y="45.7495" width="5.44136" height="3.26482" stroke="#1C4D99" stroke-width="2" stroke-linejoin="round"/>
<rect x="20.1245" y="45.7495" width="5.44136" height="3.26482" stroke="#1C4D99" stroke-width="2" stroke-linejoin="round"/>
<rect x="5.43286" y="49.0144" width="8.70617" height="3.26482" stroke="#1C4D99" stroke-width="2" stroke-linejoin="round"/>
<rect x="14.139" y="45.7495" width="5.9855" height="9.25031" stroke="#1C4D99" stroke-width="2" stroke-linejoin="round"/>
<path d="M20.6687 31.4692L29.2416 22.8963" stroke="#1C4D99" stroke-width="2" stroke-linecap="round"/>
<path d="M14.0057 31.4692L5.43282 22.8963" stroke="#1C4D99" stroke-width="2" stroke-linecap="round"/>
<path d="M14.139 34.3225L14.139 31.6018" stroke="#1C4D99" stroke-width="2" stroke-linecap="round"/>
<path d="M20.6692 34.3225L20.6692 31.6018" stroke="#1C4D99" stroke-width="2" stroke-linecap="round"/>
<path d="M45.5 40.9998C47.813 40.9998 49.4717 44.9337 50.3302 47.5999C50.7224 48.8179 49.786 49.9998 48.5064 49.9998H42.4936C41.214 49.9998 40.2776 48.8179 40.6698 47.5999C41.5283 44.9337 43.187 40.9998 45.5 40.9998Z" fill="#B7D3AE"/>
<path d="M43.5472 40.6274C44.8234 40.6274 46.0704 41.5304 47.2367 43.0845C48.3758 44.6024 49.2672 46.5198 49.8666 48.0454C50.0683 48.5597 49.7072 49.1694 49.0199 49.1694H38.0746C37.3873 49.1694 37.0263 48.5597 37.2279 48.0454C37.8272 46.5198 38.7187 44.6024 39.8578 43.0845C41.0241 41.5303 42.2711 40.6275 43.5472 40.6274Z" stroke="#1C4D99" stroke-width="2"/>
<circle cx="43.1418" cy="43.2768" r="0.405473" fill="#1C4D99"/>
<circle cx="45.5747" cy="44.8986" r="0.405473" fill="#1C4D99"/>
<circle cx="43.9528" cy="44.8986" r="0.405473" fill="#1C4D99"/>
<circle cx="44.7637" cy="43.2768" r="0.405473" fill="#1C4D99"/>
<circle cx="43.1418" cy="46.5205" r="0.405473" fill="#1C4D99"/>
<circle cx="47.1966" cy="47.3313" r="0.405473" fill="#1C4D99"/>
<circle cx="45.5747" cy="46.5205" r="0.405473" fill="#1C4D99"/>
</svg>
