<svg width="500" height="500" viewBox="0 0 500 500" fill="none" xmlns="http://www.w3.org/2000/svg">
<path d="M301.858 133.673C284.513 133.673 269.785 126.647 255.909 126.647C245.826 126.647 238.476 134.202 238.476 143.11C238.476 146.99 237.8 149.254 232.508 149.254H211.165C212.429 138.671 215.428 130.498 222.925 123.678C231.068 116.328 241.328 112.889 251.264 112.889C273.754 112.889 291.422 128.293 310.56 128.293V117.534C294.068 117.534 275.664 102.335 251.264 102.335C238.035 102.335 225.541 106.656 215.281 115.917C203.669 126.441 200.788 139.024 199.73 149.225H189.675V160.19H198.877C198.083 171.655 197.201 183.15 196.349 194.644H208.784V203.787C214.017 205.14 223.366 207.197 223.366 213.195C223.366 218.751 214.017 220.985 208.784 221.955V250.853C215.046 252.5 219.015 253.47 227.922 253.47C231.127 253.47 235.183 252.999 237.8 252.5V268.286H249.206V238.271C244.708 240.799 236.271 242.534 228.716 242.534C226.188 242.534 221.925 242.269 220.191 241.858V229.51C228.775 226.718 234.978 221.514 234.978 213.224C234.978 203.67 227.805 198.878 220.191 196.291V183.738H208.608C209.078 177.417 209.754 167.863 210.283 160.249H250.853C250.853 160.249 248.589 151.665 248.589 148.666C248.589 143.286 252.264 141.023 259.848 141.023C264.934 141.023 268.433 141.963 279.633 141.963C292.245 141.963 302.916 140.199 311.883 135.672V132.879C308.237 133.526 305.327 133.732 301.829 133.732L301.858 133.673Z" fill="white"/>
<path fill-rule="evenodd" clip-rule="evenodd" d="M170.038 396.549V350.629H152.869L138.464 386.524L124.735 350.629H107.538V396.549H118.709V362.036L132.35 396.549H144.403L158.778 362.036V396.549H170.038Z" fill="white"/>
<path fill-rule="evenodd" clip-rule="evenodd" d="M221.778 396.55V388.377H206.991C197.172 388.377 191.704 386.554 190.793 377.735H221.778V369.621H190.793C191.145 367.005 191.292 364.3 193.291 362.183C194.379 361.007 195.614 360.214 197.26 359.626C199.671 358.891 204.051 358.832 206.52 358.832H221.807V350.601H201.993C197.672 350.601 193.056 350.895 189.352 352.805C180.915 357.186 177.534 365.211 177.534 373.208C177.534 381.204 180.915 391.875 191.175 394.962C195.702 396.344 201.758 396.55 206.55 396.55H221.837H221.778Z" fill="white"/>
<path fill-rule="evenodd" clip-rule="evenodd" d="M282.485 383.026C282.485 378.263 280.456 373.089 274.988 370.855C271.02 369.238 266.904 369.12 262.641 369.12H253.792C249.353 369.12 243.738 368.885 243.738 363.888C243.738 358.214 249.736 358.831 254.763 358.831H279.369V350.6H252.117C246.619 350.6 240.475 350.453 236.065 353.657C232.655 356.126 230.686 360.448 230.686 364.182C230.686 369.003 233.772 374.177 239.387 375.999C242.474 376.97 246.531 377.234 249.735 377.234H259.878C262.435 377.234 265.552 377.381 267.462 379.057C268.697 380.086 269.432 381.526 269.432 383.055C269.432 388.288 263.112 388.376 258.467 388.376H233.331V396.549H261.024C267.698 396.549 274.224 396.901 278.869 392.168C281.338 389.611 282.455 386.201 282.455 382.996L282.485 383.026Z" fill="white"/>
<path fill-rule="evenodd" clip-rule="evenodd" d="M340.81 383.026C340.81 378.263 338.723 373.089 333.284 370.855C329.345 369.238 325.2 369.12 320.908 369.12H312.089C307.62 369.12 302.005 368.885 302.005 363.888C302.005 358.214 308.061 358.831 313.088 358.831H337.665V350.6H310.442C304.945 350.6 298.83 350.453 294.391 353.657C290.981 356.126 288.982 360.448 288.982 364.182C288.982 369.003 292.069 374.177 297.742 375.999C300.8 376.97 304.827 377.234 308.09 377.234H318.174C320.732 377.234 323.877 377.381 325.759 379.057C327.052 380.086 327.787 381.526 327.787 383.055C327.787 388.288 321.437 388.376 316.822 388.376H291.657V396.549H319.379C326.023 396.549 332.579 396.901 337.194 392.168C339.664 389.611 340.84 386.201 340.84 382.996L340.81 383.026Z" fill="white"/>
<path fill-rule="evenodd" clip-rule="evenodd" d="M392.198 396.55V388.377H377.381C367.592 388.377 362.124 386.554 361.183 377.735H392.198V369.621H361.183C361.536 367.005 361.683 364.3 363.682 362.183C364.77 361.007 366.004 360.214 367.621 359.626C370.032 358.891 374.412 358.832 376.882 358.832H392.198V350.601H372.354C368.062 350.601 363.447 350.895 359.713 352.805C351.276 357.186 347.895 365.211 347.895 373.208C347.895 381.204 351.305 391.875 361.536 394.962C366.063 396.344 372.119 396.55 376.882 396.55H392.198Z" fill="white"/>
<path fill-rule="evenodd" clip-rule="evenodd" d="M70.1729 340.81V294.891H58.5019V313.647H37.159V294.891H25.4293V340.81H37.159V321.819H58.5019V340.81H70.1729Z" fill="white"/>
<path fill-rule="evenodd" clip-rule="evenodd" d="M135.201 340.811L112.388 294.862H98.924L76.1112 340.811H89.8401L95.1317 330.139H116.122L121.413 340.811H135.23H135.201ZM113.476 321.996H97.7775L105.627 305.857L113.476 321.996Z" fill="white"/>
<path fill-rule="evenodd" clip-rule="evenodd" d="M189.234 340.81V294.891H178.093V329.11L156.191 294.891H141.139V340.81H152.399V307.15L174.8 340.81H189.234Z" fill="white"/>
<path fill-rule="evenodd" clip-rule="evenodd" d="M248.589 340.81V294.891H237.418V329.11L215.516 294.891H200.464V340.81H211.724V307.15L234.125 340.81H248.589Z" fill="white"/>
<path fill-rule="evenodd" clip-rule="evenodd" d="M311.265 318.409C311.265 303.005 303.151 294.567 284.102 294.567C265.052 294.567 256.879 302.652 256.879 318.056C256.879 324.759 258.937 332.344 265.757 336.577C270.902 339.84 278.634 341.046 284.925 341.046C302.652 341.046 311.265 332.932 311.265 318.38V318.409ZM298.36 317.674C298.36 326.053 295.949 333.373 284.219 333.373C272.489 333.373 269.902 326.229 269.902 317.704C269.902 309.178 272.46 302.299 284.19 302.299C295.92 302.299 298.36 309.237 298.36 317.674Z" fill="white"/>
<path fill-rule="evenodd" clip-rule="evenodd" d="M370.737 294.891H357.538L341.045 329.433L324.847 294.891H311.647L334.901 340.81H346.602L370.737 294.891Z" fill="white"/>
<path fill-rule="evenodd" clip-rule="evenodd" d="M414.57 340.81V332.579H399.753C389.964 332.579 384.496 330.815 383.555 321.996H414.57V313.882H383.555C383.908 311.236 384.055 308.561 386.083 306.444C387.171 305.268 388.405 304.416 390.022 303.886C392.433 303.093 396.813 303.063 399.283 303.063H414.599V294.891H394.755C390.463 294.891 385.848 295.126 382.114 297.066C373.707 301.505 370.296 309.472 370.296 317.468C370.296 325.464 373.707 336.165 383.937 339.223C388.464 340.604 394.52 340.84 399.312 340.84H414.628L414.57 340.81Z" fill="white"/>
<path fill-rule="evenodd" clip-rule="evenodd" d="M475.071 340.811C474.571 339.517 474.218 338.4 474.042 337.077C473.659 333.932 473.806 330.639 472.307 327.582C470.338 323.584 468.515 322.466 463.752 321.026C471.249 319.056 474.247 313.97 474.247 307.679C474.247 302.153 470.367 297.39 463.899 295.861C460.019 294.979 455.639 294.862 451.582 294.862H424.653V340.811H436.383V323.378H445.79C455.991 323.378 459.607 325.7 460.695 334.255C460.989 336.43 461.077 338.635 461.93 340.811H475.071ZM461.342 308.855C461.342 313.735 458.196 315.146 452.816 315.146H436.383V303.034H452.816C457.696 303.034 461.342 304.063 461.342 308.855Z" fill="white"/>
</svg>
