<svg width="500" height="295" viewBox="0 0 500 295" fill="none" xmlns="http://www.w3.org/2000/svg">
<g clip-path="url(#clip0_809_27849)">
<path d="M142.288 52.4918C142.288 38.4174 142.396 24.3789 142.216 10.3045C142.18 7.00131 143.437 5.0984 146.237 3.76995C153.131 0.394965 160.276 -0.35902 167.672 1.75932C169.898 2.40559 170.257 2.80054 170.257 5.24201C170.293 12.2792 170.078 19.3164 170.329 26.3177C171.155 49.5117 170.616 72.7417 170.76 95.9716C170.76 96.5461 170.76 97.1205 170.832 97.695C170.939 98.8439 171.622 99.4543 172.77 99.562C173.489 99.6338 174.243 99.6338 174.961 99.6338C188.281 99.6338 201.601 99.562 214.958 99.7056C217.866 99.7056 219.338 98.6644 220.595 96.1511C233.269 70.5156 246.051 44.916 258.832 19.3164C260.843 15.2952 263.285 11.4893 266.444 8.22205C270.501 4.05718 275.348 1.29257 281.093 0.323158C285.186 -0.35902 289.243 0.179541 293.085 1.75932C294.485 2.33379 295.131 3.55452 295.778 4.81117C298.219 9.62231 300.589 14.4694 303.066 19.2805C307.985 28.9028 312.94 38.4892 317.823 48.0756C321.772 55.7949 325.65 63.5502 329.564 71.2696C333.692 79.4198 337.857 87.6059 342.022 95.7562C342.274 96.2588 342.597 96.7615 342.812 97.2641C343.602 99.0952 344.966 99.7056 346.905 99.6697C354.266 99.5979 361.626 99.6697 368.986 99.6697C373.797 99.6697 378.644 99.6697 383.456 99.6697C386.759 99.6697 387.118 99.3107 387.118 96.0075C387.118 80.1379 387.118 64.2683 387.118 48.4346C387.118 35.6887 387.19 22.9427 387.046 10.1609C387.046 7.28855 388.159 5.56515 390.565 4.30851C397.709 0.538582 405.106 -0.35902 412.861 2.04655C414.189 2.4774 414.979 3.23139 415.015 4.63165C415.015 4.88297 415.015 5.1343 415.015 5.34973C415.554 25.9587 415.769 46.5317 415.446 67.1406C415.195 82.6512 415.626 98.1976 415.661 113.708C415.661 123.007 420.437 129.614 429.018 133.312C434.188 135.538 439.645 136.471 445.211 136.938C457.167 137.943 468.871 136.328 480.217 132.558C486.68 130.439 491.024 132.271 495.045 138.123C496.948 140.923 498.241 144.011 499.497 147.135C500.323 149.146 500.108 149.648 498.025 150.474C490.773 153.274 483.269 155.249 475.585 156.578C464.347 158.552 453.002 158.947 441.62 158.481C430.274 158.014 419.252 155.86 409.055 150.474C400.438 145.914 394.334 139.2 390.636 130.26C390.062 128.824 389.523 127.352 389.057 125.88C388.626 124.515 387.8 123.833 386.4 123.833C385.179 123.833 383.958 123.797 382.737 123.797C375.628 123.797 368.519 123.797 361.41 123.797C360.692 123.797 359.938 123.797 359.22 123.797C357.066 123.941 356.779 124.408 357.784 126.418C361.877 134.533 365.97 142.611 370.063 150.689C370.279 151.12 370.53 151.551 370.71 152.018C371.033 152.915 370.71 153.454 369.776 153.598C369.202 153.669 368.627 153.705 368.053 153.705C359.795 153.705 351.537 153.634 343.279 153.741C340.73 153.741 339.329 152.844 338.252 150.474C335.093 143.652 331.646 136.974 328.307 130.224C327.697 128.967 327.05 127.747 326.512 126.454C325.722 124.623 324.429 123.582 322.311 123.761C321.413 123.833 320.516 123.761 319.618 123.761C298.758 123.761 277.933 123.761 257.073 123.761C255.996 123.761 254.919 123.761 253.878 123.618C252.657 123.438 252.226 122.72 252.477 121.499C252.585 120.961 252.837 120.422 253.088 119.884C255.888 114.139 258.725 108.466 261.418 102.686C262.459 100.46 263.895 99.5979 266.372 99.6338C280.447 99.7056 294.485 99.6697 308.56 99.6697C309.457 99.6697 310.355 99.6697 311.252 99.562C312.437 99.3825 312.724 98.808 312.33 97.6591C312.186 97.2641 311.971 96.9051 311.791 96.5461C309.242 91.34 306.657 86.1339 304.108 80.9278C296.388 65.1659 288.633 49.3681 280.913 33.5703C280.554 32.8522 280.195 32.0983 279.765 31.4161C279.298 30.6262 278.723 30.698 278.257 31.4161C277.933 31.8828 277.682 32.4214 277.431 32.924C269.316 49.5117 261.094 66.0635 253.088 82.723C249.102 91.0527 244.902 99.2748 240.88 107.605C234.31 121.14 227.74 134.64 221.133 148.176C220.595 149.289 219.948 150.33 219.482 151.479C218.835 153.059 217.686 153.669 216.035 153.669C208.854 153.669 201.637 153.669 194.457 153.669C192.302 153.669 192.051 153.167 193.092 151.084C196.252 144.729 199.447 138.374 202.607 131.983C203.54 130.08 204.51 128.178 205.407 126.239C206.269 124.3 206.018 123.905 203.971 123.761C203.576 123.761 203.145 123.761 202.75 123.761C193.415 123.761 184.116 123.761 174.781 123.761C174.135 123.761 173.489 123.761 172.806 123.833C171.55 123.905 170.868 124.587 170.76 125.844C170.724 126.67 170.688 127.459 170.688 128.285C170.688 135.251 170.688 142.18 170.724 149.146C170.724 149.864 170.724 150.618 170.724 151.336C170.58 153.562 170.149 154.064 167.887 154.1C162.969 154.172 158.086 154.1 153.167 154.1C150.618 154.1 148.104 154.1 145.555 154.1C142.683 154.064 142.252 153.669 142.216 150.833C142.18 147.709 142.216 144.622 142.216 141.498C142.216 136.687 142.216 131.84 142.216 127.029C142.216 124.156 141.785 123.725 138.949 123.725C132.091 123.725 125.198 123.725 118.34 123.725C115.647 123.725 115.324 124.013 114.57 126.598C111.051 138.374 103.44 146.56 92.4172 151.731C84.4824 155.465 76.0808 157.26 67.3561 158.122C59.9958 158.84 52.6354 158.732 45.311 158.445C32.0265 157.906 19.0292 155.429 6.49872 150.797C6.03197 150.618 5.60112 150.438 5.13437 150.259C4.12906 149.864 3.69821 149.11 4.12906 148.104C5.99607 143.401 7.82718 138.662 11.4894 134.928C14.5771 131.768 18.1675 131.05 22.2965 132.235C27.0718 133.671 31.847 135.071 36.8018 135.789C41.577 136.507 46.3163 137.01 51.1634 136.974C56.4772 136.938 61.791 136.902 67.033 135.861C71.8082 134.927 76.3321 133.384 80.4611 130.763C88.5754 125.664 92.3094 116.078 89.6166 106.886C88.001 101.393 83.9797 98.2336 78.989 96.0793C73.8548 93.8533 68.4332 92.5966 63.0117 91.34C56.2259 89.7961 49.44 88.3958 42.69 86.7083C34.109 84.5541 25.6715 82.0767 17.9521 77.5169C6.85777 71.0183 0.969498 61.2883 0.107801 48.3987C-0.466664 39.5663 0.933594 31.0929 5.56522 23.4095C10.5559 15.1156 18.0957 9.98135 26.9281 6.60637C34.8988 3.55452 43.2286 1.90294 51.7738 1.40028C55.9386 1.14895 60.1035 1.00533 64.2684 1.04124C76.5835 1.14895 88.6831 3.01596 100.603 5.996C102.506 6.46275 102.865 7.10903 102.183 9.04785C101.034 12.2074 99.7775 15.2952 98.0541 18.2034C96.4384 20.9321 94.3919 23.23 91.4118 24.4866C89.4012 25.3124 87.3906 25.7432 85.2004 25.2765C78.7736 23.9839 72.3109 23.0504 65.7763 22.7273C60.9652 22.5119 56.154 22.476 51.3429 22.9068C47.4294 23.23 43.5517 23.8044 39.7818 24.9533C36.7659 25.8509 34.0371 27.2153 31.488 29.0823C26.2101 32.9241 23.9481 40.6434 25.5638 47.1421C26.9281 52.7072 30.4108 56.4412 35.4374 58.9545C39.315 60.9292 43.444 62.2936 47.6448 63.4066C54.287 65.1659 61.037 66.4225 67.7511 67.7869C77.6247 69.7616 87.3906 72.1672 96.5102 76.6193C104.158 80.3533 110.333 85.5953 113.78 93.6019C114.247 94.715 114.606 95.8998 115.001 97.0487C115.719 99.1671 116.114 99.5261 118.34 99.562C121.284 99.6338 124.228 99.562 127.172 99.562C131.086 99.562 135.035 99.562 138.949 99.562C141.929 99.562 142.288 99.1671 142.36 96.1152C142.36 95.9357 142.36 95.7921 142.36 95.6126C142.36 81.215 142.36 66.8175 142.36 52.4559L142.288 52.4918Z" fill="#18161C"/>
<path d="M493.071 167.816H483.485C479.607 167.852 479.32 168.104 479.32 172.053V198.299C479.32 199.125 479.356 199.951 479.248 200.74C479.068 202.069 478.53 202.284 477.489 201.423C475.909 200.094 474.185 199.053 472.283 198.227C469.051 196.791 465.64 196.719 462.194 196.755C458.316 196.791 454.69 197.868 451.494 199.879C440.543 206.88 437.707 217.328 439.538 229.033C440.472 234.993 443.595 239.84 448.119 243.789C453.612 248.565 460.039 250.396 467.22 249.462C471.026 248.96 474.473 247.523 477.273 244.795C478.35 243.789 478.745 243.933 479.212 245.19C480.11 247.703 480.146 247.739 482.838 247.775C486.177 247.811 489.552 247.811 492.891 247.775C496.805 247.775 497.02 247.523 497.02 243.574C497.056 231.654 497.02 219.698 497.02 207.778V191.334C497.02 184.799 497.056 178.264 497.02 171.73C497.02 168.14 496.697 167.852 493.071 167.816ZM468.513 234.203C461.691 234.275 457.346 229.751 457.382 223.18C457.418 217.184 461.188 212.481 468.333 212.122C475.622 212.553 479.463 216.538 479.535 223.216C479.607 229.823 475.047 234.167 468.513 234.203Z" fill="#18161C"/>
<path d="M416.308 200.74C406.685 195.498 396.417 195.247 386.184 199.053C379.326 201.638 374.156 206.269 371.392 213.235C369.632 217.723 369.309 222.354 369.919 227.166C370.961 235.28 375.161 241.276 382.055 245.153C391.785 250.683 402.09 251.149 412.574 247.38C416.451 245.979 420.006 243.825 422.77 240.737C427.222 235.711 429.592 229.858 429.413 224.975C429.341 213.055 424.96 205.444 416.308 200.74ZM399.469 234.167C392.503 234.167 388.374 229.715 388.446 223.18C388.482 216.502 392.467 212.588 399.433 212.158C406.003 212.409 410.491 216.358 410.491 223.072C410.527 230.576 405.824 234.203 399.469 234.167Z" fill="#18161C"/>
<path d="M360.262 217.578C358.933 210.972 355.451 205.802 349.922 202.068C344.249 198.262 337.965 196.467 330.641 196.79C326.979 196.467 322.993 197.113 319.08 198.477C314.448 200.093 310.283 202.535 307.088 206.305C302.097 212.229 300.158 219.122 301.2 226.842C302.385 235.53 306.944 241.921 314.664 245.835C324.645 250.897 334.95 251.041 345.254 246.804C349.06 245.26 352.471 242.963 355.092 239.695C360.298 233.125 361.913 225.765 360.262 217.578ZM330.892 234.238C324.035 233.987 319.762 229.534 319.762 223.287C319.762 217.04 323.747 212.193 330.928 212.193C338.109 212.193 341.915 216.789 342.023 223.323C341.987 229.499 337.104 234.453 330.892 234.238Z" fill="#18161C"/>
<path d="M164.369 226.268C165.123 226.196 165.841 226.196 166.595 226.196H195.534C198.909 226.16 199.268 225.729 199.303 222.319C199.303 220.164 199.088 218.046 198.585 215.999C196.539 207.203 191.297 201.243 182.716 198.191C177.797 196.432 172.699 196.36 167.672 196.934C158.911 197.904 151.838 201.925 147.638 210.039C144.981 215.138 144.406 220.667 144.873 226.268C145.627 235.459 150.079 242.389 158.373 246.446C165.841 250.108 173.776 250.503 181.782 248.636C187.132 247.415 191.62 244.687 195.067 240.378C196.467 238.655 197.616 236.788 198.19 234.598C198.585 233.054 198.155 232.479 196.611 232.228C196.216 232.156 195.821 232.156 195.39 232.156L184.619 232.264C182.895 232.3 181.423 232.874 180.238 234.167C179.52 234.957 178.73 235.639 177.689 236.034C174.314 237.291 170.903 237.111 167.672 235.711C164.405 234.31 163.04 231.51 162.825 228.063C162.789 226.914 163.328 226.376 164.369 226.268ZM163.938 213.235C164.584 212.086 165.446 211.116 166.487 210.327C170.042 207.706 177.582 207.347 181.208 212.445C181.423 212.696 181.639 212.948 181.782 213.235C182.608 214.815 182.141 215.748 180.346 215.856C178.228 215.963 176.109 215.892 173.991 215.928H172.77C170.329 215.892 167.887 215.964 165.446 215.892C163.435 215.82 163.004 214.994 163.938 213.235Z" fill="#18161C"/>
<path d="M40.2486 223.036C40.2486 216.322 40.2486 209.644 40.2486 202.93C40.2486 202.212 40.2486 201.458 40.2845 200.74C40.4281 199.053 40.859 198.442 42.5106 198.406C46.855 198.334 51.1635 198.299 55.5079 198.406C57.2312 198.442 57.698 199.053 57.9134 200.884C57.9852 201.386 57.9493 201.853 58.0211 202.356C58.0211 202.679 58.1289 203.038 58.452 203.182C58.9187 203.361 59.2419 203.074 59.4932 202.751C60.8217 201.027 62.5091 199.771 64.4121 198.765C66.7458 197.509 69.2232 196.755 71.916 196.826C74.932 196.898 77.9479 196.647 80.892 197.58C86.8162 199.483 90.263 203.612 91.735 209.501C92.5249 212.66 92.7404 215.963 92.7763 219.231C92.8481 227.489 92.7763 235.746 92.7763 244.004C92.7763 244.507 92.7763 244.974 92.7404 245.477C92.5608 247.128 92.0941 247.774 90.4784 247.81C86.134 247.882 81.8255 247.882 77.4811 247.81C75.7577 247.81 75.2551 247.164 75.1115 245.333C75.0397 244.507 75.1115 243.717 75.0756 242.891C75.0038 235.711 75.2192 228.53 74.932 221.313C74.8601 219.41 74.5729 217.579 73.9984 215.784C73.2445 213.306 71.557 211.798 68.9719 211.296C63.2631 210.183 59.1342 213.199 58.3802 218.943C58.0211 221.78 57.8775 224.616 57.8775 227.489C57.8775 233.197 57.8775 238.942 57.8775 244.651C57.8775 247.308 57.3749 247.81 54.718 247.846C50.948 247.882 47.214 247.882 43.4441 247.846C40.7513 247.846 40.2845 247.344 40.2486 244.687C40.2127 237.506 40.2486 230.289 40.2486 223.108V223.036Z" fill="#18161C"/>
<path d="M263.967 230.289C263.967 226.196 263.967 222.103 263.967 218.046C263.967 217.4 263.967 216.753 263.967 216.071C263.859 213.63 263.536 213.271 261.13 213.019C258.509 212.732 258.15 212.409 258.114 209.896C258.078 207.023 258.043 204.187 258.114 201.315C258.186 199.125 258.653 198.658 260.879 198.371C263.715 197.976 263.895 197.76 263.967 194.78C264.038 191.764 263.895 188.712 264.218 185.732C264.828 179.736 267.629 174.817 272.404 171.227C276.82 167.888 281.883 166.165 287.52 166.452C289.171 166.524 290.751 166.919 292.295 167.457C293.588 167.924 294.306 168.821 294.342 170.222C294.342 173.884 294.413 177.582 294.342 181.244C294.342 183.039 293.767 183.327 291.972 182.86C291.038 182.609 290.105 182.25 289.135 182.07C286.048 181.46 283.427 183.075 282.529 186.055C281.56 189.323 281.524 192.662 281.739 196.037C281.847 197.652 282.421 198.191 284.073 198.299C286.371 198.406 288.633 198.299 290.931 198.371C293.875 198.442 294.377 198.909 294.413 201.817C294.449 204.51 294.449 207.203 294.413 209.896C294.377 212.517 293.875 212.983 291.182 213.019C289.387 213.055 287.592 213.019 285.796 213.019C281.991 213.019 281.703 213.307 281.703 217.041C281.703 224.401 281.703 231.761 281.703 239.122C281.703 241.096 281.739 243.035 281.703 245.01C281.631 247.272 281.165 247.775 278.903 247.81C274.917 247.882 270.896 247.882 266.875 247.81C264.613 247.81 264.11 247.272 264.074 245.01C264.003 240.091 264.074 235.208 264.074 230.289H263.967Z" fill="#18161C"/>
<path d="M23.5891 211.763C23.5891 222.39 23.5891 233.018 23.5891 243.609C23.5891 247.523 23.3377 247.774 19.4242 247.774C15.5825 247.774 11.7407 247.774 7.89898 247.774C4.95485 247.774 4.524 247.308 4.4881 244.292C4.4881 241.527 4.4881 238.726 4.4881 235.962C4.4881 217.076 4.4881 198.227 4.4881 179.341C4.4881 175.428 4.73943 175.176 8.65297 175.176C12.4947 175.176 16.3364 175.176 20.1782 175.176C23.1223 175.176 23.5532 175.643 23.5891 178.659C23.5891 189.682 23.5891 200.704 23.5891 211.763Z" fill="#18161B"/>
<path d="M110.441 230.468C110.441 225.801 110.441 221.169 110.441 216.501C110.441 213.521 110.19 213.306 107.317 212.983C105.091 212.732 104.66 212.337 104.625 210.039C104.553 207.095 104.553 204.15 104.625 201.206C104.66 199.016 105.163 198.549 107.389 198.262C110.118 197.903 110.405 197.652 110.441 194.923C110.477 192.158 110.441 189.358 110.477 186.593C110.513 184.008 110.98 183.506 113.457 183.47C117.37 183.434 121.284 183.398 125.233 183.47C127.567 183.47 128.07 184.044 128.106 186.414C128.178 189.286 128.106 192.123 128.142 194.995C128.178 197.652 128.68 198.119 131.301 198.226C132.845 198.262 134.425 198.226 135.969 198.298C137.764 198.406 138.303 198.908 138.338 200.74C138.41 204.007 138.41 207.274 138.338 210.541C138.303 212.301 137.692 212.803 135.897 212.911C134.174 213.019 132.45 212.911 130.763 213.019C128.86 213.126 128.321 213.665 128.178 215.568C128.106 216.968 128.142 218.333 128.142 219.733C128.142 227.488 128.142 235.243 128.142 242.999C128.142 243.717 128.142 244.471 128.106 245.189C127.962 247.092 127.46 247.63 125.521 247.666C121.428 247.738 117.37 247.738 113.277 247.666C111.087 247.666 110.549 247.092 110.513 244.83C110.441 240.019 110.513 235.207 110.513 230.36L110.441 230.468Z" fill="#18161C"/>
<path d="M229.966 204.725C230.971 204.402 231.33 203.72 231.833 203.181C235.854 198.873 240.809 197.113 246.625 197.76C248.708 197.975 249.21 198.406 249.246 200.488C249.318 204.258 249.318 207.992 249.246 211.762C249.246 213.881 248.815 214.132 246.697 213.701C244.22 213.199 241.742 212.768 239.193 213.234C233.807 214.276 230.863 217.507 230.145 223C229.499 228.063 229.678 233.089 229.642 238.152C229.642 240.521 229.678 242.891 229.571 245.261C229.499 247.056 228.96 247.666 227.201 247.702C222.785 247.774 218.369 247.774 213.988 247.702C212.085 247.702 211.619 247.092 211.619 245.045C211.583 241.455 211.619 237.865 211.619 234.274C211.619 223.97 211.619 213.701 211.619 203.397C211.619 202.427 211.619 201.422 211.69 200.453C211.834 198.909 212.265 198.37 213.809 198.334C218.297 198.262 222.785 198.227 227.273 198.334C228.96 198.334 229.427 199.052 229.607 200.883C229.714 202.068 229.463 203.325 229.966 204.653V204.725Z" fill="#18161C"/>
<path d="M44.6646 280.913C44.6646 284.181 44.7005 287.448 44.6646 290.715C44.6286 293.372 44.126 293.695 41.4691 293.911C38.7763 294.126 36.8016 293.264 35.2218 291.002C32.9239 287.735 30.3388 284.647 27.8974 281.488C27.5383 281.021 27.1793 280.59 26.7843 280.159C26.4971 279.872 26.2099 279.477 25.779 279.621C25.3123 279.764 25.2405 280.195 25.2045 280.626C25.1686 281.344 25.1327 282.098 25.1327 282.816C25.1327 285.581 25.1327 288.381 25.0968 291.146C25.025 293.228 24.4865 293.731 22.4399 293.839C21.9373 293.839 21.4705 293.839 20.9679 293.839C18.8854 293.731 18.2751 293.264 18.2392 291.218C18.1674 284.181 18.1674 277.179 18.2392 270.142C18.2392 268.024 18.8136 267.557 20.8602 267.413C21.5782 267.378 22.3322 267.413 23.0503 267.413C24.5583 267.342 25.7072 267.916 26.6407 269.137C29.3335 272.619 32.0622 276.102 34.8268 279.549C35.3654 280.231 35.7962 281.452 36.7657 281.129C37.771 280.806 37.3042 279.549 37.3401 278.687C37.4119 275.923 37.3401 273.122 37.376 270.358C37.4119 267.988 37.9505 267.521 40.2843 267.413C40.5356 267.413 40.7869 267.413 41.0023 267.413C44.2337 267.413 44.6646 267.808 44.7005 271.112C44.7005 274.379 44.7005 277.646 44.7005 280.913H44.6646Z" fill="#18161B"/>
<path d="M255.601 271.434C251.58 267.054 246.554 265.654 240.917 266.659C236.393 267.449 232.766 269.855 230.612 274.127C226.627 282.17 230.828 294.664 244.004 294.844C252.298 294.916 258.653 289.099 258.976 280.877C259.12 277.395 258.079 274.163 255.601 271.434ZM243.968 287.878C240.127 287.735 236.644 284.144 236.644 280.375C236.68 276.784 240.306 273.373 244.148 273.445C248.061 273.481 251.58 276.892 251.472 280.518C251.365 284.216 247.523 287.986 243.968 287.878Z" fill="#18161C"/>
<path d="M407.798 279.585C407.044 280.411 407.296 281.38 407.296 282.242C407.26 285.186 407.295 288.13 407.26 291.074C407.224 293.336 406.721 293.767 404.495 293.91C404.423 293.91 404.315 293.91 404.244 293.91C400.546 294.018 399.971 293.515 399.971 289.781C399.971 283.75 399.971 277.682 399.971 271.65C399.971 270.824 400.007 269.998 400.151 269.208C400.294 268.311 400.869 267.7 401.766 267.593C404.746 267.27 407.511 267.162 409.557 270.214C412.035 273.84 414.943 277.179 417.672 280.662C417.995 281.093 418.246 281.703 419.072 281.739C419.718 281.021 419.503 280.087 419.503 279.262C419.539 276.317 419.503 273.373 419.539 270.429C419.575 268.024 420.113 267.557 422.447 267.485C423.021 267.485 423.596 267.485 424.17 267.521C425.678 267.7 426.145 268.167 426.361 269.639C426.432 270.106 426.432 270.609 426.432 271.111C426.432 277.502 426.432 283.857 426.432 290.248C426.432 290.823 426.432 291.397 426.361 291.972C426.253 293.085 425.607 293.767 424.494 293.875C421.837 294.126 419.395 294.09 417.564 291.433C415.051 287.807 412.143 284.468 409.414 281.021C409.019 280.518 408.732 279.872 407.87 279.621L407.798 279.585Z" fill="#18161C"/>
<path d="M222.713 271.829C219.697 267.88 215.388 266.587 210.613 266.408C206.448 266.336 202.93 267.808 199.949 270.644C194.779 275.527 194.528 284.503 199.231 289.781C202.678 293.659 206.987 295.167 211.977 294.808C217.507 294.377 221.815 291.828 224.185 286.658C226.554 281.452 226.159 276.389 222.713 271.829ZM210.757 287.878C206.664 287.843 203.648 284.647 203.648 280.374C203.36 276.605 206.735 273.553 210.685 273.445C214.598 273.337 218.153 276.712 218.117 280.374C218.081 284.216 214.455 287.878 210.757 287.878Z" fill="#18161C"/>
<path d="M324.501 280.34C323.065 279.334 323.065 279.298 323.891 277.755C326.62 272.584 323.711 267.558 317.931 267.414C315.382 267.378 312.868 267.378 310.319 267.45C307.698 267.486 307.195 267.953 307.16 270.646C307.16 273.877 307.16 277.144 307.16 280.411C307.16 284.002 307.16 287.592 307.195 291.183C307.231 293.122 307.734 293.768 309.386 293.804C313.048 293.983 316.71 294.055 320.372 293.768C321.27 293.696 322.132 293.373 322.957 293.05C325.471 292.08 326.979 290.213 327.194 287.556C327.409 284.792 327.014 282.135 324.501 280.34ZM313.048 275.78C313.084 274.667 313.227 273.626 314.484 273.231C315.561 272.872 317.069 273.338 317.823 274.236C318.613 275.169 318.757 276.642 318.146 277.683C317.536 278.724 315.489 279.658 314.304 279.334C312.796 278.904 313.12 277.575 313.048 276.749V275.78ZM321.126 287.844C320.193 288.885 316.89 289.818 315.058 289.495C312.653 289.064 313.191 287.736 313.048 286.91C313.048 286.407 313.012 286.156 313.048 285.905C313.12 284.828 313.335 283.786 315.346 283.392C317.033 283.032 319.439 283.499 320.624 284.397C321.88 285.33 322.096 286.802 321.126 287.844Z" fill="#18161C"/>
<path d="M134.676 291.434C133.024 289.279 131.373 287.161 129.757 285.007C128.788 283.714 128.824 283.355 130.116 282.422C131.086 281.668 132.163 281.021 132.737 279.872C135.574 274.236 132.845 267.486 125.808 267.414C123.115 267.414 120.422 267.378 117.729 267.45C114.821 267.486 114.354 267.916 114.354 270.896C114.318 277.431 114.354 283.966 114.354 290.5C114.354 291.075 114.354 291.649 114.498 292.188C114.606 293.013 115.108 293.48 115.862 293.731C119.345 294.88 121.212 293.552 121.284 289.997C121.284 288.561 121.068 287.089 121.607 285.33C122.935 286.658 123.689 287.987 124.479 289.279C127.495 294.198 127.136 293.911 133.312 293.875H133.563C134.209 293.803 134.963 293.911 135.286 293.193C135.574 292.475 135.071 291.936 134.676 291.434ZM126.346 277.682C125.736 278.724 123.653 279.657 122.504 279.334C120.996 278.903 121.32 277.575 121.248 276.749C121.248 276.246 121.212 275.995 121.248 275.779C121.284 274.666 121.427 273.625 122.684 273.23C123.761 272.871 125.269 273.338 126.023 274.236C126.813 275.169 126.957 276.641 126.346 277.682Z" fill="#18161C"/>
<path d="M286.981 277.036C285.868 272.296 280.554 266.982 274.307 267.413C273.338 267.485 272.368 267.413 271.363 267.413C269.819 267.449 268.275 267.377 266.731 267.449C264.649 267.557 264.074 268.06 264.039 270.142C264.003 277.143 264.003 284.18 264.039 291.218C264.039 293.264 264.649 293.803 266.731 293.875C269.173 293.946 271.65 293.875 274.092 293.91C276.03 293.946 277.826 293.515 279.549 292.69C285.006 290.033 288.669 284.504 286.981 277.036ZM274.271 287.699C272.404 288.13 271.507 287.591 271.435 285.76C271.327 282.313 271.363 278.903 271.435 275.456C271.435 273.984 272.117 273.481 273.409 273.445C277.395 273.876 279.872 276.246 279.944 280.877C280.016 284.145 277.467 286.981 274.271 287.699Z" fill="#18161C"/>
<path d="M356.24 277.395C356.133 279.98 356.348 282.996 355.845 286.012C355.199 290.105 353.045 292.762 349.131 293.875C345.792 294.808 342.345 294.88 339.006 293.731C335.093 292.403 332.975 289.495 332.795 285.473C332.544 280.339 332.651 275.205 332.687 270.035C332.687 268.096 333.298 267.629 335.236 267.485C335.631 267.485 336.062 267.485 336.457 267.485C339.006 267.557 339.509 267.988 339.581 270.465C339.653 273.481 339.617 276.497 339.581 279.513C339.581 281.344 339.832 283.104 340.299 284.827C340.909 287.125 342.058 288.023 344.32 287.987C346.582 287.987 347.911 286.91 348.449 284.576C348.808 283.14 348.916 281.668 348.916 280.195C348.916 277 348.916 273.84 348.916 270.645C348.952 267.952 349.419 267.485 352.04 267.414C352.111 267.414 352.219 267.414 352.291 267.414C355.809 267.342 356.204 267.737 356.24 271.291C356.24 271.471 356.24 271.614 356.24 271.794C356.24 273.517 356.24 275.241 356.24 277.359V277.395Z" fill="#18161C"/>
<path d="M87.2108 267.413C85.8105 267.378 84.4102 267.413 83.0459 267.413C81.3943 267.449 79.7786 267.377 78.127 267.449C75.7215 267.521 75.1829 267.988 75.1829 270.322C75.1111 277.179 75.1111 284.037 75.147 290.895C75.1829 293.3 75.7215 293.767 78.0552 293.875C81.9688 294.09 82.4714 293.623 82.4714 289.746C82.4714 285.868 82.3996 285.114 86.9235 285.042C92.0937 284.97 95.0738 282.314 95.5046 277.215C96.0073 271.722 93.2426 267.629 87.2108 267.413ZM87.6057 277.682C87.0312 278.723 84.9488 279.657 83.764 279.334C82.256 278.903 82.615 277.574 82.5073 276.748V275.779C82.5073 274.666 82.7228 273.625 83.9794 273.23C85.0206 272.871 86.5286 273.338 87.2826 274.235C88.0725 275.169 88.2161 276.641 87.6057 277.682Z" fill="#18161C"/>
<path d="M59.3138 294.377C56.7287 294.521 54.2872 293.982 52.0252 292.654C50.5173 291.756 50.3377 291.218 50.984 289.674C51.1994 289.135 51.4867 288.632 51.7739 288.166C52.8869 286.299 53.3537 286.155 55.2925 287.16C56.1542 287.627 57.0518 288.022 58.0212 288.237C58.847 288.417 59.6369 288.489 60.4268 288.13C61.4321 287.699 62.4015 287.124 62.3656 285.868C62.3297 284.755 61.4321 284.18 60.4627 283.857C59.0624 283.355 57.6622 282.96 56.2619 282.493C53.4973 281.559 51.4508 279.98 51.2354 276.856C50.984 273.696 51.7021 270.896 54.2872 268.742C56.8364 266.587 59.8164 266.516 62.8683 266.875C64.2326 267.018 65.5611 267.485 66.8895 267.988C68.5052 268.598 68.7565 269.28 68.0744 270.824C67.8948 271.255 67.6435 271.686 67.3922 272.117C66.3151 274.055 66.2073 274.091 64.1249 273.409C62.9401 273.014 61.7552 272.727 60.5345 273.122C59.7446 273.373 58.9906 273.804 58.9547 274.773C58.9188 275.635 59.5292 276.102 60.1755 276.461C60.8217 276.784 61.5398 277 62.222 277.251C63.0837 277.538 63.9454 277.753 64.7712 278.077C69.8696 280.159 71.6289 285.329 68.7924 290.105C67.2127 292.797 64.7353 294.018 61.7552 294.377C60.9654 294.485 60.1396 294.377 59.3138 294.377Z" fill="#18161C"/>
<path d="M370.53 294.378C367.837 294.558 365.324 293.983 363.026 292.619C361.518 291.757 361.375 291.219 362.093 289.603C362.236 289.316 362.38 289.028 362.559 288.741C363.708 286.731 364.247 285.761 366.724 287.341C367.622 287.915 368.699 288.131 369.74 288.31C370.674 288.49 371.535 288.238 372.289 287.736C373.833 286.695 373.869 285.223 372.289 284.217C371.823 283.93 371.248 283.75 370.71 283.571C369.632 283.212 368.519 282.889 367.442 282.53C364.714 281.596 362.667 280.016 362.344 276.893C362.021 273.733 362.775 270.933 365.324 268.743C367.873 266.588 370.853 266.445 373.905 266.84C375.413 267.019 376.921 267.558 378.357 268.132C379.578 268.599 379.757 269.317 379.291 270.502C379.075 271.04 378.788 271.543 378.501 272.01C377.424 273.949 377.352 273.985 375.234 273.374C373.941 273.015 372.684 272.692 371.392 273.231C370.71 273.518 370.063 273.913 370.027 274.774C370.027 275.528 370.53 275.959 371.105 276.282C371.823 276.641 372.577 276.929 373.366 277.216C374.12 277.503 374.946 277.683 375.7 278.006C381.05 280.124 382.809 285.474 379.757 290.357C378.142 292.942 375.628 293.947 372.792 294.378C372.074 294.486 371.32 294.378 370.602 294.378H370.53Z" fill="#18161C"/>
<path d="M486.284 294.413C483.915 294.665 481.617 293.911 479.391 292.726C477.596 291.756 477.416 291.218 478.206 289.423C478.421 288.884 478.709 288.381 478.996 287.915C480.001 286.227 480.396 286.084 482.12 287.053C483.269 287.735 484.489 288.13 485.782 288.346C486.715 288.489 487.577 288.346 488.331 287.771C489.695 286.802 489.695 285.294 488.331 284.324C487.864 284.001 487.326 283.786 486.787 283.606C485.925 283.319 485.064 283.104 484.202 282.816C479.535 281.344 477.919 278.975 478.421 274.271C478.852 270.286 481.94 267.198 485.961 266.803C488.511 266.552 490.988 266.803 493.429 267.665C495.62 268.455 495.907 269.029 494.937 271.076C494.794 271.363 494.65 271.65 494.506 271.937C493.393 274.02 493.322 274.056 491.096 273.374C489.911 273.014 488.726 272.691 487.505 273.086C485.925 273.625 485.674 274.989 486.931 276.066C487.649 276.641 488.511 276.928 489.372 277.143C490.629 277.503 491.85 277.933 492.999 278.58C497.63 281.201 498.528 287.699 494.722 291.541C492.424 293.875 489.552 294.521 486.249 294.377L486.284 294.413Z" fill="#18161C"/>
<path d="M462.839 294.448C460.505 294.52 458.279 294.125 456.161 293.084C453.755 291.899 453.504 291.037 454.833 288.632C454.904 288.488 454.976 288.344 455.084 288.201C456.233 286.298 456.592 286.19 458.603 287.16C459.644 287.662 460.721 288.021 461.834 288.237C462.767 288.416 463.629 288.273 464.455 287.842C466.035 286.98 466.178 285.364 464.706 284.323C464.132 283.892 463.414 283.677 462.696 283.426C461.762 283.103 460.793 282.887 459.895 282.564C455.012 280.841 453.253 276.783 455.263 272.008C456.664 268.705 459.787 266.73 463.378 266.694C465.604 266.694 467.758 266.946 469.84 267.771C472.102 268.633 472.282 269.028 471.205 271.146C470.247 273.013 468.775 273.696 466.789 273.193C465.676 272.906 464.527 272.726 463.414 273.229C461.87 273.911 461.762 275.275 463.126 276.245C463.88 276.783 464.742 276.999 465.604 277.25C467.112 277.645 468.548 278.22 469.912 278.938C472.031 280.087 473.108 281.918 473.359 284.251C473.898 289.422 470.666 293.586 465.496 294.305C464.598 294.412 463.701 294.412 462.803 294.448H462.839Z" fill="#18161C"/>
<path d="M140.385 280.698C140.385 277.359 140.385 273.984 140.385 270.645C140.421 267.988 140.888 267.486 143.545 267.45C146.561 267.414 149.577 267.378 152.629 267.45C155.25 267.521 156.578 269.963 155.286 272.261C154.891 272.979 154.208 273.23 153.454 273.266C152.306 273.302 151.157 273.266 150.044 273.374C148.572 273.482 147.925 274.092 147.889 275.205C147.853 276.426 148.536 277.072 150.151 277.18C150.977 277.251 151.803 277.18 152.593 277.251C154.567 277.395 155.07 278.005 155.106 280.088C155.106 282.278 154.567 282.96 152.521 283.104C151.803 283.176 151.049 283.104 150.331 283.176C148.536 283.355 147.853 284.001 147.853 285.545C147.853 287.125 148.464 287.771 150.295 287.915C151.336 287.987 152.413 287.915 153.49 288.023C155.214 288.202 155.645 288.884 155.645 290.931C155.645 292.977 155.178 293.731 153.454 293.803C149.864 293.911 146.274 293.911 142.683 293.803C141.032 293.767 140.529 293.121 140.493 291.182C140.421 287.664 140.493 284.145 140.493 280.662L140.385 280.698Z" fill="#18161C"/>
<path d="M433.254 280.446C433.254 277.179 433.254 273.912 433.254 270.644C433.29 267.987 433.757 267.521 436.45 267.485C439.466 267.449 442.481 267.413 445.533 267.485C448.118 267.521 449.447 270.034 448.154 272.296C447.688 273.122 446.898 273.301 446.072 273.301C444.851 273.337 443.63 273.301 442.41 273.409C440.938 273.517 440.327 274.163 440.327 275.276C440.327 276.425 440.938 277.035 442.41 277.179C443.379 277.287 444.384 277.179 445.354 277.287C447.436 277.43 448.011 278.077 448.011 280.267C448.011 282.421 447.436 283.031 445.282 283.175C444.313 283.247 443.307 283.175 442.338 283.319C440.83 283.534 440.22 284.324 440.291 285.832C440.327 287.232 440.902 287.842 442.446 287.986C443.738 288.094 445.067 287.986 446.359 288.13C448.083 288.309 448.549 288.955 448.549 291.002C448.549 293.049 448.083 293.838 446.359 293.874C442.769 293.982 439.178 293.982 435.588 293.874C433.936 293.838 433.434 293.192 433.398 291.253C433.326 287.663 433.398 284.073 433.398 280.482L433.254 280.446Z" fill="#18171C"/>
<path d="M176.145 280.591C176.145 277.252 176.109 273.877 176.145 270.538C176.181 267.988 176.684 267.522 179.197 267.486C182.285 267.45 185.408 267.486 188.496 267.486C189.501 267.486 190.579 267.522 191.009 268.599C191.512 269.855 191.512 271.184 190.902 272.405C190.543 273.159 189.753 273.266 188.999 273.302C187.778 273.338 186.557 273.302 185.337 273.41C183.829 273.518 183.218 274.092 183.146 275.205C183.111 276.426 183.793 277.072 185.372 277.216C186.414 277.287 187.491 277.216 188.568 277.359C190.22 277.539 190.758 278.293 190.794 280.268C190.794 282.242 190.291 282.96 188.604 283.14C187.778 283.248 186.988 283.176 186.162 283.212C183.505 283.319 183.111 283.714 183.039 286.443C183.039 287.987 183.039 289.567 183.003 291.111C182.931 293.337 182.428 293.803 180.202 293.911C179.807 293.911 179.376 293.911 178.982 293.911C176.755 293.803 176.181 293.337 176.145 291.111C176.073 287.592 176.145 284.073 176.145 280.555V280.591Z" fill="#18161C"/>
<path d="M11.8126 280.842C11.8126 284.182 11.8485 287.521 11.8126 290.896C11.7767 293.409 11.274 293.84 8.76073 293.947C4.9908 294.091 4.52405 293.624 4.52405 289.854C4.52405 283.715 4.52405 277.611 4.52405 271.471C4.52405 270.897 4.52405 270.323 4.55995 269.748C4.55995 269.425 4.59586 269.066 4.73947 268.779C5.8884 266.66 7.89903 267.522 9.55062 267.522C11.0945 267.522 11.669 268.097 11.7408 269.569C11.8485 271.364 11.8126 273.159 11.8126 274.954C11.8126 276.929 11.8126 278.868 11.8126 280.842Z" fill="#18161C"/>
<path d="M107.569 280.662C107.569 283.929 107.569 287.196 107.569 290.427C107.569 291.612 107.784 293.084 106.348 293.587C104.804 294.126 103.153 294.162 101.573 293.443C101.034 293.192 100.783 292.618 100.747 292.043C100.675 291.397 100.639 290.751 100.639 290.104C100.639 283.821 100.639 277.574 100.639 271.291C100.639 270.644 100.639 269.998 100.747 269.352C100.819 268.67 101.106 268.023 101.752 267.808C103.332 267.305 104.984 267.198 106.528 267.88C107.605 268.346 107.569 269.46 107.569 270.429C107.569 273.84 107.569 277.287 107.569 280.697V280.662Z" fill="#18161B"/>
<path d="M386.651 280.446C386.651 277.179 386.651 273.912 386.651 270.644C386.651 269.496 386.543 268.167 387.908 267.736C389.487 267.27 391.175 267.126 392.683 267.952C393.581 268.454 393.509 269.496 393.545 270.393C393.545 273.589 393.545 276.784 393.545 279.944C393.545 283.606 393.545 287.304 393.545 290.966C393.509 293.336 392.97 293.803 390.6 293.91C390.206 293.91 389.775 293.91 389.38 293.91C387.297 293.803 386.723 293.3 386.687 291.253C386.615 287.663 386.687 284.073 386.687 280.446H386.651Z" fill="#18161C"/>
</g>
<defs>
<clipPath id="clip0_809_27849">
<rect width="500" height="294.88" fill="white"/>
</clipPath>
</defs>
</svg>
