<svg width="64" height="64" viewBox="0 0 64 64" fill="none" xmlns="http://www.w3.org/2000/svg">
<circle cx="33.5" cy="29.5" r="12.5" fill="#B7D3AE"/>
<rect x="10" y="46" width="44" height="4" fill="#B7D3AE"/>
<path d="M32 6.75195V16.352" stroke="#1C4D99" stroke-width="2.5"/>
<path d="M53.6 27.752H45.2" stroke="#1C4D99" stroke-width="2.5"/>
<path d="M17.6 27.752H9.19998" stroke="#1C4D99" stroke-width="2.5"/>
<path d="M15.2 13.3518L21.3979 19.5498" stroke="#1C4D99" stroke-width="2.5"/>
<path d="M47.7979 13.3518L41.5999 19.5498" stroke="#1C4D99" stroke-width="2.5"/>
<path d="M18.9071 35.2959C17.9492 33.2124 17.5275 30.9225 17.6805 28.6345C17.8336 26.3466 18.5563 24.1332 19.7831 22.1958C21.0099 20.2585 22.7018 18.6587 24.7047 17.5422C26.7075 16.4256 28.9579 15.8277 31.2508 15.8028C33.5438 15.778 35.8066 16.3269 37.8332 17.3998C39.8598 18.4727 41.5859 20.0354 42.8544 21.9457C44.123 23.856 44.8936 26.0532 45.0961 28.3373C45.2987 30.6214 44.9268 32.92 44.0143 35.0237" stroke="#1C4D99" stroke-width="2.5"/>
<path d="M37.3479 56.5323H47.9502C51.5213 56.5323 54.4163 53.6373 54.4163 50.0662V45.7522H9.19995V50.0662C9.19995 53.6373 12.0949 56.5323 15.666 56.5323H26.5678" stroke="#1C4D99" stroke-width="2.5" stroke-linecap="round" stroke-linejoin="round"/>
<path d="M10.6971 50.5435H53.2185" stroke="#1C4D99" stroke-width="2.5" stroke-linecap="round"/>
<circle cx="31.9579" cy="56.5318" r="1.19778" fill="#1C4D99"/>
<path d="M32 30.2019C37.3512 30.2019 41.8929 32.5711 45.5283 35.6287C49.1666 38.6887 51.8216 42.3767 53.3623 44.8416C53.4953 45.0543 53.475 45.2464 53.3848 45.3992C53.2891 45.561 53.0959 45.7019 52.8066 45.7019H11.1934C10.9041 45.7019 10.7109 45.561 10.6152 45.3992C10.525 45.2464 10.5047 45.0543 10.6377 44.8416C12.1784 42.3767 14.8334 38.6887 18.4717 35.6287C22.1071 32.5711 26.6488 30.2019 32 30.2019Z" fill="#F7FAF6" stroke="#1C4D99" stroke-width="2.5"/>
<circle cx="38" cy="31.3521" r="1.2" fill="#1C4D99"/>
<circle cx="33.2" cy="31.3521" r="1.2" fill="#1C4D99"/>
<circle cx="18.8" cy="38.5521" r="1.2" fill="#1C4D99"/>
<circle cx="23.6" cy="36.1521" r="1.2" fill="#1C4D99"/>
<circle cx="30.8" cy="36.1521" r="1.2" fill="#1C4D99"/>
<circle cx="42.8" cy="38.5521" r="1.2" fill="#1C4D99"/>
<circle cx="35.6" cy="40.9522" r="1.2" fill="#1C4D99"/>
<circle cx="38" cy="36.1521" r="1.2" fill="#1C4D99"/>
</svg>
