<svg width="64" height="64" viewBox="0 0 64 64" fill="none" xmlns="http://www.w3.org/2000/svg">
<path d="M25.9999 28C25.9999 30.7614 23.7613 33 20.9999 33C18.2385 33 15.9999 30.7614 15.9999 28C15.9999 25.2386 18.2385 23 20.9999 23C23.7613 23 25.9999 25.2386 25.9999 28Z" fill="#B7D3AE"/>
<path d="M23.9999 28C23.9999 26.3431 22.6568 25 20.9999 25C19.3431 25 17.9999 26.3431 17.9999 28C17.9999 29.6569 19.3431 31 20.9999 31V33C18.2385 33 15.9999 30.7614 15.9999 28C15.9999 25.2386 18.2385 23 20.9999 23C23.7613 23 25.9999 25.2386 25.9999 28C25.9999 30.7614 23.7613 33 20.9999 33V31C22.6568 31 23.9999 29.6569 23.9999 28Z" fill="#1C4D99"/>
<path d="M47.9999 27C47.9999 29.7614 45.7613 32 42.9999 32C40.2385 32 37.9999 29.7614 37.9999 27C37.9999 24.2386 40.2385 22 42.9999 22C45.7613 22 47.9999 24.2386 47.9999 27Z" fill="#B7D3AE"/>
<path d="M45.9999 27C45.9999 25.3431 44.6568 24 42.9999 24C41.3431 24 39.9999 25.3431 39.9999 27C39.9999 28.6569 41.3431 30 42.9999 30V32C40.2385 32 37.9999 29.7614 37.9999 27C37.9999 24.2386 40.2385 22 42.9999 22C45.7613 22 47.9999 24.2386 47.9999 27C47.9999 29.7614 45.7613 32 42.9999 32V30C44.6568 30 45.9999 28.6569 45.9999 27Z" fill="#1C4D99"/>
<path d="M37.9999 18.5C37.9999 21.5376 35.5375 24 32.4999 24C29.4624 24 26.9999 21.5376 26.9999 18.5C26.9999 15.4624 29.4624 13 32.4999 13C35.5375 13 37.9999 15.4624 37.9999 18.5Z" fill="#B7D3AE"/>
<path d="M35.9999 18.5C35.9999 16.567 34.4329 15 32.4999 15C30.5669 15 28.9999 16.567 28.9999 18.5C28.9999 20.433 30.5669 22 32.4999 22V24C29.4624 24 26.9999 21.5376 26.9999 18.5C26.9999 15.4624 29.4624 13 32.4999 13C35.5375 13 37.9999 15.4624 37.9999 18.5C37.9999 21.5376 35.5375 24 32.4999 24V22C34.4329 22 35.9999 20.433 35.9999 18.5Z" fill="#1C4D99"/>
<path d="M20.4999 31C22.7209 31 24.8469 31.9008 26.4111 33.4971C26.8172 33.9116 27.1773 34.3644 27.4872 34.8467C27.6319 35.0718 27.7659 35.3038 27.8886 35.541C28.1419 36.0315 27.9494 36.6351 27.4589 36.8887C26.9684 37.142 26.3648 36.9495 26.1112 36.459C26.0173 36.2773 25.9152 36.0999 25.8046 35.9277C25.5675 35.5587 25.2923 35.2128 24.9823 34.8965C23.79 33.6797 22.1772 33 20.4999 33C18.8226 33 17.2099 33.6797 16.0175 34.8965C15.7076 35.2128 15.4324 35.5587 15.1952 35.9277C15.0846 36.0999 14.9825 36.2773 14.8886 36.459C14.635 36.9495 14.0315 37.142 13.5409 36.8887C13.0505 36.6351 12.8579 36.0315 13.1112 35.541C13.2339 35.3038 13.3679 35.0718 13.5126 34.8467C13.8225 34.3644 14.1826 33.9116 14.5888 33.4971C16.153 31.9008 18.2789 31 20.4999 31Z" fill="#1C4D99"/>
<path d="M42.4999 30C44.7209 30 46.8469 30.9008 48.4111 32.4971C48.8172 32.9116 49.1773 33.3644 49.4872 33.8467C49.6319 34.0718 49.7659 34.3038 49.8886 34.541C50.1419 35.0315 49.9494 35.6351 49.4589 35.8887C48.9684 36.142 48.3648 35.9495 48.1112 35.459C48.0173 35.2773 47.9152 35.0999 47.8046 34.9277C47.5675 34.5587 47.2923 34.2128 46.9823 33.8965C45.79 32.6797 44.1772 32 42.4999 32C40.8226 32 39.2099 32.6797 38.0175 33.8965C37.7076 34.2128 37.4324 34.5587 37.1952 34.9277C37.0846 35.0999 36.9825 35.2773 36.8886 35.459C36.635 35.9495 36.0315 36.142 35.5409 35.8887C35.0505 35.6351 34.8579 35.0315 35.1112 34.541C35.2339 34.3038 35.3679 34.0718 35.5126 33.8467C35.8225 33.3644 36.1826 32.9116 36.5888 32.4971C38.153 30.9008 40.2789 30 42.4999 30Z" fill="#1C4D99"/>
<path d="M31.9999 22C34.3473 22 36.6087 22.8831 38.2841 24.4707C38.7196 24.8834 39.1063 25.3356 39.4403 25.8184C39.5963 26.0437 39.7414 26.2757 39.8739 26.5137C40.1424 26.9962 39.9687 27.6054 39.4862 27.874C39.0038 28.1425 38.3945 27.9688 38.1259 27.4863C38.0251 27.3053 37.9149 27.1282 37.7958 26.9561C37.5407 26.5874 37.2438 26.2409 36.9081 25.9229C35.615 24.6975 33.8506 24 31.9999 24C30.1492 24 28.3848 24.6975 27.0917 25.9229C26.756 26.2409 26.4591 26.5874 26.204 26.9561C26.0849 27.1282 25.9748 27.3053 25.8739 27.4863C25.6053 27.9688 24.9961 28.1425 24.5136 27.874C24.0311 27.6054 23.8574 26.9962 24.1259 26.5137C24.2584 26.2757 24.4035 26.0437 24.5595 25.8184C24.8935 25.3356 25.2802 24.8834 25.7157 24.4707C27.3912 22.8831 29.6525 22 31.9999 22Z" fill="#1C4D99"/>
<path d="M38.059 36.1575C38.059 39.7801 35.1223 42.7168 31.4997 42.7168C27.8771 42.7168 24.9403 39.7801 24.9403 36.1575C24.9403 32.5349 27.8771 29.5981 31.4997 29.5981C35.1223 29.5981 38.059 32.5349 38.059 36.1575Z" fill="#B7D3AE"/>
<path d="M36.0595 36.1577C36.0595 33.6397 34.0179 31.5983 31.4999 31.5981C28.9819 31.5981 26.9403 33.6397 26.9403 36.1577C26.9405 38.6757 28.9819 40.7173 31.4999 40.7173L31.4997 42.7168L31.162 42.7085C27.808 42.5384 25.119 39.8487 24.9491 36.4946L24.9403 36.1575C24.9403 32.5349 27.8771 29.5981 31.4997 29.5981L31.8368 29.6069C35.3028 29.7824 38.059 32.6479 38.059 36.1575L38.0507 36.4946C37.8752 39.9605 35.0091 42.7167 31.4997 42.7168L31.4999 40.7173C34.0178 40.7172 36.0594 38.6756 36.0595 36.1577Z" fill="#1C4D99"/>
<path d="M18.1192 38.7813C18.1192 41.8243 15.6524 44.2912 12.6094 44.2912C9.56637 44.2912 7.09953 41.8243 7.09953 38.7813C7.09953 35.7383 9.56637 33.2715 12.6094 33.2715C15.6524 33.2715 18.1192 35.7383 18.1192 38.7813Z" fill="#B7D3AE"/>
<path d="M16.1192 38.7813C16.1192 36.8429 14.5478 35.2715 12.6094 35.2715C10.671 35.2716 9.0996 36.8429 9.09956 38.7813C9.09956 40.7198 10.6709 42.2911 12.6094 42.2911V44.2912C9.56637 44.2912 7.09953 41.8243 7.09953 38.7813C7.09953 35.7383 9.56637 33.2715 12.6094 33.2715C15.6524 33.2715 18.1192 35.7383 18.1192 38.7813C18.1192 41.8243 15.6524 44.2912 12.6094 44.2912V42.2911C14.5478 42.2911 16.1192 40.7198 16.1192 38.7813Z" fill="#1C4D99"/>
<path d="M55.9005 38.7813C55.9005 41.8243 53.4336 44.2912 50.3906 44.2912C47.3476 44.2912 44.8808 41.8243 44.8808 38.7813C44.8808 35.7383 47.3476 33.2715 50.3906 33.2715C53.4336 33.2715 55.9005 35.7383 55.9005 38.7813Z" fill="#B7D3AE"/>
<path d="M53.9004 38.7813C53.9004 36.8429 52.3291 35.2715 50.3906 35.2715C48.4522 35.2716 46.8809 36.8429 46.8808 38.7813C46.8808 40.7198 48.4522 42.2911 50.3906 42.2911V44.2912C47.3476 44.2912 44.8808 41.8243 44.8808 38.7813C44.8808 35.7383 47.3476 33.2715 50.3906 33.2715C53.4336 33.2715 55.9005 35.7383 55.9005 38.7813C55.9005 41.8243 53.4336 44.2912 50.3906 44.2912V42.2911C52.3291 42.2911 53.9004 40.7198 53.9004 38.7813Z" fill="#1C4D99"/>
<path d="M31.4999 41.7168C35.3056 41.7168 38.9553 43.2289 41.6464 45.9199C42.3455 46.619 42.9658 47.3827 43.4999 48.1973C43.7493 48.5776 43.9798 48.9692 44.1913 49.3701C44.4489 49.8586 44.2618 50.463 43.7734 50.7207C43.2849 50.9784 42.6805 50.7912 42.4228 50.3027C42.2407 49.9577 42.0417 49.6212 41.8271 49.2939C41.3674 48.593 40.8341 47.9357 40.2323 47.334C37.9164 45.018 34.7752 43.7168 31.4999 43.7168C28.2247 43.7168 25.0834 45.018 22.7675 47.334C22.1658 47.9357 21.6324 48.593 21.1728 49.2939C20.9583 49.6211 20.76 49.9579 20.578 50.3027C20.3203 50.7912 19.7149 50.9784 19.2265 50.7207C18.7383 50.463 18.5511 49.8585 18.8085 49.3701C19.0201 48.9692 19.2515 48.5776 19.5009 48.1973C20.035 47.3828 20.6544 46.619 21.3534 45.9199C24.0445 43.2289 27.6942 41.7168 31.4999 41.7168Z" fill="#1C4D99"/>
<path d="M12.6083 42.7664C15.1279 42.7664 17.5608 43.6811 19.3671 45.3337C19.8369 45.7635 20.255 46.2352 20.6161 46.739C20.7846 46.974 20.9406 47.2162 21.0839 47.4646C21.3598 47.943 21.1952 48.5549 20.7167 48.8308C20.2383 49.1064 19.6273 48.9419 19.3515 48.4636C19.2413 48.2725 19.1205 48.0859 18.9902 47.9041C18.7108 47.5143 18.3851 47.1465 18.0165 46.8093C16.5961 45.51 14.6519 44.7664 12.6083 44.7664C10.5647 44.7665 8.62044 45.5098 7.20011 46.8093C6.83158 47.1465 6.50679 47.5143 6.22746 47.9041C6.09712 48.0859 5.97634 48.2725 5.86613 48.4636C5.59023 48.9421 4.97835 49.1067 4.49992 48.8308C4.02168 48.5548 3.85786 47.943 4.13371 47.4646C4.27697 47.2162 4.43305 46.974 4.60148 46.739C4.96258 46.2352 5.38074 45.7635 5.8505 45.3337C7.65673 43.6812 10.0889 42.7665 12.6083 42.7664Z" fill="#1C4D99"/>
<path d="M50.3905 42.7664C52.9101 42.7664 55.343 43.6811 57.1493 45.3337C57.6191 45.7635 58.0373 46.2352 58.3984 46.739C58.5668 46.974 58.7229 47.2162 58.8661 47.4646C59.142 47.943 58.9774 48.5549 58.4989 48.8308C58.0206 49.1064 57.4095 48.9419 57.1337 48.4636C57.0235 48.2725 56.9027 48.0859 56.7724 47.9041C56.493 47.5143 56.1673 47.1465 55.7987 46.8093C54.3784 45.51 52.4341 44.7664 50.3905 44.7664C48.347 44.7665 46.4027 45.5098 44.9823 46.8093C44.6138 47.1465 44.289 47.5143 44.0097 47.9041C43.8793 48.0859 43.7586 48.2725 43.6484 48.4636C43.3725 48.9421 42.7606 49.1067 42.2821 48.8308C41.8039 48.5548 41.6401 47.943 41.9159 47.4646C42.0592 47.2162 42.2153 46.974 42.3837 46.739C42.7448 46.2352 43.163 45.7635 43.6327 45.3337C45.439 43.6812 47.8712 42.7665 50.3905 42.7664Z" fill="#1C4D99"/>
</svg>
