<svg width="64" height="64" viewBox="0 0 64 64" fill="none" xmlns="http://www.w3.org/2000/svg">
<path d="M11.3263 49.8023C8.18658 45.6258 6.7143 40.416 7.19976 35.2001C7.68521 29.9842 18.9789 18.5357 22.8346 15.0196C26.6903 11.5036 31.7139 9.57014 36.915 9.60045C38.3456 9.60878 39.7611 9.76553 41.1409 10.0625C44.7776 10.8452 48.1665 12.6021 50.9322 15.1834C54.7472 18.7441 57.0994 23.6152 57.5249 28.8364C56.2274 25.9644 52.5835 28.8486 52.317 31.8011C51.6961 38.6803 46.1081 46.0509 41.1409 44.8001C36.1738 42.924 38.315 33.6773 39.2782 29.925C41.1409 22.4204 36.1942 23.0214 35.9947 23.2001C31.5242 27.2025 29.5116 27.6737 29.9648 25.5473C31.9998 16.0001 36.7946 10.5382 41.1409 10.0625C39.7611 9.76553 38.3456 9.60878 36.915 9.60045C31.7139 9.57014 26.6903 11.5036 22.8346 15.0196C18.9789 18.5357 7.68521 29.9842 7.19976 35.2001C17.9518 34.1361 18.0321 36.3563 17.3537 38.4063C16.1119 42.1586 15.0771 42.9924 15.491 43.4093C24.1835 52.1646 21.2473 54.637 20.7105 56.8112C17.005 55.4345 13.7402 53.0134 11.3263 49.8023Z" fill="#B7D3AE"/>
<path d="M6.76367 30.7473C9.73038 30.4878 12.0305 30.4403 13.7998 30.5452C15.7857 30.6629 17.0238 30.9681 17.7695 31.3196C18.48 31.6545 18.6668 31.9894 18.7324 32.2063C18.8153 32.4804 18.7962 32.8751 18.6094 33.4397C17.8245 35.8114 17.1095 37.2502 16.6465 38.1829C16.4337 38.6115 16.2006 39.0707 16.0859 39.4553C16.0238 39.6639 15.9604 39.9611 16.0029 40.2961C16.0508 40.6724 16.2195 41 16.4727 41.2551C22.0701 46.893 23.6817 50.6259 23.9629 53.1262C24.1026 54.3694 23.9235 55.3807 23.6592 56.2649C23.5314 56.6921 23.3851 57.0839 23.2363 57.4836C18.9089 55.57 14.155 51.9009 11.3994 48.2356C7.73042 43.355 6.37155 37.0185 6.76367 30.7473ZM38.4404 7.26685C43.0856 8.28348 47.9237 9.9259 51.2334 13.0149C55.2866 16.7979 58.0165 21.768 59.0664 27.1848C57.9936 27.0452 56.952 27.4363 56.1074 27.9944C54.3732 29.1404 52.8638 31.3768 52.6523 33.72C51.8907 42.1575 45.1783 47.0532 39.6611 45.7219C38.3429 45.2095 37.5607 44.448 37.0879 43.5579C36.5905 42.6215 36.3854 41.4479 36.4062 40.0872C36.4488 37.3142 37.4012 34.2469 38.0576 31.6897L38.0596 31.6799C38.6759 29.1968 38.9278 27.4704 38.9072 26.2893C38.897 25.7012 38.8182 25.1561 38.6182 24.6956C38.4045 24.2037 38.0273 23.7646 37.4531 23.5667C36.9234 23.3841 36.4278 23.478 36.0947 23.5901C35.7535 23.705 35.4534 23.8823 35.2266 24.0364C34.9929 24.1951 34.7904 24.361 34.6436 24.4895C34.5537 24.5681 34.3262 24.7788 34.3887 24.7229C31.6491 27.1757 29.2465 27.6351 27.8105 27.2698C27.1018 27.0894 26.6064 26.7124 26.3125 26.2385C26.0182 25.7639 25.8658 25.095 26.0273 24.2297C27.2705 17.574 29.2117 13.4721 31.4062 10.9758C33.5132 8.57933 35.9298 7.57761 38.4404 7.26685Z" stroke="#1C4D99" stroke-width="2.5" stroke-linecap="round"/>
<path d="M18.6592 10.6504C27.9468 13.3369 46.8905 23.6838 48.3642 43.5792" stroke="#1C4D99" stroke-width="1.5" stroke-linecap="round"/>
<path d="M16.8175 54.1719C15.4359 42.6584 19.5347 17.8811 46.9831 10.8809" stroke="#1C4D99" stroke-width="1.5" stroke-linecap="round"/>
<path d="M18.6592 55.5533C27.4863 53.0971 47.0287 42.1515 54.5816 18.019" stroke="#1C4D99" stroke-width="1.5" stroke-linecap="round"/>
<path d="M6.22473 29.7626C15.6659 26.8458 39.1996 25.6177 57.8056 44.0395" stroke="#1C4D99" stroke-width="1.5" stroke-linecap="round"/>
<path d="M48.8259 47.9543C48.9027 48.9522 48.918 51.6847 48.3654 54.6322" stroke="#1C4D99" stroke-width="1.5" stroke-linecap="round"/>
<path d="M28.3713 59.5613C26.8474 59.2822 25.3605 58.8735 23.9249 58.3439C19.1506 56.5827 14.944 53.4856 11.8337 49.378C7.78832 44.0353 5.89134 37.3708 6.51683 30.6985C7.14232 24.0263 10.2449 17.8305 15.2128 13.3327C20.1807 8.83491 26.6535 6.36158 33.3549 6.40035C35.1982 6.41101 37.022 6.61153 38.7998 6.99144C43.4855 7.9927 47.8521 10.2401 51.4155 13.5421C56.3311 18.0971 59.3618 24.3283 59.91 31.0074C60.4583 37.6864 58.4843 44.3285 54.3773 49.6241C50.2704 54.9197 44.3284 58.4844 37.7231 59.6154" stroke="#1C4D99" stroke-width="2.5" stroke-linecap="round"/>
<circle cx="46.5236" cy="35.5195" r="2.4738" fill="#F7FAF6" stroke="#1C4D99" stroke-width="1.5"/>
<circle cx="56.0236" cy="17.6237" r="2.4738" fill="#F7FAF6" stroke="#1C4D99" stroke-width="1.5"/>
<circle cx="48.0236" cy="9.62371" r="2.4738" fill="#F7FAF6" stroke="#1C4D99" stroke-width="1.5"/>
<circle cx="33.1673" cy="17.0981" r="2.4738" fill="#F7FAF6" stroke="#1C4D99" stroke-width="1.5"/>
<circle cx="22.5751" cy="28.1511" r="2.4738" fill="#F7FAF6" stroke="#1C4D99" stroke-width="1.5"/>
<circle cx="17.6236" cy="54.4238" r="2.4738" fill="#F7FAF6" stroke="#1C4D99" stroke-width="1.5"/>
<circle cx="48.0236" cy="56.0239" r="2.4738" fill="#F7FAF6" stroke="#1C4D99" stroke-width="1.5"/>
<circle cx="6.42351" cy="30.4238" r="2.4738" fill="#F7FAF6" stroke="#1C4D99" stroke-width="1.5"/>
<circle cx="17.6236" cy="11.2238" r="2.4738" fill="#F7FAF6" stroke="#1C4D99" stroke-width="1.5"/>
</svg>
