<svg width="64" height="64" viewBox="0 0 64 64" fill="none" xmlns="http://www.w3.org/2000/svg">
<path d="M42.2969 13H52L53.3359 25.5L60 33.0186L53.3359 42.2969L52.6416 52.1514L42.2969 53.3359L33.5098 60L25.6602 53.3359L13.8867 52.6416V42.2969L8 34.4902L15.6455 26.6846L15.7588 15.7588L26.6846 15.6455L34.4902 8L42.2969 13ZM32.5283 17.8115C24.4004 17.8116 17.8115 24.4004 17.8115 32.5283C17.8116 40.6562 24.4005 47.245 32.5283 47.2451C40.6563 47.2451 47.2451 40.6563 47.2451 32.5283C47.2451 24.4004 40.6563 17.8115 32.5283 17.8115Z" fill="#B7D3AE"/>
<path d="M30.5208 31.3485H27L29.849 33.4181L28.7608 36.7657L31.609 34.697L34.4562 36.7657L33.3689 33.4181L36.2179 31.3485H32.6971L31.609 28L30.5208 31.3485Z" fill="#B7D3AE"/>
<path d="M17.929 32.0703C17.8913 34.9047 18.6956 37.6868 20.239 40.0645C21.7825 42.4422 23.9966 44.3093 26.601 45.4288C29.2052 46.5482 32.0834 46.8701 34.8707 46.3541C37.6579 45.838 40.2292 44.5066 42.26 42.529C44.2908 40.5515 45.69 38.0164 46.2799 35.2439C46.8698 32.4713 46.6244 29.5856 45.5746 26.9525C44.5246 24.3194 42.717 22.0564 40.3811 20.4504C38.0453 18.8444 35.2855 17.9665 32.451 17.9288C31.7608 17.9196 31.2086 17.3526 31.2177 16.6624C31.2271 15.9723 31.7942 15.42 32.4842 15.4291C35.8129 15.4733 39.0541 16.5039 41.7973 18.3899C44.5406 20.2761 46.6635 22.9338 47.8966 26.0263C49.1297 29.1187 49.4182 32.5074 48.7254 35.7637C48.0326 39.02 46.3891 41.9973 44.0039 44.3199C41.6188 46.6426 38.5989 48.2064 35.3254 48.8125C32.0518 49.4186 28.6719 49.0402 25.6134 47.7254C22.5548 46.4107 19.9544 44.2179 18.1417 41.4255C16.3292 38.6331 15.385 35.3658 15.4292 32.0371C15.4385 31.347 16.0057 30.7948 16.6957 30.8038C17.3859 30.8129 17.938 31.3801 17.929 32.0703Z" fill="#1C4D99"/>
<path d="M34.682 28.0952H43.4669L36.3597 33.2596L39.0749 41.615L31.9668 36.4506L24.8587 41.615L27.5739 33.2596L20.4667 28.0952H29.2516L31.9668 19.7397L34.682 28.0952ZM30.8786 30.3345H27.3578L30.2068 32.4041L29.1187 35.7517L31.9668 33.683L34.8141 35.7517L33.7268 32.4041L36.5758 30.3345H33.055L31.9668 26.986L30.8786 30.3345Z" fill="#1C4D99"/>
<path d="M29.7832 5.09534C31.2744 3.63489 33.6592 3.63488 35.1504 5.09534L40.2051 10.0455C40.912 10.738 41.8591 11.1309 42.8486 11.1412L49.9238 11.2145C52.0107 11.2364 53.6969 12.9225 53.7188 15.0094L53.792 22.0846C53.8024 23.0741 54.1953 24.0212 54.8877 24.7282L59.8379 29.7828C61.2984 31.274 61.2984 33.6589 59.8379 35.15L54.8877 40.2047L54.7617 40.3395C54.1478 41.0298 53.8017 41.9204 53.792 42.8483L53.7188 49.9235L53.7119 50.1178C53.5912 52.114 51.9455 53.6972 49.9238 53.7184L42.8486 53.7916C41.8591 53.802 40.912 54.1949 40.2051 54.8873L35.1504 59.8375C33.7057 61.2525 31.4218 61.297 29.9248 59.9703L29.7832 59.8375L24.7285 54.8873C24.0656 54.2381 23.1917 53.8526 22.2695 53.7985L22.085 53.7916L15.0098 53.7184C12.9881 53.6972 11.3424 52.114 11.2217 50.1178L11.2148 49.9235L11.1416 42.8483C11.1319 41.9204 10.7858 41.0298 10.1719 40.3395L10.0459 40.2047L5.09571 35.15C3.68079 33.7053 3.63621 31.4215 4.9629 29.9244L5.09571 29.7828L10.0459 24.7282C10.6951 24.0653 11.0807 23.1913 11.1348 22.2692L11.1416 22.0846L11.2148 15.0094C11.2361 12.9877 12.8192 11.3421 14.8154 11.2213L15.0098 11.2145L22.085 11.1412C23.0745 11.1309 24.0216 10.738 24.7285 10.0455L29.7832 5.09534ZM33.4014 6.88148C32.8821 6.37289 32.0515 6.37288 31.5322 6.88148L26.4775 11.8317C25.3097 12.9754 23.7449 13.6233 22.1104 13.6403L15.0361 13.7145C14.3094 13.722 13.7224 14.309 13.7148 15.0358L13.6406 22.11C13.6237 23.7446 12.9758 25.3093 11.832 26.4772L6.88184 31.5319C6.37325 32.0511 6.37325 32.8817 6.88184 33.401L11.832 38.4557C12.9758 39.6236 13.6237 41.1883 13.6406 42.8229L13.7148 49.8971C13.7224 50.6239 14.3094 51.2108 15.0361 51.2184L22.1104 51.2926C23.7449 51.3096 25.3097 51.9574 26.4775 53.1012L31.5322 58.0514C32.0515 58.56 32.8821 58.56 33.4014 58.0514L38.4561 53.1012C39.6239 51.9574 41.1887 51.3096 42.8232 51.2926L49.8975 51.2184C50.6242 51.2108 51.2112 50.6239 51.2188 49.8971L51.293 42.8229C51.3099 41.1883 51.9578 39.6236 53.1016 38.4557L58.0518 33.401C58.5604 32.8818 58.5604 32.0511 58.0518 31.5319L53.1016 26.4772C51.9578 25.3093 51.3099 23.7446 51.293 22.11L51.2188 15.0358C51.2112 14.309 50.6242 13.722 49.8975 13.7145L42.8232 13.6403C41.1887 13.6233 39.6239 12.9754 38.4561 11.8317L33.4014 6.88148Z" fill="#1C4D99"/>
</svg>
