<svg width="64" height="64" viewBox="0 0 64 64" fill="none" xmlns="http://www.w3.org/2000/svg">
<path d="M33.166 35.1696C33.166 37.5872 31.2062 39.547 28.7886 39.547C26.3711 39.547 24.4112 37.5872 24.4112 35.1696C24.4112 32.7521 26.3711 30.7923 28.7886 30.7923C31.2062 30.7923 33.166 32.7521 33.166 35.1696Z" fill="#B7D3AE"/>
<path d="M44.0719 13.9925L52.3287 5.73566L52.2603 11.7811L58.3058 11.7127L50.049 19.9695L44.0035 20.0379L44.0719 13.9925Z" fill="#B7D3AE"/>
<path d="M23.4681 11.4957C29.0653 10.1938 34.9433 10.9304 40.0462 13.5732C40.4903 13.8032 40.6639 14.3499 40.4339 14.794C40.2038 15.238 39.6574 15.4116 39.2134 15.1817C34.4932 12.7371 29.0559 12.0556 23.8784 13.2598C18.701 14.4641 14.1228 17.4751 10.966 21.7519C7.80922 26.0286 6.2809 31.2908 6.65557 36.5933C7.03024 41.8956 9.28315 46.8908 13.0099 50.6811C16.7367 54.4714 21.6931 56.8085 26.9884 57.2728C32.2837 57.737 37.5711 56.2979 41.9006 53.2138C46.2301 50.1298 49.318 45.6031 50.6096 40.4467C51.9012 35.2904 51.3119 29.8425 48.9474 25.0818C48.725 24.6338 48.9078 24.0902 49.3558 23.8677C49.8037 23.6453 50.3473 23.8281 50.5698 24.276C53.1259 29.4228 53.763 35.3125 52.3667 40.8869C50.9703 46.4613 47.6321 51.3553 42.9516 54.6894C38.2711 58.0234 32.555 59.5792 26.8304 59.0773C21.1057 58.5755 15.7474 56.0488 11.7184 51.9511C7.68937 47.8535 5.25373 42.4532 4.84867 36.7209C4.44363 30.9886 6.09573 25.2996 9.50846 20.6761C12.9212 16.0526 17.8709 12.7976 23.4681 11.4957ZM23.8817 18.5711C27.7076 17.3947 31.8241 17.5888 35.5223 19.1201C35.9844 19.3114 36.2039 19.841 36.0126 20.3032C35.8213 20.7653 35.2916 20.985 34.8295 20.7937C31.5206 19.4236 27.8373 19.2499 24.4141 20.3026C20.991 21.3552 18.0419 23.5683 16.0745 26.5608C14.1071 29.5534 13.2445 33.1382 13.6352 36.6982C14.0259 40.2582 15.6455 43.5706 18.2151 46.0652C20.7847 48.5599 24.1436 50.0808 27.7137 50.366C31.2836 50.6511 34.8414 49.6828 37.7744 47.6277C40.7074 45.5726 42.8323 42.5593 43.7832 39.1065C44.7341 35.6537 44.4514 31.9772 42.984 28.7103C42.779 28.254 42.9829 27.718 43.4392 27.5131C43.8954 27.3082 44.4315 27.512 44.6364 27.9683C46.2764 31.6195 46.5921 35.7283 45.5294 39.5874C44.4667 43.4464 42.092 46.8143 38.8139 49.1112C35.5358 51.4081 31.5595 52.4903 27.5695 52.1717C23.5795 51.853 19.8253 50.1532 16.9533 47.3651C14.0814 44.577 12.2712 40.8748 11.8345 36.896C11.3979 32.9172 12.3621 28.9105 14.5609 25.5658C16.7598 22.2212 20.0558 19.7476 23.8817 18.5711ZM25.4719 25.0378C27.7046 24.2621 30.133 24.2574 32.3687 25.0246C32.8418 25.1869 33.0938 25.7021 32.9315 26.1752C32.7692 26.6483 32.254 26.9 31.7809 26.7377C29.9284 26.1021 27.9162 26.1062 26.0662 26.7489C24.2163 27.3917 22.6353 28.6362 21.576 30.2834C20.5167 31.9306 20.0404 33.8854 20.2231 35.8353C20.4058 37.7852 21.2368 39.6175 22.5836 41.0393C23.9305 42.4611 25.7154 43.3902 27.6526 43.6782C29.5898 43.966 31.5676 43.5961 33.2697 42.6274C34.9717 41.6588 36.2999 40.1475 37.0418 38.335C37.7836 36.5225 37.8964 34.5136 37.3619 32.6295C37.2254 32.1483 37.5049 31.6475 37.9861 31.511C38.4672 31.3745 38.9681 31.6539 39.1046 32.1351C39.7496 34.409 39.6134 36.8335 38.7181 39.021C37.8227 41.2085 36.2198 43.0327 34.1656 44.2017C32.1113 45.3708 29.7241 45.8175 27.3861 45.47C25.0482 45.1225 22.8943 44.0011 21.2688 42.2852C19.6433 40.5692 18.6399 38.3576 18.4194 36.0042C18.199 33.6509 18.7739 31.2915 20.0524 29.3035C21.3309 27.3154 23.2392 25.8135 25.4719 25.0378ZM32.2602 35.1696C32.2602 34.5534 32.0989 33.9752 31.8174 33.4736L29.5282 35.769C29.175 36.1231 28.6017 36.1239 28.2476 35.7707C27.8935 35.4175 27.8926 34.8442 28.2458 34.4901L30.5509 32.1787C30.0342 31.8736 29.432 31.6979 28.7885 31.6979C26.8712 31.6979 25.3168 33.2523 25.3168 35.1696C25.3168 37.087 26.8712 38.6413 28.7885 38.6413C30.7059 38.6413 32.2602 37.087 32.2602 35.1696ZM52.5539 12.6835C52.5442 12.6941 52.5343 12.7045 52.5241 12.7147L46.147 19.1077L49.6694 19.0679L56.094 12.6434L52.5539 12.6835ZM44.9731 14.3716L44.9348 17.7583L51.2417 11.4358C51.2786 11.3988 51.318 11.3655 51.3593 11.3362L51.3976 7.94703L44.9731 14.3716ZM34.0716 35.1696C34.0716 38.0873 31.7063 40.4526 28.7885 40.4526C25.8708 40.4526 23.5055 38.0873 23.5055 35.1696C23.5055 32.2519 25.8708 29.8866 28.7885 29.8866C29.933 29.8866 30.9925 30.2505 31.8575 30.8689L43.1025 19.5953L43.1662 13.9821C43.1689 13.7455 43.2642 13.5194 43.4315 13.3521L51.6883 5.09532C51.9486 4.83498 52.3407 4.75822 52.68 4.90104C53.0193 5.04387 53.2385 5.37785 53.2343 5.74596L53.1762 10.8648L58.2956 10.807C58.6637 10.8029 58.9977 11.0222 59.1405 11.3615C59.2832 11.7008 59.2065 12.0927 58.9463 12.353L50.6895 20.6098C50.5221 20.7771 50.2958 20.8724 50.0592 20.8751L44.3195 20.9399L33.1293 32.1584C33.7231 33.0127 34.0716 34.0504 34.0716 35.1696Z" fill="#1C4D99"/>
<path d="M49.9825 24.5676C49.921 24.444 49.771 24.3935 49.6473 24.4549C49.5237 24.5163 49.4732 24.6664 49.5346 24.79L49.7585 24.6788L49.9825 24.5676ZM39.5148 14.5994C39.6374 14.6629 39.7883 14.615 39.8518 14.4924C39.9153 14.3698 39.8674 14.2189 39.7448 14.1554L39.6298 14.3774L39.5148 14.5994ZM44.0382 28.2368C43.9817 28.1108 43.8337 28.0546 43.7078 28.1112C43.5818 28.1677 43.5256 28.3157 43.5821 28.4416L43.8102 28.3392L44.0382 28.2368ZM35.0803 20.1878C35.2079 20.2406 35.3541 20.1801 35.4069 20.0525C35.4597 19.9249 35.3991 19.7787 35.2716 19.7259L35.1759 19.9568L35.0803 20.1878ZM38.4737 32.3141C38.436 32.1812 38.2978 32.1041 38.165 32.1418C38.0322 32.1795 37.955 32.3177 37.9927 32.4505L38.2332 32.3823L38.4737 32.3141ZM31.9937 26.1177C32.1243 26.1625 32.2665 26.093 32.3113 25.9624C32.3561 25.8318 32.2865 25.6896 32.1559 25.6448L32.0748 25.8812L31.9937 26.1177ZM44.0719 13.9925L43.8952 13.8157C43.849 13.8619 43.8227 13.9243 43.8219 13.9896L44.0719 13.9925ZM52.3287 5.73566L52.5787 5.73849C52.5799 5.63687 52.5194 5.54466 52.4257 5.50524C52.332 5.46582 52.2238 5.48702 52.152 5.55889L52.3287 5.73566ZM58.3058 11.7127L58.4826 11.8895C58.5544 11.8176 58.5756 11.7094 58.5362 11.6157C58.4968 11.5221 58.4046 11.4616 58.303 11.4627L58.3058 11.7127ZM50.049 19.9695L50.0518 20.2195C50.1171 20.2188 50.1796 20.1925 50.2258 20.1463L50.049 19.9695ZM52.2603 11.7811L52.0104 11.7783C52.0096 11.8456 52.036 11.9103 52.0836 11.9579C52.1311 12.0055 52.1959 12.0319 52.2632 12.0311L52.2603 11.7811ZM44.0035 20.0379L43.7536 20.0351C43.7528 20.1024 43.7792 20.1671 43.8268 20.2147C43.8743 20.2623 43.9391 20.2886 44.0064 20.2879L44.0035 20.0379ZM28.7101 34.953C28.6126 35.0507 28.6128 35.209 28.7105 35.3065C28.8083 35.404 28.9666 35.4038 29.0641 35.3061L28.8871 35.1295L28.7101 34.953ZM52.0599 12.2518C52.1575 12.1541 52.1572 11.9958 52.0595 11.8983C51.9617 11.8008 51.8034 11.801 51.7059 11.8987L51.8829 12.0753L52.0599 12.2518ZM23.4681 11.4957L23.4114 11.2522H23.4114L23.4681 11.4957ZM40.0462 13.5732L40.1612 13.3512V13.3512L40.0462 13.5732ZM40.4339 14.794L40.6559 14.909L40.6559 14.909L40.4339 14.794ZM39.2134 15.1817L39.0984 15.4037L39.0984 15.4037L39.2134 15.1817ZM23.8784 13.2598L23.8218 13.0163V13.0163L23.8784 13.2598ZM10.966 21.7519L10.7649 21.6034H10.7649L10.966 21.7519ZM6.65557 36.5933L6.40619 36.6109V36.6109L6.65557 36.5933ZM13.0099 50.6811L12.8317 50.8564V50.8564L13.0099 50.6811ZM26.9884 57.2728L26.9666 57.5218H26.9666L26.9884 57.2728ZM41.9006 53.2138L42.0456 53.4174V53.4174L41.9006 53.2138ZM50.6096 40.4467L50.3671 40.386V40.386L50.6096 40.4467ZM48.9474 25.0818L49.1713 24.9706V24.9706L48.9474 25.0818ZM49.3558 23.8677L49.2446 23.6438L49.2445 23.6438L49.3558 23.8677ZM50.5698 24.276L50.7937 24.1648L50.7937 24.1648L50.5698 24.276ZM52.3667 40.8869L52.6092 40.9476V40.9476L52.3667 40.8869ZM42.9516 54.6894L43.0966 54.893V54.893L42.9516 54.6894ZM26.8304 59.0773L26.8086 59.3264V59.3264L26.8304 59.0773ZM11.7184 51.9511L11.5401 52.1264V52.1264L11.7184 51.9511ZM4.84867 36.7209L4.5993 36.7385L4.5993 36.7385L4.84867 36.7209ZM9.50846 20.6761L9.30732 20.5276V20.5276L9.50846 20.6761ZM23.8817 18.5711L23.8082 18.3322L23.8082 18.3322L23.8817 18.5711ZM35.5223 19.1201L35.618 18.8891H35.618L35.5223 19.1201ZM36.0126 20.3032L36.2436 20.3988L36.2436 20.3988L36.0126 20.3032ZM34.8295 20.7937L34.7339 21.0247L34.7339 21.0247L34.8295 20.7937ZM24.4141 20.3026L24.3406 20.0636L24.3406 20.0636L24.4141 20.3026ZM16.0745 26.5608L15.8656 26.4235L15.8656 26.4235L16.0745 26.5608ZM13.6352 36.6982L13.3867 36.7255L13.3867 36.7255L13.6352 36.6982ZM18.2151 46.0652L18.041 46.2446H18.041L18.2151 46.0652ZM27.7137 50.366L27.6937 50.6152V50.6152L27.7137 50.366ZM37.7744 47.6277L37.9178 47.8325V47.8325L37.7744 47.6277ZM43.7832 39.1065L44.0243 39.1729V39.1729L43.7832 39.1065ZM42.984 28.7103L43.212 28.6079V28.6079L42.984 28.7103ZM43.4392 27.5131L43.3368 27.285L43.3368 27.285L43.4392 27.5131ZM44.6364 27.9683L44.8645 27.8658V27.8658L44.6364 27.9683ZM45.5294 39.5874L45.7704 39.6537V39.6537L45.5294 39.5874ZM38.8139 49.1112L38.9573 49.316V49.316L38.8139 49.1112ZM27.5695 52.1717L27.5496 52.4209H27.5496L27.5695 52.1717ZM16.9533 47.3651L16.7792 47.5444V47.5444L16.9533 47.3651ZM11.8345 36.896L11.586 36.9233H11.586L11.8345 36.896ZM14.5609 25.5658L14.352 25.4285V25.4285L14.5609 25.5658ZM25.4719 25.0378L25.3899 24.8017V24.8017L25.4719 25.0378ZM32.3687 25.0246L32.4499 24.7881L32.4499 24.7881L32.3687 25.0246ZM32.9315 26.1752L33.168 26.2564L33.168 26.2563L32.9315 26.1752ZM31.7809 26.7377L31.6997 26.9742V26.9742L31.7809 26.7377ZM26.0662 26.7489L25.9842 26.5128H25.9842L26.0662 26.7489ZM21.576 30.2834L21.3657 30.1482V30.1482L21.576 30.2834ZM20.2231 35.8353L19.9742 35.8586V35.8586L20.2231 35.8353ZM22.5836 41.0393L22.4021 41.2112L22.4021 41.2112L22.5836 41.0393ZM27.6526 43.6782L27.6159 43.9254H27.6159L27.6526 43.6782ZM33.2697 42.6274L33.3933 42.8447H33.3933L33.2697 42.6274ZM37.0418 38.335L37.2731 38.4297V38.4297L37.0418 38.335ZM37.3619 32.6295L37.6025 32.5613V32.5613L37.3619 32.6295ZM37.9861 31.511L37.9178 31.2705L37.9178 31.2705L37.9861 31.511ZM39.1046 32.1351L39.3451 32.0669V32.0669L39.1046 32.1351ZM38.7181 39.021L38.9494 39.1157V39.1157L38.7181 39.021ZM34.1656 44.2017L34.2892 44.419H34.2892L34.1656 44.2017ZM27.3861 45.47L27.3494 45.7173H27.3494L27.3861 45.47ZM21.2688 42.2852L21.0873 42.4571H21.0873L21.2688 42.2852ZM18.4194 36.0042L18.1705 36.0275V36.0275L18.4194 36.0042ZM20.0524 29.3035L19.8421 29.1682V29.1682L20.0524 29.3035ZM31.8174 33.4736L32.0354 33.3512C31.9971 33.2829 31.929 33.2365 31.8514 33.2259C31.7738 33.2152 31.6957 33.2416 31.6404 33.297L31.8174 33.4736ZM29.5282 35.769L29.7052 35.9455L29.7052 35.9455L29.5282 35.769ZM28.2476 35.7707L28.071 35.9477L28.071 35.9477L28.2476 35.7707ZM28.2458 34.4901L28.0688 34.3135L28.0688 34.3135L28.2458 34.4901ZM30.5509 32.1787L30.7279 32.3553C30.7825 32.3006 30.8087 32.2238 30.7989 32.1472C30.7892 32.0706 30.7445 32.0028 30.678 31.9635L30.5509 32.1787ZM28.7885 31.6979V31.4479H28.7885L28.7885 31.6979ZM28.7885 38.6413L28.7885 38.8913H28.7885V38.6413ZM52.5539 12.6835L52.551 12.4335C52.4815 12.4343 52.4155 12.464 52.3688 12.5154L52.5539 12.6835ZM52.5241 12.7147L52.7011 12.8913L52.7011 12.8913L52.5241 12.7147ZM46.147 19.1077L45.97 18.9311C45.8983 19.0031 45.8772 19.1112 45.9167 19.2048C45.9561 19.2984 46.0483 19.3588 46.1498 19.3577L46.147 19.1077ZM49.6694 19.0679L49.6723 19.3179C49.7376 19.3171 49.8 19.2909 49.8462 19.2447L49.6694 19.0679ZM56.094 12.6434L56.2707 12.8201C56.3426 12.7483 56.3638 12.6401 56.3244 12.5464C56.285 12.4527 56.1928 12.3922 56.0911 12.3934L56.094 12.6434ZM44.9731 14.3716L44.7963 14.1948C44.7501 14.241 44.7238 14.3034 44.7231 14.3687L44.9731 14.3716ZM44.9348 17.7583L44.6848 17.7555C44.6836 17.8572 44.7442 17.9494 44.8379 17.9888C44.9317 18.0282 45.0399 18.0069 45.1118 17.9349L44.9348 17.7583ZM51.2417 11.4358L51.4187 11.6124L51.4187 11.6124L51.2417 11.4358ZM51.3593 11.3362L51.5041 11.54C51.5693 11.4937 51.6084 11.419 51.6093 11.339L51.3593 11.3362ZM51.3976 7.94703L51.6476 7.94985C51.6487 7.84823 51.5883 7.75602 51.4946 7.7166C51.4009 7.67718 51.2927 7.69839 51.2208 7.77025L51.3976 7.94703ZM28.7885 40.4526L28.7885 40.7026H28.7885V40.4526ZM28.7885 29.8866V29.6366H28.7885L28.7885 29.8866ZM31.8575 30.8689L31.7121 31.0723C31.8117 31.1434 31.9481 31.1321 32.0345 31.0455L31.8575 30.8689ZM43.1025 19.5953L43.2795 19.7719C43.3256 19.7257 43.3518 19.6634 43.3525 19.5982L43.1025 19.5953ZM43.1662 13.9821L42.9162 13.9793V13.9793L43.1662 13.9821ZM43.4315 13.3521L43.2547 13.1753L43.2547 13.1753L43.4315 13.3521ZM51.6883 5.09532L51.5115 4.91854V4.91854L51.6883 5.09532ZM52.68 4.90104L52.777 4.67062L52.777 4.67061L52.68 4.90104ZM53.2343 5.74596L53.4843 5.7488V5.7488L53.2343 5.74596ZM53.1762 10.8648L52.9262 10.8619C52.9255 10.9292 52.9519 10.994 52.9994 11.0415C53.047 11.0891 53.1117 11.1155 53.179 11.1148L53.1762 10.8648ZM58.2956 10.807L58.2928 10.557L58.2928 10.557L58.2956 10.807ZM59.1405 11.3615L59.371 11.2646L59.371 11.2646L59.1405 11.3615ZM58.9463 12.353L59.123 12.5298L59.1231 12.5297L58.9463 12.353ZM50.6895 20.6098L50.8663 20.7865V20.7865L50.6895 20.6098ZM50.0592 20.8751L50.062 21.1251V21.1251L50.0592 20.8751ZM44.3195 20.9399L44.3167 20.69C44.2512 20.6907 44.1887 20.7171 44.1425 20.7634L44.3195 20.9399ZM33.1293 32.1584L32.9523 31.9818C32.867 32.0674 32.8551 32.2018 32.924 32.3011L33.1293 32.1584ZM49.7585 24.6788L49.5346 24.79C51.9685 29.6906 52.5752 35.2984 51.2457 40.6061L51.4882 40.6668L51.7307 40.7275C53.0891 35.3045 52.4692 29.5747 49.9825 24.5676L49.7585 24.6788ZM51.4882 40.6668L51.2457 40.6061C49.9162 45.9137 46.7377 50.5734 42.2811 53.748L42.4261 53.9516L42.5712 54.1552C47.1247 50.9116 50.3723 46.1506 51.7307 40.7275L51.4882 40.6668ZM42.4261 53.9516L42.2811 53.748C37.8245 56.9225 32.382 58.404 26.9313 57.9261L26.9094 58.1751L26.8876 58.4242C32.4569 58.9124 38.0177 57.3988 42.5712 54.1552L42.4261 53.9516ZM26.9094 58.1751L26.9313 57.9261C21.4805 57.4482 16.3788 55.0424 12.5426 51.1408L12.3643 51.3161L12.1861 51.4914C16.1057 55.4778 21.3183 57.9359 26.8876 58.4242L26.9094 58.1751ZM12.3643 51.3161L12.5426 51.1408C8.70639 47.2392 6.38713 42.0976 6.00146 36.6395L5.75208 36.6571L5.5027 36.6748C5.89676 42.2515 8.26645 47.5049 12.1861 51.4914L12.3643 51.3161ZM5.75208 36.6571L6.00146 36.6395C5.61579 31.1815 7.18898 25.7648 10.4384 21.3625L10.2373 21.214L10.0361 21.0656C6.71605 25.5636 5.10864 31.098 5.5027 36.6748L5.75208 36.6571ZM10.2373 21.214L10.4384 21.3625C13.6879 16.9602 18.4006 13.8609 23.73 12.6213L23.6733 12.3778L23.6167 12.1343C18.1714 13.4008 13.3562 16.5676 10.0361 21.0656L10.2373 21.214ZM23.6733 12.3778L23.73 12.6213C29.0594 11.3817 34.6561 12.0831 39.5148 14.5994L39.6298 14.3774L39.7448 14.1554C34.7804 11.5844 29.062 10.8677 23.6167 12.1343L23.6733 12.3778ZM43.8102 28.3392L43.5821 28.4416C45.1121 31.8477 45.4067 35.6806 44.4153 39.2805L44.6564 39.3469L44.8974 39.4132C45.9196 35.7012 45.6158 31.7489 44.0382 28.2368L43.8102 28.3392ZM44.6564 39.3469L44.4153 39.2805C43.424 42.8804 41.2087 46.022 38.1507 48.1647L38.2942 48.3694L38.4376 48.5742C41.5908 46.3648 43.8752 43.1253 44.8974 39.4132L44.6564 39.3469ZM38.2942 48.3694L38.1507 48.1647C35.0928 50.3073 31.3835 51.3169 27.6615 51.0196L27.6415 51.2688L27.6216 51.518C31.4596 51.8246 35.2844 50.7836 38.4376 48.5742L38.2942 48.3694ZM27.6415 51.2688L27.6615 51.0196C23.9394 50.7223 20.4374 49.1367 17.7584 46.5358L17.5843 46.7152L17.4101 46.8946C20.1726 49.5765 23.7837 51.2115 27.6216 51.518L27.6415 51.2688ZM17.5843 46.7152L17.7584 46.5358C15.0793 43.9349 13.3908 40.4814 12.9835 36.7698L12.735 36.7971L12.4864 36.8244C12.9065 40.6516 14.6476 44.2127 17.4101 46.8946L17.5843 46.7152ZM12.735 36.7971L12.9835 36.7698C12.5761 33.0582 13.4755 29.3207 15.5266 26.2007L15.3177 26.0633L15.1089 25.926C12.9938 29.1432 12.0664 32.9972 12.4864 36.8244L12.735 36.7971ZM15.3177 26.0633L15.5266 26.2007C17.5778 23.0806 20.6526 20.7733 24.2215 19.6758L24.1481 19.4369L24.0746 19.1979C20.3944 20.3296 17.2239 22.7088 15.1089 25.926L15.3177 26.0633ZM24.1481 19.4369L24.2215 19.6758C27.7905 18.5783 31.6304 18.7594 35.0803 20.1878L35.1759 19.9568L35.2716 19.7259C31.7142 18.2529 27.7547 18.0662 24.0746 19.1979L24.1481 19.4369ZM38.2332 32.3823L37.9927 32.4505C38.5672 34.4757 38.4461 36.6351 37.6486 38.5834L37.88 38.6781L38.1114 38.7728C38.9512 36.721 39.0788 34.4469 38.4737 32.3141L38.2332 32.3823ZM37.88 38.6781L37.6486 38.5834C36.8512 40.5316 35.4235 42.1562 33.5939 43.1974L33.7176 43.4147L33.8412 43.632C35.7681 42.5355 37.2716 40.8245 38.1114 38.7728L37.88 38.6781ZM33.7176 43.4147L33.5939 43.1974C31.7643 44.2386 29.6384 44.6363 27.5562 44.3268L27.5194 44.5741L27.4827 44.8214C29.6756 45.1473 31.9144 44.7285 33.8412 43.632L33.7176 43.4147ZM27.5194 44.5741L27.5562 44.3268C25.4739 44.0174 23.5555 43.0186 22.1078 41.4903L21.9263 41.6623L21.7448 41.8342C23.2695 43.4437 25.2898 44.4955 27.4827 44.8214L27.5194 44.5741ZM21.9263 41.6623L22.1078 41.4903C20.6601 39.9621 19.7666 37.9925 19.5702 35.8965L19.3213 35.9199L19.0724 35.9432C19.2792 38.1505 20.2202 40.2247 21.7448 41.8342L21.9263 41.6623ZM19.3213 35.9199L19.5702 35.8965C19.3738 33.8006 19.8859 31.6993 21.0245 29.9287L20.8143 29.7935L20.604 29.6582C19.4049 31.5229 18.8656 33.7359 19.0724 35.9432L19.3213 35.9199ZM20.8143 29.7935L21.0245 29.9287C22.1632 28.1581 23.8627 26.8204 25.8512 26.1295L25.7691 25.8934L25.6871 25.6572C23.5929 26.3848 21.8032 27.7936 20.604 29.6582L20.8143 29.7935ZM25.7691 25.8934L25.8512 26.1295C27.8397 25.4386 30.0025 25.4345 31.9937 26.1177L32.0748 25.8812L32.1559 25.6448C30.059 24.9252 27.7813 24.9296 25.6871 25.6572L25.7691 25.8934ZM33.166 35.1696H32.916C32.916 37.4491 31.0681 39.297 28.7886 39.297V39.547V39.797C31.3442 39.797 33.416 37.7252 33.416 35.1696H33.166ZM28.7886 39.547V39.297C26.5091 39.297 24.6612 37.4491 24.6612 35.1696H24.4112H24.1612C24.1612 37.7252 26.233 39.797 28.7886 39.797V39.547ZM24.4112 35.1696H24.6612C24.6612 32.8902 26.5091 31.0423 28.7886 31.0423V30.7923V30.5423C26.233 30.5423 24.1612 32.614 24.1612 35.1696H24.4112ZM28.7886 30.7923V31.0423C31.0681 31.0423 32.916 32.8902 32.916 35.1696H33.166H33.416C33.416 32.614 31.3442 30.5423 28.7886 30.5423V30.7923ZM44.0719 13.9925L44.2487 14.1692L52.5055 5.91244L52.3287 5.73566L52.152 5.55889L43.8952 13.8157L44.0719 13.9925ZM58.3058 11.7127L58.129 11.5359L49.8722 19.7927L50.049 19.9695L50.2258 20.1463L58.4826 11.8895L58.3058 11.7127ZM52.3287 5.73566L52.0787 5.73284L52.0104 11.7783L52.2603 11.7811L52.5103 11.7839L52.5787 5.73849L52.3287 5.73566ZM52.2603 11.7811L52.2632 12.0311L58.3086 11.9627L58.3058 11.7127L58.303 11.4627L52.2575 11.5311L52.2603 11.7811ZM50.049 19.9695L50.0462 19.7195L44.0007 19.7879L44.0035 20.0379L44.0064 20.2879L50.0518 20.2195L50.049 19.9695ZM44.0035 20.0379L44.2535 20.0407L44.3219 13.9953L44.0719 13.9925L43.8219 13.9896L43.7536 20.0351L44.0035 20.0379ZM28.8871 35.1295L29.0641 35.3061L52.0599 12.2518L51.8829 12.0753L51.7059 11.8987L28.7101 34.953L28.8871 35.1295ZM23.4681 11.4957L23.5247 11.7392C29.064 10.4508 34.8812 11.1798 39.9312 13.7952L40.0462 13.5732L40.1612 13.3512C35.0055 10.6811 29.0666 9.9368 23.4114 11.2522L23.4681 11.4957ZM40.0462 13.5732L39.9312 13.7952C40.2527 13.9617 40.3784 14.3575 40.2119 14.679L40.4339 14.794L40.6559 14.909C40.9494 14.3423 40.728 13.6447 40.1612 13.3512L40.0462 13.5732ZM40.4339 14.794L40.2119 14.679C40.0453 15.0005 39.6498 15.1261 39.3283 14.9597L39.2134 15.1817L39.0984 15.4037C39.6651 15.6971 40.3623 15.4756 40.6559 14.909L40.4339 14.794ZM39.2134 15.1817L39.3283 14.9597C34.5553 12.4877 29.0572 11.7986 23.8218 13.0163L23.8784 13.2598L23.9351 13.5033C29.0546 12.3125 34.431 12.9864 39.0984 15.4037L39.2134 15.1817ZM23.8784 13.2598L23.8218 13.0163C18.5865 14.2341 13.957 17.2788 10.7649 21.6034L10.966 21.7519L11.1671 21.9003C14.2886 17.6715 18.8156 14.6941 23.9351 13.5033L23.8784 13.2598ZM10.966 21.7519L10.7649 21.6034C7.57275 25.928 6.02733 31.2491 6.40619 36.6109L6.65557 36.5933L6.90495 36.5756C6.53447 31.3326 8.04569 26.1292 11.1671 21.9003L10.966 21.7519ZM6.65557 36.5933L6.40619 36.6109C6.78506 41.9726 9.06317 47.0236 12.8317 50.8564L13.0099 50.6811L13.1882 50.5058C9.50313 46.7579 7.27543 41.8187 6.90495 36.5756L6.65557 36.5933ZM13.0099 50.6811L12.8317 50.8564C16.6002 54.6891 21.612 57.0524 26.9666 57.5218L26.9884 57.2728L27.0103 57.0237C21.7742 56.5647 16.8733 54.2537 13.1882 50.5058L13.0099 50.6811ZM26.9884 57.2728L26.9666 57.5218C32.3212 57.9913 37.6677 56.536 42.0456 53.4174L41.9006 53.2138L41.7555 53.0102C37.4745 56.0597 32.2463 57.4828 27.0102 57.0237L26.9884 57.2728ZM41.9006 53.2138L42.0456 53.4174C46.4236 50.2989 49.546 45.7215 50.8521 40.5075L50.6096 40.4467L50.3671 40.386C49.0899 45.4846 46.0366 49.9607 41.7555 53.0102L41.9006 53.2138ZM50.6096 40.4467L50.8521 40.5075C52.1581 35.2935 51.5622 29.7846 49.1713 24.9706L48.9474 25.0818L48.7235 25.193C51.0615 29.9005 51.6442 35.2874 50.3671 40.386L50.6096 40.4467ZM48.9474 25.0818L49.1713 24.9706C49.0103 24.6462 49.1426 24.2527 49.467 24.0916L49.3558 23.8677L49.2445 23.6438C48.6729 23.9277 48.4396 24.6213 48.7235 25.193L48.9474 25.0818ZM49.3558 23.8677L49.4669 24.0916C49.7913 23.9306 50.1848 24.063 50.3459 24.3872L50.5698 24.276L50.7937 24.1648C50.5098 23.5932 49.8162 23.36 49.2446 23.6438L49.3558 23.8677ZM50.5698 24.276L50.3459 24.3872C52.8756 29.4807 53.506 35.3095 52.1241 40.8261L52.3667 40.8869L52.6092 40.9476C54.0199 35.3156 53.3763 29.3649 50.7937 24.1648L50.5698 24.276ZM52.3667 40.8869L52.1241 40.8261C50.7423 46.3428 47.4386 51.1861 42.8065 54.4857L42.9516 54.6894L43.0966 54.893C47.8256 51.5244 51.1984 46.5797 52.6092 40.9476L52.3667 40.8869ZM42.9516 54.6894L42.8065 54.4857C38.1745 57.7853 32.5176 59.3249 26.8522 58.8283L26.8304 59.0773L26.8086 59.3264C32.5924 59.8334 38.3677 58.2616 43.0966 54.893L42.9516 54.6894ZM26.8304 59.0773L26.8522 58.8283C21.1868 58.3316 15.8839 55.8311 11.8966 51.7759L11.7184 51.9511L11.5401 52.1264C15.6108 56.2665 21.0246 58.8193 26.8086 59.3264L26.8304 59.0773ZM11.7184 51.9511L11.8966 51.7759C7.90934 47.7206 5.49891 42.3763 5.09805 36.7033L4.84867 36.7209L4.5993 36.7385C5.00854 42.5302 7.46939 47.9863 11.5401 52.1264L11.7184 51.9511ZM4.84867 36.7209L5.09805 36.7033C4.6972 31.0303 6.3322 25.4002 9.7096 20.8246L9.50846 20.6761L9.30732 20.5276C5.85926 25.199 4.19006 30.9469 4.5993 36.7385L4.84867 36.7209ZM9.50846 20.6761L9.7096 20.8246C13.087 16.2489 17.9854 13.0276 23.5247 11.7392L23.4681 11.4957L23.4114 11.2522C17.7563 12.5676 12.7554 15.8563 9.30732 20.5276L9.50846 20.6761ZM23.8817 18.5711L23.9552 18.8101C27.7255 17.6507 31.7822 17.8421 35.4267 19.3511L35.5223 19.1201L35.618 18.8891C31.866 17.3356 27.6897 17.1386 23.8082 18.3322L23.8817 18.5711ZM35.5223 19.1201L35.4267 19.3511C35.7612 19.4896 35.9201 19.873 35.7816 20.2075L36.0126 20.3032L36.2436 20.3988C36.4877 19.8091 36.2076 19.1333 35.618 18.8891L35.5223 19.1201ZM36.0126 20.3032L35.7816 20.2075C35.643 20.5422 35.2596 20.7012 34.9251 20.5627L34.8295 20.7937L34.7339 21.0247C35.3237 21.2688 35.9995 20.9883 36.2436 20.3988L36.0126 20.3032ZM34.8295 20.7937L34.9251 20.5627C31.5625 19.1704 27.8194 18.9939 24.3406 20.0636L24.4141 20.3026L24.4876 20.5415C27.8552 19.506 31.4786 19.6769 34.7339 21.0247L34.8295 20.7937ZM24.4141 20.3026L24.3406 20.0636C20.8619 21.1334 17.8649 23.3823 15.8656 26.4235L16.0745 26.5608L16.2834 26.6982C18.2188 23.7542 21.1201 21.5771 24.4876 20.5415L24.4141 20.3026ZM16.0745 26.5608L15.8656 26.4235C13.8663 29.4647 12.9897 33.1077 13.3867 36.7255L13.6352 36.6982L13.8837 36.6709C13.4994 33.1688 14.3479 29.6421 16.2834 26.6982L16.0745 26.5608ZM13.6352 36.6982L13.3867 36.7255C13.7838 40.3433 15.4297 43.7095 18.041 46.2446L18.2151 46.0652L18.3893 45.8859C15.8614 43.4317 14.2681 40.1731 13.8837 36.6709L13.6352 36.6982ZM18.2151 46.0652L18.041 46.2446C20.6523 48.7798 24.0658 50.3254 27.6937 50.6152L27.7137 50.366L27.7336 50.1167C24.2215 49.8362 20.9172 48.34 18.3893 45.8859L18.2151 46.0652ZM27.7137 50.366L27.6937 50.6152C31.3217 50.9049 34.9372 49.921 37.9178 47.8325L37.7744 47.6277L37.6309 47.423C34.7455 49.4447 31.2456 50.3973 27.7336 50.1167L27.7137 50.366ZM37.7744 47.6277L37.9178 47.8325C40.8985 45.744 43.0579 42.6818 44.0243 39.1729L43.7832 39.1065L43.5422 39.0401C42.6068 42.4369 40.5163 45.4013 37.6309 47.423L37.7744 47.6277ZM43.7832 39.1065L44.0243 39.1729C44.9906 35.664 44.7033 31.9279 43.212 28.6079L42.984 28.7103L42.7559 28.8127C44.1995 32.0266 44.4776 35.6434 43.5422 39.0401L43.7832 39.1065ZM42.984 28.7103L43.212 28.6079C43.0637 28.2776 43.2112 27.8895 43.5416 27.7411L43.4392 27.5131L43.3368 27.285C42.7546 27.5465 42.4944 28.2305 42.7559 28.8127L42.984 28.7103ZM43.4392 27.5131L43.5416 27.7411C43.8719 27.5928 44.26 27.7404 44.4084 28.0707L44.6364 27.9683L44.8645 27.8658C44.603 27.2837 43.919 27.0236 43.3368 27.285L43.4392 27.5131ZM44.6364 27.9683L44.4084 28.0707C46.0245 31.6689 46.3356 35.718 45.2884 39.521L45.5294 39.5874L45.7704 39.6537C46.8486 35.7387 46.5283 31.5701 44.8645 27.8658L44.6364 27.9683ZM45.5294 39.5874L45.2884 39.521C44.2411 43.324 41.9009 46.643 38.6704 48.9065L38.8139 49.1112L38.9573 49.316C42.2831 46.9857 44.6922 43.5688 45.7704 39.6537L45.5294 39.5874ZM38.8139 49.1112L38.6704 48.9065C35.44 51.17 31.5214 52.2365 27.5894 51.9225L27.5695 52.1717L27.5496 52.4209C31.5975 52.7442 35.6316 51.6462 38.9573 49.316L38.8139 49.1112ZM27.5695 52.1717L27.5894 51.9225C23.6574 51.6084 19.9577 49.9333 17.1275 47.1857L16.9533 47.3651L16.7792 47.5444C19.6928 50.3731 23.5016 52.0975 27.5496 52.4209L27.5695 52.1717ZM16.9533 47.3651L17.1275 47.1857C14.2973 44.4381 12.5134 40.7897 12.083 36.8687L11.8345 36.896L11.586 36.9233C12.0291 40.9599 13.8656 44.7158 16.7792 47.5444L16.9533 47.3651ZM11.8345 36.896L12.083 36.8687C11.6527 32.9477 12.6029 28.9992 14.7698 25.7032L14.5609 25.5658L14.352 25.4285C12.1212 28.8217 11.143 32.8867 11.586 36.9233L11.8345 36.896ZM14.5609 25.5658L14.7698 25.7032C16.9367 22.4071 20.1849 19.9695 23.9552 18.8101L23.8817 18.5711L23.8082 18.3322C19.9267 19.5258 16.5828 22.0353 14.352 25.4285L14.5609 25.5658ZM25.4719 25.0378L25.554 25.274C27.7339 24.5166 30.1048 24.5121 32.2876 25.261L32.3687 25.0246L32.4499 24.7881C30.1613 24.0028 27.6754 24.0076 25.3899 24.8017L25.4719 25.0378ZM32.3687 25.0246L32.2876 25.261C32.6301 25.3786 32.8126 25.7516 32.695 26.0941L32.9315 26.1752L33.168 26.2563C33.3751 25.6526 33.0535 24.9952 32.4499 24.7881L32.3687 25.0246ZM32.9315 26.1752L32.6951 26.0941C32.5776 26.4365 32.2046 26.6188 31.862 26.5012L31.7809 26.7377L31.6997 26.9742C32.3033 27.1813 32.9608 26.8601 33.168 26.2564L32.9315 26.1752ZM31.7809 26.7377L31.862 26.5012C29.9566 25.8475 27.887 25.8517 25.9842 26.5128L26.0662 26.7489L26.1483 26.9851C27.9455 26.3607 29.9002 26.3567 31.6997 26.9742L31.7809 26.7377ZM26.0662 26.7489L25.9842 26.5128C24.0814 27.1739 22.4552 28.4539 21.3657 30.1482L21.576 30.2834L21.7862 30.4186C22.8153 28.8184 24.3512 27.6095 26.1483 26.9851L26.0662 26.7489ZM21.576 30.2834L21.3657 30.1482C20.2762 31.8424 19.7863 33.8531 19.9742 35.8586L20.2231 35.8353L20.472 35.812C20.2945 33.9178 20.7572 32.0188 21.7862 30.4186L21.576 30.2834ZM20.2231 35.8353L19.9742 35.8586C20.1621 37.8641 21.0169 39.7488 22.4021 41.2112L22.5836 41.0393L22.7651 40.8674C21.4568 39.4862 20.6495 37.7062 20.472 35.812L20.2231 35.8353ZM22.5836 41.0393L22.4021 41.2112C23.7875 42.6736 25.6234 43.6293 27.6159 43.9254L27.6526 43.6782L27.6894 43.4309C25.8075 43.1512 24.0735 42.2486 22.7651 40.8674L22.5836 41.0393ZM27.6526 43.6782L27.6159 43.9254C29.6083 44.2215 31.6426 43.841 33.3933 42.8447L33.2697 42.6274L33.146 42.4102C31.4925 43.3512 29.5712 43.7105 27.6894 43.4309L27.6526 43.6782ZM33.2697 42.6274L33.3933 42.8447C35.144 41.8484 36.5101 40.2939 37.2731 38.4297L37.0418 38.335L36.8104 38.2403C36.0897 40.001 34.7995 41.4692 33.146 42.4102L33.2697 42.6274ZM37.0418 38.335L37.2731 38.4297C38.0362 36.5655 38.1522 34.4992 37.6025 32.5613L37.3619 32.6295L37.1214 32.6977C37.6406 34.528 37.5311 36.4796 36.8104 38.2403L37.0418 38.335ZM37.3619 32.6295L37.6025 32.5613C37.5036 32.2129 37.7059 31.8503 38.0543 31.7515L37.9861 31.511L37.9178 31.2705C37.3038 31.4447 36.9473 32.0837 37.1214 32.6977L37.3619 32.6295ZM37.9861 31.511L38.0543 31.7515C38.4027 31.6527 38.7653 31.855 38.8641 32.2033L39.1046 32.1351L39.3451 32.0669C39.1709 31.4528 38.5318 31.0963 37.9178 31.2705L37.9861 31.511ZM39.1046 32.1351L38.8641 32.2033C39.4938 34.4234 39.3609 36.7906 38.4867 38.9263L38.7181 39.021L38.9494 39.1157C39.866 36.8765 40.0054 34.3946 39.3451 32.0669L39.1046 32.1351ZM38.7181 39.021L38.4867 38.9263C37.6125 41.062 36.0476 42.8431 34.0419 43.9845L34.1656 44.2017L34.2892 44.419C36.3921 43.2223 38.0329 41.3549 38.9494 39.1157L38.7181 39.021ZM34.1656 44.2017L34.0419 43.9845C32.0362 45.1259 29.7055 45.562 27.4229 45.2227L27.3861 45.47L27.3494 45.7173C29.7427 46.073 32.1863 45.6157 34.2892 44.419L34.1656 44.2017ZM27.3861 45.47L27.4229 45.2227C25.1403 44.8835 23.0373 43.7886 21.4503 42.1132L21.2688 42.2852L21.0873 42.4571C22.7512 44.2136 24.9561 45.3616 27.3494 45.7173L27.3861 45.47ZM21.2688 42.2852L21.4503 42.1132C19.8632 40.4379 18.8836 38.2786 18.6683 35.9809L18.4194 36.0042L18.1705 36.0275C18.3962 38.4366 19.4233 40.7005 21.0873 42.4571L21.2688 42.2852ZM18.4194 36.0042L18.6683 35.9809C18.4531 33.6833 19.0145 31.3797 20.2627 29.4387L20.0524 29.3035L19.8421 29.1682C18.5334 31.2033 17.9448 33.6185 18.1705 36.0275L18.4194 36.0042ZM20.0524 29.3035L20.2627 29.4387C21.5109 27.4977 23.374 26.0313 25.554 25.274L25.4719 25.0378L25.3899 24.8017C23.1043 25.5957 21.1509 27.1332 19.8421 29.1682L20.0524 29.3035ZM32.2602 35.1696H32.5102C32.5102 34.5092 32.3373 33.889 32.0354 33.3512L31.8174 33.4736L31.5994 33.5959C31.8606 34.0614 32.0102 34.5976 32.0102 35.1696H32.2602ZM31.8174 33.4736L31.6404 33.297L29.3512 35.5924L29.5282 35.769L29.7052 35.9455L31.9944 33.6501L31.8174 33.4736ZM29.5282 35.769L29.3512 35.5924C29.0955 35.8488 28.6804 35.8494 28.4241 35.5937L28.2476 35.7707L28.071 35.9477C28.5229 36.3984 29.2545 36.3973 29.7052 35.9455L29.5282 35.769ZM28.2476 35.7707L28.4241 35.5937C28.1677 35.338 28.1672 34.923 28.4228 34.6666L28.2458 34.4901L28.0688 34.3135C27.6181 34.7655 27.6192 35.497 28.071 35.9477L28.2476 35.7707ZM28.2458 34.4901L28.4228 34.6666L30.7279 32.3553L30.5509 32.1787L30.3739 32.0022L28.0688 34.3135L28.2458 34.4901ZM30.5509 32.1787L30.678 31.9635C30.1241 31.6364 29.4781 31.4479 28.7885 31.4479V31.6979V31.9479C29.3859 31.9479 29.9444 32.1109 30.4238 32.394L30.5509 32.1787ZM28.7885 31.6979L28.7885 31.4479C26.7331 31.4479 25.0668 33.1142 25.0668 35.1696H25.3168H25.5668C25.5668 33.3903 27.0093 31.9479 28.7885 31.9479L28.7885 31.6979ZM25.3168 35.1696H25.0668C25.0668 37.225 26.7331 38.8913 28.7885 38.8913L28.7885 38.6413L28.7885 38.3913C27.0093 38.3913 25.5668 36.9489 25.5668 35.1696H25.3168ZM28.7885 38.6413V38.8913C30.844 38.8913 32.5102 37.225 32.5102 35.1696H32.2602H32.0102C32.0102 36.9489 30.5678 38.3913 28.7885 38.3913V38.6413ZM52.5539 12.6835L52.3688 12.5154C52.362 12.5229 52.3548 12.5305 52.3471 12.5382L52.5241 12.7147L52.7011 12.8913C52.7138 12.8785 52.7265 12.8652 52.739 12.8515L52.5539 12.6835ZM52.5241 12.7147L52.3471 12.5382L45.97 18.9311L46.147 19.1077L46.324 19.2843L52.7011 12.8913L52.5241 12.7147ZM46.147 19.1077L46.1498 19.3577L49.6723 19.3179L49.6694 19.0679L49.6666 18.8179L46.1442 18.8577L46.147 19.1077ZM49.6694 19.0679L49.8462 19.2447L56.2707 12.8201L56.094 12.6434L55.9172 12.4666L49.4927 18.8911L49.6694 19.0679ZM56.094 12.6434L56.0911 12.3934L52.551 12.4335L52.5539 12.6835L52.5567 12.9334L56.0968 12.8934L56.094 12.6434ZM44.9731 14.3716L44.7231 14.3687L44.6848 17.7555L44.9348 17.7583L45.1847 17.7612L45.2231 14.3744L44.9731 14.3716ZM44.9348 17.7583L45.1118 17.9349L51.4187 11.6124L51.2417 11.4358L51.0647 11.2593L44.7578 17.5818L44.9348 17.7583ZM51.2417 11.4358L51.4187 11.6124C51.4457 11.5852 51.4744 11.5611 51.5041 11.54L51.3593 11.3362L51.2145 11.1324C51.1617 11.1699 51.1115 11.2123 51.0647 11.2593L51.2417 11.4358ZM51.3593 11.3362L51.6093 11.339L51.6476 7.94985L51.3976 7.94703L51.1476 7.9442L51.1093 11.3334L51.3593 11.3362ZM51.3976 7.94703L51.2208 7.77025L44.7963 14.1948L44.9731 14.3716L45.1499 14.5483L51.5744 8.1238L51.3976 7.94703ZM34.0716 35.1696H33.8216C33.8216 37.9493 31.5682 40.2026 28.7885 40.2026V40.4526V40.7026C31.8443 40.7026 34.3216 38.2254 34.3216 35.1696H34.0716ZM28.7885 40.4526L28.7885 40.2026C26.0089 40.2026 23.7555 37.9493 23.7555 35.1696H23.5055H23.2555C23.2555 38.2254 25.7327 40.7026 28.7885 40.7026L28.7885 40.4526ZM23.5055 35.1696H23.7555C23.7555 32.39 26.0089 30.1366 28.7885 30.1366L28.7885 29.8866L28.7885 29.6366C25.7327 29.6366 23.2555 32.1138 23.2555 35.1696H23.5055ZM28.7885 29.8866V30.1366C29.8791 30.1366 30.8881 30.4832 31.7121 31.0723L31.8575 30.8689L32.0029 30.6655C31.0968 30.0178 29.9868 29.6366 28.7885 29.6366V29.8866ZM31.8575 30.8689L32.0345 31.0455L43.2795 19.7719L43.1025 19.5953L42.9255 19.4188L31.6805 30.6923L31.8575 30.8689ZM43.1025 19.5953L43.3525 19.5982L43.4162 13.9849L43.1662 13.9821L42.9162 13.9793L42.8525 19.5925L43.1025 19.5953ZM43.1662 13.9821L43.4162 13.985C43.4181 13.8138 43.4871 13.6501 43.6083 13.5289L43.4315 13.3521L43.2547 13.1753C43.0413 13.3887 42.9196 13.6772 42.9162 13.9793L43.1662 13.9821ZM43.4315 13.3521L43.6083 13.5289L51.8651 5.27209L51.6883 5.09532L51.5115 4.91854L43.2547 13.1753L43.4315 13.3521ZM51.6883 5.09532L51.8651 5.27209C52.0535 5.08365 52.3374 5.02805 52.5831 5.13146L52.68 4.90104L52.777 4.67061C52.344 4.48839 51.8438 4.58631 51.5115 4.91854L51.6883 5.09532ZM52.68 4.90104L52.583 5.13145C52.8287 5.23487 52.9873 5.47666 52.9843 5.74313L53.2343 5.74596L53.4843 5.7488C53.4896 5.27903 53.21 4.85287 52.777 4.67062L52.68 4.90104ZM53.2343 5.74596L52.9843 5.74313L52.9262 10.8619L53.1762 10.8648L53.4262 10.8676L53.4843 5.7488L53.2343 5.74596ZM53.1762 10.8648L53.179 11.1148L58.2984 11.057L58.2956 10.807L58.2928 10.557L53.1734 10.6148L53.1762 10.8648ZM58.2956 10.807L58.2984 11.057C58.5648 11.054 58.8067 11.2128 58.9101 11.4585L59.1405 11.3615L59.371 11.2646C59.1888 10.8317 58.7626 10.5518 58.2928 10.557L58.2956 10.807ZM59.1405 11.3615L58.9101 11.4585C59.0134 11.7041 58.9578 11.9878 58.7695 12.1762L58.9463 12.353L59.1231 12.5297C59.4551 12.1976 59.5531 11.6975 59.371 11.2646L59.1405 11.3615ZM58.9463 12.353L58.7695 12.1762L50.5127 20.433L50.6895 20.6098L50.8663 20.7865L59.123 12.5298L58.9463 12.353ZM50.6895 20.6098L50.5127 20.433C50.3915 20.5542 50.2276 20.6232 50.0563 20.6251L50.0592 20.8751L50.062 21.1251C50.364 21.1217 50.6528 21 50.8663 20.7865L50.6895 20.6098ZM50.0592 20.8751L50.0563 20.6251L44.3167 20.69L44.3195 20.9399L44.3223 21.1899L50.062 21.1251L50.0592 20.8751ZM44.3195 20.9399L44.1425 20.7634L32.9523 31.9818L33.1293 32.1584L33.3063 32.335L44.4965 21.1165L44.3195 20.9399ZM33.1293 32.1584L32.924 32.3011C33.4897 33.1149 33.8216 34.1031 33.8216 35.1696H34.0716H34.3216C34.3216 33.9977 33.9565 32.9105 33.3346 32.0157L33.1293 32.1584Z" fill="#1C4D99"/>
</svg>
